<svg xmlns="http://www.w3.org/2000/svg" xmlns:xlink="http://www.w3.org/1999/xlink" width="600" height="400" viewBox="0 0 2400 1600">
<defs>
  <clipPath id="clip670">
    <rect x="0" y="0" width="2400" height="1600"></rect>
  </clipPath>
</defs>
<path clip-path="url(#clip670)" d="M0 1600 L2400 1600 L2400 0 L0 0  Z" fill="#ffffff" fill-rule="evenodd" fill-opacity="1"></path>
<defs>
  <clipPath id="clip671">
    <rect x="480" y="0" width="1681" height="1600"></rect>
  </clipPath>
</defs>
<path clip-path="url(#clip670)" d="M148.867 1486.45 L2352.76 1486.45 L2352.76 47.2441 L148.867 47.2441  Z" fill="#ffffff" fill-rule="evenodd" fill-opacity="1"></path>
<defs>
  <clipPath id="clip672">
    <rect x="148" y="47" width="2205" height="1440"></rect>
  </clipPath>
</defs>
<polyline clip-path="url(#clip672)" style="stroke:#000000; stroke-linecap:round; stroke-linejoin:round; stroke-width:2; stroke-opacity:0.1; fill:none" points="186.781,1486.45 186.781,47.2441 "></polyline>
<polyline clip-path="url(#clip672)" style="stroke:#000000; stroke-linecap:round; stroke-linejoin:round; stroke-width:2; stroke-opacity:0.1; fill:none" points="675.99,1486.45 675.99,47.2441 "></polyline>
<polyline clip-path="url(#clip672)" style="stroke:#000000; stroke-linecap:round; stroke-linejoin:round; stroke-width:2; stroke-opacity:0.1; fill:none" points="1165.2,1486.45 1165.2,47.2441 "></polyline>
<polyline clip-path="url(#clip672)" style="stroke:#000000; stroke-linecap:round; stroke-linejoin:round; stroke-width:2; stroke-opacity:0.1; fill:none" points="1654.41,1486.45 1654.41,47.2441 "></polyline>
<polyline clip-path="url(#clip672)" style="stroke:#000000; stroke-linecap:round; stroke-linejoin:round; stroke-width:2; stroke-opacity:0.1; fill:none" points="2143.62,1486.45 2143.62,47.2441 "></polyline>
<polyline clip-path="url(#clip670)" style="stroke:#000000; stroke-linecap:round; stroke-linejoin:round; stroke-width:4; stroke-opacity:1; fill:none" points="148.867,1486.45 2352.76,1486.45 "></polyline>
<polyline clip-path="url(#clip670)" style="stroke:#000000; stroke-linecap:round; stroke-linejoin:round; stroke-width:4; stroke-opacity:1; fill:none" points="186.781,1486.45 186.781,1467.55 "></polyline>
<polyline clip-path="url(#clip670)" style="stroke:#000000; stroke-linecap:round; stroke-linejoin:round; stroke-width:4; stroke-opacity:1; fill:none" points="675.99,1486.45 675.99,1467.55 "></polyline>
<polyline clip-path="url(#clip670)" style="stroke:#000000; stroke-linecap:round; stroke-linejoin:round; stroke-width:4; stroke-opacity:1; fill:none" points="1165.2,1486.45 1165.2,1467.55 "></polyline>
<polyline clip-path="url(#clip670)" style="stroke:#000000; stroke-linecap:round; stroke-linejoin:round; stroke-width:4; stroke-opacity:1; fill:none" points="1654.41,1486.45 1654.41,1467.55 "></polyline>
<polyline clip-path="url(#clip670)" style="stroke:#000000; stroke-linecap:round; stroke-linejoin:round; stroke-width:4; stroke-opacity:1; fill:none" points="2143.62,1486.45 2143.62,1467.55 "></polyline>
<path clip-path="url(#clip670)" d="M186.781 1517.37 Q183.169 1517.37 181.341 1520.93 Q179.535 1524.47 179.535 1531.6 Q179.535 1538.71 181.341 1542.27 Q183.169 1545.82 186.781 1545.82 Q190.415 1545.82 192.22 1542.27 Q194.049 1538.71 194.049 1531.6 Q194.049 1524.47 192.22 1520.93 Q190.415 1517.37 186.781 1517.37 M186.781 1513.66 Q192.591 1513.66 195.646 1518.27 Q198.725 1522.85 198.725 1531.6 Q198.725 1540.33 195.646 1544.94 Q192.591 1549.52 186.781 1549.52 Q180.97 1549.52 177.892 1544.94 Q174.836 1540.33 174.836 1531.6 Q174.836 1522.85 177.892 1518.27 Q180.97 1513.66 186.781 1513.66 Z" fill="#000000" fill-rule="nonzero" fill-opacity="1"></path><path clip-path="url(#clip670)" d="M654.763 1544.91 L671.083 1544.91 L671.083 1548.85 L649.138 1548.85 L649.138 1544.91 Q651.8 1542.16 656.384 1537.53 Q660.99 1532.88 662.171 1531.53 Q664.416 1529.01 665.296 1527.27 Q666.198 1525.51 666.198 1523.82 Q666.198 1521.07 664.254 1519.33 Q662.333 1517.6 659.231 1517.6 Q657.032 1517.6 654.578 1518.36 Q652.148 1519.13 649.37 1520.68 L649.37 1515.95 Q652.194 1514.82 654.648 1514.24 Q657.101 1513.66 659.138 1513.66 Q664.509 1513.66 667.703 1516.35 Q670.898 1519.03 670.898 1523.52 Q670.898 1525.65 670.087 1527.57 Q669.3 1529.47 667.194 1532.07 Q666.615 1532.74 663.513 1535.95 Q660.411 1539.15 654.763 1544.91 Z" fill="#000000" fill-rule="nonzero" fill-opacity="1"></path><path clip-path="url(#clip670)" d="M690.897 1517.37 Q687.286 1517.37 685.458 1520.93 Q683.652 1524.47 683.652 1531.6 Q683.652 1538.71 685.458 1542.27 Q687.286 1545.82 690.897 1545.82 Q694.532 1545.82 696.337 1542.27 Q698.166 1538.71 698.166 1531.6 Q698.166 1524.47 696.337 1520.93 Q694.532 1517.37 690.897 1517.37 M690.897 1513.66 Q696.708 1513.66 699.763 1518.27 Q702.842 1522.85 702.842 1531.6 Q702.842 1540.33 699.763 1544.94 Q696.708 1549.52 690.897 1549.52 Q685.087 1549.52 682.009 1544.94 Q678.953 1540.33 678.953 1531.6 Q678.953 1522.85 682.009 1518.27 Q685.087 1513.66 690.897 1513.66 Z" fill="#000000" fill-rule="nonzero" fill-opacity="1"></path><path clip-path="url(#clip670)" d="M1153.37 1518.36 L1141.57 1536.81 L1153.37 1536.81 L1153.37 1518.36 M1152.14 1514.29 L1158.02 1514.29 L1158.02 1536.81 L1162.95 1536.81 L1162.95 1540.7 L1158.02 1540.7 L1158.02 1548.85 L1153.37 1548.85 L1153.37 1540.7 L1137.77 1540.7 L1137.77 1536.19 L1152.14 1514.29 Z" fill="#000000" fill-rule="nonzero" fill-opacity="1"></path><path clip-path="url(#clip670)" d="M1180.69 1517.37 Q1177.07 1517.37 1175.25 1520.93 Q1173.44 1524.47 1173.44 1531.6 Q1173.44 1538.71 1175.25 1542.27 Q1177.07 1545.82 1180.69 1545.82 Q1184.32 1545.82 1186.13 1542.27 Q1187.95 1538.71 1187.95 1531.6 Q1187.95 1524.47 1186.13 1520.93 Q1184.32 1517.37 1180.69 1517.37 M1180.69 1513.66 Q1186.5 1513.66 1189.55 1518.27 Q1192.63 1522.85 1192.63 1531.6 Q1192.63 1540.33 1189.55 1544.94 Q1186.5 1549.52 1180.69 1549.52 Q1174.88 1549.52 1171.8 1544.94 Q1168.74 1540.33 1168.74 1531.6 Q1168.74 1522.85 1171.8 1518.27 Q1174.88 1513.66 1180.69 1513.66 Z" fill="#000000" fill-rule="nonzero" fill-opacity="1"></path><path clip-path="url(#clip670)" d="M1639.81 1529.7 Q1636.67 1529.7 1634.81 1531.86 Q1632.99 1534.01 1632.99 1537.76 Q1632.99 1541.49 1634.81 1543.66 Q1636.67 1545.82 1639.81 1545.82 Q1642.96 1545.82 1644.79 1543.66 Q1646.64 1541.49 1646.64 1537.76 Q1646.64 1534.01 1644.79 1531.86 Q1642.96 1529.7 1639.81 1529.7 M1649.1 1515.05 L1649.1 1519.31 Q1647.34 1518.48 1645.53 1518.04 Q1643.75 1517.6 1641.99 1517.6 Q1637.36 1517.6 1634.91 1520.72 Q1632.48 1523.85 1632.13 1530.17 Q1633.5 1528.15 1635.56 1527.09 Q1637.62 1526 1640.09 1526 Q1645.3 1526 1648.31 1529.17 Q1651.34 1532.32 1651.34 1537.76 Q1651.34 1543.08 1648.19 1546.3 Q1645.05 1549.52 1639.81 1549.52 Q1633.82 1549.52 1630.65 1544.94 Q1627.48 1540.33 1627.48 1531.6 Q1627.48 1523.41 1631.37 1518.55 Q1635.25 1513.66 1641.81 1513.66 Q1643.56 1513.66 1645.35 1514.01 Q1647.15 1514.36 1649.1 1515.05 Z" fill="#000000" fill-rule="nonzero" fill-opacity="1"></path><path clip-path="url(#clip670)" d="M1669.4 1517.37 Q1665.79 1517.37 1663.96 1520.93 Q1662.15 1524.47 1662.15 1531.6 Q1662.15 1538.71 1663.96 1542.27 Q1665.79 1545.82 1669.4 1545.82 Q1673.03 1545.82 1674.84 1542.27 Q1676.67 1538.71 1676.67 1531.6 Q1676.67 1524.47 1674.84 1520.93 Q1673.03 1517.37 1669.4 1517.37 M1669.4 1513.66 Q1675.21 1513.66 1678.26 1518.27 Q1681.34 1522.85 1681.34 1531.6 Q1681.34 1540.33 1678.26 1544.94 Q1675.21 1549.52 1669.4 1549.52 Q1663.59 1549.52 1660.51 1544.94 Q1657.45 1540.33 1657.45 1531.6 Q1657.45 1522.85 1660.51 1518.27 Q1663.59 1513.66 1669.4 1513.66 Z" fill="#000000" fill-rule="nonzero" fill-opacity="1"></path><path clip-path="url(#clip670)" d="M2128.49 1532.44 Q2125.16 1532.44 2123.24 1534.22 Q2121.34 1536 2121.34 1539.13 Q2121.34 1542.25 2123.24 1544.03 Q2125.16 1545.82 2128.49 1545.82 Q2131.82 1545.82 2133.75 1544.03 Q2135.67 1542.23 2135.67 1539.13 Q2135.67 1536 2133.75 1534.22 Q2131.85 1532.44 2128.49 1532.44 M2123.82 1530.45 Q2120.81 1529.7 2119.12 1527.64 Q2117.45 1525.58 2117.45 1522.62 Q2117.45 1518.48 2120.39 1516.07 Q2123.35 1513.66 2128.49 1513.66 Q2133.65 1513.66 2136.59 1516.07 Q2139.53 1518.48 2139.53 1522.62 Q2139.53 1525.58 2137.84 1527.64 Q2136.18 1529.7 2133.19 1530.45 Q2136.57 1531.23 2138.45 1533.52 Q2140.34 1535.82 2140.34 1539.13 Q2140.34 1544.15 2137.26 1546.83 Q2134.21 1549.52 2128.49 1549.52 Q2122.77 1549.52 2119.7 1546.83 Q2116.64 1544.15 2116.64 1539.13 Q2116.64 1535.82 2118.54 1533.52 Q2120.44 1531.23 2123.82 1530.45 M2122.1 1523.06 Q2122.1 1525.75 2123.77 1527.25 Q2125.46 1528.76 2128.49 1528.76 Q2131.5 1528.76 2133.19 1527.25 Q2134.9 1525.75 2134.9 1523.06 Q2134.9 1520.38 2133.19 1518.87 Q2131.5 1517.37 2128.49 1517.37 Q2125.46 1517.37 2123.77 1518.87 Q2122.1 1520.38 2122.1 1523.06 Z" fill="#000000" fill-rule="nonzero" fill-opacity="1"></path><path clip-path="url(#clip670)" d="M2158.65 1517.37 Q2155.04 1517.37 2153.21 1520.93 Q2151.41 1524.47 2151.41 1531.6 Q2151.41 1538.71 2153.21 1542.27 Q2155.04 1545.82 2158.65 1545.82 Q2162.29 1545.82 2164.09 1542.27 Q2165.92 1538.71 2165.92 1531.6 Q2165.92 1524.47 2164.09 1520.93 Q2162.29 1517.37 2158.65 1517.37 M2158.65 1513.66 Q2164.46 1513.66 2167.52 1518.27 Q2170.6 1522.85 2170.6 1531.6 Q2170.6 1540.33 2167.52 1544.94 Q2164.46 1549.52 2158.65 1549.52 Q2152.84 1549.52 2149.76 1544.94 Q2146.71 1540.33 2146.71 1531.6 Q2146.71 1522.85 2149.76 1518.27 Q2152.84 1513.66 2158.65 1513.66 Z" fill="#000000" fill-rule="nonzero" fill-opacity="1"></path><polyline clip-path="url(#clip672)" style="stroke:#000000; stroke-linecap:round; stroke-linejoin:round; stroke-width:2; stroke-opacity:0.1; fill:none" points="148.867,1300.2 2352.76,1300.2 "></polyline>
<polyline clip-path="url(#clip672)" style="stroke:#000000; stroke-linecap:round; stroke-linejoin:round; stroke-width:2; stroke-opacity:0.1; fill:none" points="148.867,1041.39 2352.76,1041.39 "></polyline>
<polyline clip-path="url(#clip672)" style="stroke:#000000; stroke-linecap:round; stroke-linejoin:round; stroke-width:2; stroke-opacity:0.1; fill:none" points="148.867,782.574 2352.76,782.574 "></polyline>
<polyline clip-path="url(#clip672)" style="stroke:#000000; stroke-linecap:round; stroke-linejoin:round; stroke-width:2; stroke-opacity:0.1; fill:none" points="148.867,523.76 2352.76,523.76 "></polyline>
<polyline clip-path="url(#clip672)" style="stroke:#000000; stroke-linecap:round; stroke-linejoin:round; stroke-width:2; stroke-opacity:0.1; fill:none" points="148.867,264.946 2352.76,264.946 "></polyline>
<polyline clip-path="url(#clip670)" style="stroke:#000000; stroke-linecap:round; stroke-linejoin:round; stroke-width:4; stroke-opacity:1; fill:none" points="148.867,1486.45 148.867,47.2441 "></polyline>
<polyline clip-path="url(#clip670)" style="stroke:#000000; stroke-linecap:round; stroke-linejoin:round; stroke-width:4; stroke-opacity:1; fill:none" points="148.867,1300.2 167.764,1300.2 "></polyline>
<polyline clip-path="url(#clip670)" style="stroke:#000000; stroke-linecap:round; stroke-linejoin:round; stroke-width:4; stroke-opacity:1; fill:none" points="148.867,1041.39 167.764,1041.39 "></polyline>
<polyline clip-path="url(#clip670)" style="stroke:#000000; stroke-linecap:round; stroke-linejoin:round; stroke-width:4; stroke-opacity:1; fill:none" points="148.867,782.574 167.764,782.574 "></polyline>
<polyline clip-path="url(#clip670)" style="stroke:#000000; stroke-linecap:round; stroke-linejoin:round; stroke-width:4; stroke-opacity:1; fill:none" points="148.867,523.76 167.764,523.76 "></polyline>
<polyline clip-path="url(#clip670)" style="stroke:#000000; stroke-linecap:round; stroke-linejoin:round; stroke-width:4; stroke-opacity:1; fill:none" points="148.867,264.946 167.764,264.946 "></polyline>
<path clip-path="url(#clip670)" d="M51.3393 1300.65 L81.0151 1300.65 L81.0151 1304.59 L51.3393 1304.59 L51.3393 1300.65 Z" fill="#000000" fill-rule="nonzero" fill-opacity="1"></path><path clip-path="url(#clip670)" d="M91.2465 1316.76 L91.2465 1312.51 Q93.0058 1313.34 94.8113 1313.78 Q96.6169 1314.22 98.353 1314.22 Q102.983 1314.22 105.413 1311.12 Q107.867 1307.99 108.214 1301.65 Q106.871 1303.64 104.811 1304.7 Q102.751 1305.77 100.251 1305.77 Q95.066 1305.77 92.0336 1302.64 Q89.0243 1299.5 89.0243 1294.06 Q89.0243 1288.73 92.1725 1285.51 Q95.3206 1282.3 100.552 1282.3 Q106.547 1282.3 109.696 1286.9 Q112.867 1291.49 112.867 1300.24 Q112.867 1308.41 108.978 1313.29 Q105.112 1318.15 98.5613 1318.15 Q96.8021 1318.15 94.9965 1317.81 Q93.191 1317.46 91.2465 1316.76 M100.552 1302.11 Q103.7 1302.11 105.529 1299.96 Q107.381 1297.81 107.381 1294.06 Q107.381 1290.33 105.529 1288.18 Q103.7 1286 100.552 1286 Q97.4039 1286 95.5521 1288.18 Q93.7234 1290.33 93.7234 1294.06 Q93.7234 1297.81 95.5521 1299.96 Q97.4039 1302.11 100.552 1302.11 Z" fill="#000000" fill-rule="nonzero" fill-opacity="1"></path><path clip-path="url(#clip670)" d="M50.9921 1041.84 L80.6679 1041.84 L80.6679 1045.77 L50.9921 1045.77 L50.9921 1041.84 Z" fill="#000000" fill-rule="nonzero" fill-opacity="1"></path><path clip-path="url(#clip670)" d="M101.339 1039.52 Q98.1909 1039.52 96.3391 1041.68 Q94.5104 1043.83 94.5104 1047.58 Q94.5104 1051.31 96.3391 1053.48 Q98.1909 1055.64 101.339 1055.64 Q104.487 1055.64 106.316 1053.48 Q108.168 1051.31 108.168 1047.58 Q108.168 1043.83 106.316 1041.68 Q104.487 1039.52 101.339 1039.52 M110.621 1024.87 L110.621 1029.13 Q108.862 1028.3 107.057 1027.86 Q105.274 1027.42 103.515 1027.42 Q98.8854 1027.42 96.4317 1030.54 Q94.0012 1033.67 93.6539 1039.99 Q95.0197 1037.97 97.0798 1036.91 Q99.14 1035.82 101.617 1035.82 Q106.825 1035.82 109.834 1038.99 Q112.867 1042.14 112.867 1047.58 Q112.867 1052.9 109.719 1056.12 Q106.571 1059.34 101.339 1059.34 Q95.3437 1059.34 92.1725 1054.76 Q89.0012 1050.15 89.0012 1041.42 Q89.0012 1033.23 92.89 1028.37 Q96.7789 1023.48 103.33 1023.48 Q105.089 1023.48 106.871 1023.83 Q108.677 1024.18 110.621 1024.87 Z" fill="#000000" fill-rule="nonzero" fill-opacity="1"></path><path clip-path="url(#clip670)" d="M51.8023 783.026 L81.4781 783.026 L81.4781 786.961 L51.8023 786.961 L51.8023 783.026 Z" fill="#000000" fill-rule="nonzero" fill-opacity="1"></path><path clip-path="url(#clip670)" d="M105.737 781.22 Q109.094 781.938 110.969 784.206 Q112.867 786.475 112.867 789.808 Q112.867 794.924 109.348 797.725 Q105.83 800.526 99.3483 800.526 Q97.1724 800.526 94.8576 800.086 Q92.566 799.669 90.1123 798.813 L90.1123 794.299 Q92.0567 795.433 94.3715 796.012 Q96.6863 796.59 99.2095 796.59 Q103.608 796.59 105.899 794.854 Q108.214 793.118 108.214 789.808 Q108.214 786.752 106.061 785.04 Q103.932 783.303 100.112 783.303 L96.0845 783.303 L96.0845 779.461 L100.297 779.461 Q103.746 779.461 105.575 778.095 Q107.404 776.706 107.404 774.114 Q107.404 771.452 105.506 770.04 Q103.631 768.604 100.112 768.604 Q98.1909 768.604 95.9919 769.021 Q93.7928 769.438 91.1539 770.317 L91.1539 766.151 Q93.816 765.41 96.1308 765.04 Q98.4687 764.669 100.529 764.669 Q105.853 764.669 108.955 767.1 Q112.057 769.507 112.057 773.628 Q112.057 776.498 110.413 778.489 Q108.77 780.456 105.737 781.22 Z" fill="#000000" fill-rule="nonzero" fill-opacity="1"></path><path clip-path="url(#clip670)" d="M100.922 509.559 Q97.3113 509.559 95.4826 513.124 Q93.6771 516.665 93.6771 523.795 Q93.6771 530.901 95.4826 534.466 Q97.3113 538.008 100.922 538.008 Q104.557 538.008 106.362 534.466 Q108.191 530.901 108.191 523.795 Q108.191 516.665 106.362 513.124 Q104.557 509.559 100.922 509.559 M100.922 505.855 Q106.733 505.855 109.788 510.462 Q112.867 515.045 112.867 523.795 Q112.867 532.522 109.788 537.128 Q106.733 541.712 100.922 541.712 Q95.1123 541.712 92.0336 537.128 Q88.978 532.522 88.978 523.795 Q88.978 515.045 92.0336 510.462 Q95.1123 505.855 100.922 505.855 Z" fill="#000000" fill-rule="nonzero" fill-opacity="1"></path><path clip-path="url(#clip670)" d="M105.737 263.592 Q109.094 264.31 110.969 266.578 Q112.867 268.847 112.867 272.18 Q112.867 277.296 109.348 280.097 Q105.83 282.897 99.3483 282.897 Q97.1724 282.897 94.8576 282.458 Q92.566 282.041 90.1123 281.185 L90.1123 276.671 Q92.0567 277.805 94.3715 278.384 Q96.6863 278.962 99.2095 278.962 Q103.608 278.962 105.899 277.226 Q108.214 275.49 108.214 272.18 Q108.214 269.124 106.061 267.411 Q103.932 265.675 100.112 265.675 L96.0845 265.675 L96.0845 261.833 L100.297 261.833 Q103.746 261.833 105.575 260.467 Q107.404 259.078 107.404 256.486 Q107.404 253.824 105.506 252.412 Q103.631 250.976 100.112 250.976 Q98.1909 250.976 95.9919 251.393 Q93.7928 251.81 91.1539 252.689 L91.1539 248.523 Q93.816 247.782 96.1308 247.412 Q98.4687 247.041 100.529 247.041 Q105.853 247.041 108.955 249.472 Q112.057 251.879 112.057 255.999 Q112.057 258.87 110.413 260.861 Q108.77 262.828 105.737 263.592 Z" fill="#000000" fill-rule="nonzero" fill-opacity="1"></path><polyline clip-path="url(#clip672)" style="stroke:#009af9; stroke-linecap:round; stroke-linejoin:round; stroke-width:4; stroke-opacity:1; fill:none" points="211.241,456.668 235.701,520.118 260.162,514.493 284.622,486.808 309.083,479.707 333.543,524.065 358.004,444.885 382.464,412.476 406.925,475.17 431.385,497.767 455.846,520.551 480.306,496.344 504.767,514.093 529.227,499.27 553.688,510.966 578.148,536.316 602.609,527.976 627.069,499.391 651.53,463.881 675.99,519.232 700.451,497.262 724.911,474.457 749.372,451.037 773.832,511.121 798.292,510.671 822.753,531.654 847.213,530.273 871.674,516.403 896.134,481.484 920.595,517.161 945.055,527.98 969.516,508.148 993.976,524.498 1018.44,514.245 1042.9,537.143 1067.36,511.018 1091.82,525.513 1116.28,526.579 1140.74,510.657 1165.2,492.896 1189.66,512.68 1214.12,528.605 1238.58,520.918 1263.04,516.153 1287.5,479.874 1311.96,520.801 1336.42,513.91 1360.88,508.521 1385.34,525.547 1409.8,513.755 1434.26,525.382 1458.73,496.515 1483.19,527.2 1507.65,488.888 1532.11,495.56 1556.57,517.057 1581.03,519.666 1605.49,490.251 1629.95,474.555 1654.41,494.73 1678.87,525.328 1703.33,528.522 1727.79,483.93 1752.25,512.759 1776.71,516.075 1801.17,529.01 1825.63,512.314 1850.09,525.257 1874.55,533.809 1899.01,492.78 1923.47,485.999 1947.93,524.493 1972.4,526.202 1996.86,518.65 2021.32,532.167 2045.78,513.012 2070.24,500.118 2094.7,515.692 2119.16,536.638 2143.62,526.936 2168.08,501.76 2192.54,514.51 2217,491.938 2241.46,514.478 2265.92,508.146 2290.38,534.177 "></polyline>
<polyline clip-path="url(#clip672)" style="stroke:#e26f46; stroke-linecap:round; stroke-linejoin:round; stroke-width:4; stroke-opacity:1; fill:none" points="211.241,456.668 235.701,520.118 260.162,514.493 284.622,486.808 309.083,479.707 333.543,524.065 358.004,444.885 382.464,412.476 406.925,475.17 431.385,497.767 455.846,487.964 480.306,483.003 504.767,501.432 529.227,481.135 553.688,498.883 578.148,506.575 602.609,515.929 627.069,482.284 651.53,443.705 675.99,492.604 700.451,482.794 724.911,473.332 749.372,448.081 773.832,482.303 798.292,482.595 822.753,511.653 847.213,502.137 871.674,495.096 896.134,467.996 920.595,494.663 945.055,502.479 969.516,484.025 993.976,500.065 1018.44,506.571 1042.9,524.702 1067.36,502.837 1091.82,502.326 1116.28,522.381 1140.74,488.867 1165.2,475.57 1189.66,509.251 1214.12,514.394 1238.58,489.908 1263.04,495.243 1287.5,462.477 1311.96,493.021 1336.42,491.367 1360.88,507.754 1385.34,511.009 1409.8,495.037 1434.26,509.427 1458.73,483.764 1483.19,505.349 1507.65,476.152 1532.11,479.976 1556.57,505.239 1581.03,496.497 1605.49,474.211 1629.95,458.971 1654.41,492.036 1678.87,431.443 1703.33,431.974 1727.79,365.131 1752.25,420.553 1776.71,416.132 1801.17,434.513 1825.63,416.099 1850.09,445.327 1874.55,428.457 1899.01,365.535 1923.47,354.892 1947.93,415.059 1972.4,413.284 1996.86,428.847 2021.32,451.534 2045.78,386.33 2070.24,351.152 2094.7,391.765 2119.16,461.144 2143.62,424.031 2168.08,181.45 2192.54,170.05 2217,87.9763 2241.46,273.545 2265.92,273.664 2290.38,454.301 "></polyline>
<polyline clip-path="url(#clip672)" style="stroke:#3da44d; stroke-linecap:round; stroke-linejoin:round; stroke-width:4; stroke-opacity:1; fill:none" points="211.241,509.187 235.701,546.889 260.162,565.182 284.622,539.067 309.083,545.315 333.543,638.663 358.004,505.152 382.464,516.677 406.925,536.64 431.385,554.72 455.846,534.585 480.306,529.19 504.767,536.532 529.227,523.066 553.688,532.233 578.148,567.471 602.609,546.347 627.069,530.252 651.53,505.189 675.99,533.51 700.451,527.094 724.911,530.187 749.372,516.459 773.832,521.338 798.292,520.214 822.753,562.805 847.213,558.124 871.674,549.562 896.134,515.063 920.595,525.289 945.055,567.731 969.516,520.428 993.976,532.524 1018.44,526.149 1042.9,590.055 1067.36,535.22 1091.82,536.568 1116.28,578.7 1140.74,523.69 1165.2,516.049 1189.66,554.055 1214.12,555.352 1238.58,531.466 1263.04,534.489 1287.5,515.876 1311.96,547.028 1336.42,535.074 1360.88,544.257 1385.34,551.593 1409.8,530.452 1434.26,537.226 1458.73,523.472 1483.19,570.218 1507.65,519.648 1532.11,516.379 1556.57,567.004 1581.03,526.587 1605.49,514.693 1629.95,523.851 1654.41,527.663 1678.87,537.945 1703.33,555.215 1727.79,513.233 1752.25,523.118 1776.71,524.158 1801.17,552.189 1825.63,527.847 1850.09,561.672 1874.55,557.088 1899.01,517.459 1923.47,512.997 1947.93,530.88 1972.4,542.469 1996.86,530.663 2021.32,608.147 2045.78,523.799 2070.24,517.956 2094.7,524.302 2119.16,575.028 2143.62,553.668 2168.08,518.228 2192.54,522.101 2217,517.907 2241.46,523.048 2265.92,520.638 2290.38,567.205 "></polyline>
<polyline clip-path="url(#clip672)" style="stroke:#c271d2; stroke-linecap:round; stroke-linejoin:round; stroke-width:4; stroke-opacity:1; fill:none" points="211.241,509.187 235.701,546.889 260.162,565.182 284.622,539.067 309.083,545.315 333.543,638.663 358.004,505.152 382.464,516.677 406.925,536.64 431.385,554.72 455.846,566.202 480.306,544.357 504.767,546.818 529.227,544.031 553.688,542.122 578.148,595.257 602.609,558.812 627.069,552.22 651.53,515.288 675.99,556.399 700.451,542.142 724.911,534.886 749.372,521.197 773.832,546.593 798.292,546.472 822.753,576.557 847.213,584.782 871.674,567.813 896.134,527.243 920.595,551.854 945.055,592.554 969.516,542.142 993.976,559.22 1018.44,537.919 1042.9,604.923 1067.36,546.823 1091.82,557.671 1116.28,582.14 1140.74,548.614 1165.2,532.343 1189.66,554.504 1214.12,569.332 1238.58,561.107 1263.04,554.503 1287.5,530.139 1311.96,571.734 1336.42,558.594 1360.88,550.387 1385.34,559.744 1409.8,548.858 1434.26,551.738 1458.73,537.146 1483.19,591.286 1507.65,534.331 1532.11,530.525 1556.57,576.592 1581.03,550.458 1605.49,532.423 1629.95,540.037 1654.41,531.197 1678.87,650.675 1703.33,657.215 1727.79,614.947 1752.25,627.095 1776.71,641.618 1801.17,658.022 1825.63,630.301 1850.09,677.94 1874.55,680.507 1899.01,600.153 1923.47,599.463 1947.93,655.683 1972.4,675.854 1996.86,608.435 2021.32,703.947 2045.78,619.524 2070.24,611.272 2094.7,647.278 2119.16,708.431 2143.62,663.877 2168.08,759.335 2192.54,690.562 2217,793.141 2241.46,905.715 2265.92,791.069 2290.38,1445.72 "></polyline>
<path clip-path="url(#clip670)" d="M222.33 354.418 L496.862 354.418 L496.862 95.2176 L222.33 95.2176  Z" fill="#ffffff" fill-rule="evenodd" fill-opacity="1"></path>
<polyline clip-path="url(#clip670)" style="stroke:#000000; stroke-linecap:round; stroke-linejoin:round; stroke-width:4; stroke-opacity:1; fill:none" points="222.33,354.418 496.862,354.418 496.862,95.2176 222.33,95.2176 222.33,354.418 "></polyline>
<polyline clip-path="url(#clip670)" style="stroke:#009af9; stroke-linecap:round; stroke-linejoin:round; stroke-width:4; stroke-opacity:1; fill:none" points="246.817,147.058 393.743,147.058 "></polyline>
<path clip-path="url(#clip670)" d="M432.074 166.745 Q430.268 171.375 428.555 172.787 Q426.842 174.199 423.972 174.199 L420.569 174.199 L420.569 170.634 L423.069 170.634 Q424.828 170.634 425.8 169.8 Q426.773 168.967 427.953 165.865 L428.717 163.921 L418.231 138.412 L422.745 138.412 L430.847 158.689 L438.949 138.412 L443.462 138.412 L432.074 166.745 Z" fill="#000000" fill-rule="nonzero" fill-opacity="1"></path><path clip-path="url(#clip670)" d="M450.754 160.402 L458.393 160.402 L458.393 134.037 L450.083 135.703 L450.083 131.444 L458.347 129.778 L463.022 129.778 L463.022 160.402 L470.661 160.402 L470.661 164.338 L450.754 164.338 L450.754 160.402 Z" fill="#000000" fill-rule="nonzero" fill-opacity="1"></path><polyline clip-path="url(#clip670)" style="stroke:#e26f46; stroke-linecap:round; stroke-linejoin:round; stroke-width:4; stroke-opacity:1; fill:none" points="246.817,198.898 393.743,198.898 "></polyline>
<path clip-path="url(#clip670)" d="M432.074 218.585 Q430.268 223.215 428.555 224.627 Q426.842 226.039 423.972 226.039 L420.569 226.039 L420.569 222.474 L423.069 222.474 Q424.828 222.474 425.8 221.64 Q426.773 220.807 427.953 217.705 L428.717 215.761 L418.231 190.252 L422.745 190.252 L430.847 210.529 L438.949 190.252 L443.462 190.252 L432.074 218.585 Z" fill="#000000" fill-rule="nonzero" fill-opacity="1"></path><path clip-path="url(#clip670)" d="M453.972 212.242 L470.291 212.242 L470.291 216.178 L448.347 216.178 L448.347 212.242 Q451.009 209.488 455.592 204.858 Q460.198 200.205 461.379 198.863 Q463.624 196.34 464.504 194.604 Q465.407 192.844 465.407 191.155 Q465.407 188.4 463.462 186.664 Q461.541 184.928 458.439 184.928 Q456.24 184.928 453.786 185.692 Q451.356 186.455 448.578 188.006 L448.578 183.284 Q451.402 182.15 453.856 181.571 Q456.31 180.993 458.347 180.993 Q463.717 180.993 466.911 183.678 Q470.106 186.363 470.106 190.854 Q470.106 192.983 469.296 194.905 Q468.509 196.803 466.402 199.395 Q465.823 200.067 462.722 203.284 Q459.62 206.479 453.972 212.242 Z" fill="#000000" fill-rule="nonzero" fill-opacity="1"></path><polyline clip-path="url(#clip670)" style="stroke:#3da44d; stroke-linecap:round; stroke-linejoin:round; stroke-width:4; stroke-opacity:1; fill:none" points="246.817,250.738 393.743,250.738 "></polyline>
<path clip-path="url(#clip670)" d="M432.074 270.425 Q430.268 275.055 428.555 276.467 Q426.842 277.879 423.972 277.879 L420.569 277.879 L420.569 274.314 L423.069 274.314 Q424.828 274.314 425.8 273.48 Q426.773 272.647 427.953 269.545 L428.717 267.601 L418.231 242.092 L422.745 242.092 L430.847 262.369 L438.949 242.092 L443.462 242.092 L432.074 270.425 Z" fill="#000000" fill-rule="nonzero" fill-opacity="1"></path><path clip-path="url(#clip670)" d="M464.11 249.383 Q467.467 250.101 469.342 252.369 Q471.24 254.638 471.24 257.971 Q471.24 263.087 467.721 265.888 Q464.203 268.689 457.722 268.689 Q455.546 268.689 453.231 268.249 Q450.939 267.832 448.485 266.976 L448.485 262.462 Q450.43 263.596 452.745 264.175 Q455.06 264.754 457.583 264.754 Q461.981 264.754 464.272 263.018 Q466.587 261.281 466.587 257.971 Q466.587 254.916 464.434 253.203 Q462.305 251.467 458.485 251.467 L454.458 251.467 L454.458 247.624 L458.671 247.624 Q462.12 247.624 463.948 246.258 Q465.777 244.87 465.777 242.277 Q465.777 239.615 463.879 238.203 Q462.004 236.768 458.485 236.768 Q456.564 236.768 454.365 237.184 Q452.166 237.601 449.527 238.481 L449.527 234.314 Q452.189 233.573 454.504 233.203 Q456.842 232.833 458.902 232.833 Q464.226 232.833 467.328 235.263 Q470.43 237.67 470.43 241.791 Q470.43 244.661 468.786 246.652 Q467.143 248.62 464.11 249.383 Z" fill="#000000" fill-rule="nonzero" fill-opacity="1"></path><polyline clip-path="url(#clip670)" style="stroke:#c271d2; stroke-linecap:round; stroke-linejoin:round; stroke-width:4; stroke-opacity:1; fill:none" points="246.817,302.578 393.743,302.578 "></polyline>
<path clip-path="url(#clip670)" d="M432.074 322.265 Q430.268 326.895 428.555 328.307 Q426.842 329.719 423.972 329.719 L420.569 329.719 L420.569 326.154 L423.069 326.154 Q424.828 326.154 425.8 325.32 Q426.773 324.487 427.953 321.385 L428.717 319.441 L418.231 293.932 L422.745 293.932 L430.847 314.209 L438.949 293.932 L443.462 293.932 L432.074 322.265 Z" fill="#000000" fill-rule="nonzero" fill-opacity="1"></path><path clip-path="url(#clip670)" d="M462.791 289.372 L450.985 307.821 L462.791 307.821 L462.791 289.372 M461.564 285.298 L467.444 285.298 L467.444 307.821 L472.374 307.821 L472.374 311.709 L467.444 311.709 L467.444 319.858 L462.791 319.858 L462.791 311.709 L447.189 311.709 L447.189 307.196 L461.564 285.298 Z" fill="#000000" fill-rule="nonzero" fill-opacity="1"></path></svg>