<svg xmlns="http://www.w3.org/2000/svg" xmlns:xlink="http://www.w3.org/1999/xlink" width="600" height="400" viewBox="0 0 2400 1600">
<defs>
  <clipPath id="clip060">
    <rect x="0" y="0" width="2400" height="1600"></rect>
  </clipPath>
</defs>
<path clip-path="url(#clip060)" d="M0 1600 L2400 1600 L2400 0 L0 0  Z" fill="#ffffff" fill-rule="evenodd" fill-opacity="1"></path>
<defs>
  <clipPath id="clip061">
    <rect x="480" y="0" width="1681" height="1600"></rect>
  </clipPath>
</defs>
<path clip-path="url(#clip060)" d="M201.019 1486.45 L2352.76 1486.45 L2352.76 47.2441 L201.019 47.2441  Z" fill="#ffffff" fill-rule="evenodd" fill-opacity="1"></path>
<defs>
  <clipPath id="clip062">
    <rect x="201" y="47" width="2153" height="1440"></rect>
  </clipPath>
</defs>
<polyline clip-path="url(#clip062)" style="stroke:#000000; stroke-linecap:round; stroke-linejoin:round; stroke-width:2; stroke-opacity:0.1; fill:none" points="261.036,1486.45 261.036,47.2441 "></polyline>
<polyline clip-path="url(#clip062)" style="stroke:#000000; stroke-linecap:round; stroke-linejoin:round; stroke-width:2; stroke-opacity:0.1; fill:none" points="701.753,1486.45 701.753,47.2441 "></polyline>
<polyline clip-path="url(#clip062)" style="stroke:#000000; stroke-linecap:round; stroke-linejoin:round; stroke-width:2; stroke-opacity:0.1; fill:none" points="1142.47,1486.45 1142.47,47.2441 "></polyline>
<polyline clip-path="url(#clip062)" style="stroke:#000000; stroke-linecap:round; stroke-linejoin:round; stroke-width:2; stroke-opacity:0.1; fill:none" points="1583.19,1486.45 1583.19,47.2441 "></polyline>
<polyline clip-path="url(#clip062)" style="stroke:#000000; stroke-linecap:round; stroke-linejoin:round; stroke-width:2; stroke-opacity:0.1; fill:none" points="2023.9,1486.45 2023.9,47.2441 "></polyline>
<polyline clip-path="url(#clip060)" style="stroke:#000000; stroke-linecap:round; stroke-linejoin:round; stroke-width:4; stroke-opacity:1; fill:none" points="201.019,1486.45 2352.76,1486.45 "></polyline>
<polyline clip-path="url(#clip060)" style="stroke:#000000; stroke-linecap:round; stroke-linejoin:round; stroke-width:4; stroke-opacity:1; fill:none" points="261.036,1486.45 261.036,1467.55 "></polyline>
<polyline clip-path="url(#clip060)" style="stroke:#000000; stroke-linecap:round; stroke-linejoin:round; stroke-width:4; stroke-opacity:1; fill:none" points="701.753,1486.45 701.753,1467.55 "></polyline>
<polyline clip-path="url(#clip060)" style="stroke:#000000; stroke-linecap:round; stroke-linejoin:round; stroke-width:4; stroke-opacity:1; fill:none" points="1142.47,1486.45 1142.47,1467.55 "></polyline>
<polyline clip-path="url(#clip060)" style="stroke:#000000; stroke-linecap:round; stroke-linejoin:round; stroke-width:4; stroke-opacity:1; fill:none" points="1583.19,1486.45 1583.19,1467.55 "></polyline>
<polyline clip-path="url(#clip060)" style="stroke:#000000; stroke-linecap:round; stroke-linejoin:round; stroke-width:4; stroke-opacity:1; fill:none" points="2023.9,1486.45 2023.9,1467.55 "></polyline>
<path clip-path="url(#clip060)" d="M261.036 1517.37 Q257.425 1517.37 255.596 1520.93 Q253.791 1524.47 253.791 1531.6 Q253.791 1538.71 255.596 1542.27 Q257.425 1545.82 261.036 1545.82 Q264.67 1545.82 266.476 1542.27 Q268.305 1538.71 268.305 1531.6 Q268.305 1524.47 266.476 1520.93 Q264.67 1517.37 261.036 1517.37 M261.036 1513.66 Q266.846 1513.66 269.902 1518.27 Q272.98 1522.85 272.98 1531.6 Q272.98 1540.33 269.902 1544.94 Q266.846 1549.52 261.036 1549.52 Q255.226 1549.52 252.147 1544.94 Q249.092 1540.33 249.092 1531.6 Q249.092 1522.85 252.147 1518.27 Q255.226 1513.66 261.036 1513.66 Z" fill="#000000" fill-rule="nonzero" fill-opacity="1"></path><path clip-path="url(#clip060)" d="M661.371 1514.29 L679.727 1514.29 L679.727 1518.22 L665.653 1518.22 L665.653 1526.7 Q666.672 1526.35 667.69 1526.19 Q668.709 1526 669.727 1526 Q675.514 1526 678.894 1529.17 Q682.274 1532.34 682.274 1537.76 Q682.274 1543.34 678.801 1546.44 Q675.329 1549.52 669.01 1549.52 Q666.834 1549.52 664.565 1549.15 Q662.32 1548.78 659.913 1548.04 L659.913 1543.34 Q661.996 1544.47 664.218 1545.03 Q666.44 1545.58 668.917 1545.58 Q672.922 1545.58 675.26 1543.48 Q677.598 1541.37 677.598 1537.76 Q677.598 1534.15 675.26 1532.04 Q672.922 1529.94 668.917 1529.94 Q667.042 1529.94 665.167 1530.35 Q663.315 1530.77 661.371 1531.65 L661.371 1514.29 Z" fill="#000000" fill-rule="nonzero" fill-opacity="1"></path><path clip-path="url(#clip060)" d="M701.486 1517.37 Q697.875 1517.37 696.047 1520.93 Q694.241 1524.47 694.241 1531.6 Q694.241 1538.71 696.047 1542.27 Q697.875 1545.82 701.486 1545.82 Q705.121 1545.82 706.926 1542.27 Q708.755 1538.71 708.755 1531.6 Q708.755 1524.47 706.926 1520.93 Q705.121 1517.37 701.486 1517.37 M701.486 1513.66 Q707.297 1513.66 710.352 1518.27 Q713.431 1522.85 713.431 1531.6 Q713.431 1540.33 710.352 1544.94 Q707.297 1549.52 701.486 1549.52 Q695.676 1549.52 692.598 1544.94 Q689.542 1540.33 689.542 1531.6 Q689.542 1522.85 692.598 1518.27 Q695.676 1513.66 701.486 1513.66 Z" fill="#000000" fill-rule="nonzero" fill-opacity="1"></path><path clip-path="url(#clip060)" d="M731.648 1517.37 Q728.037 1517.37 726.208 1520.93 Q724.403 1524.47 724.403 1531.6 Q724.403 1538.71 726.208 1542.27 Q728.037 1545.82 731.648 1545.82 Q735.282 1545.82 737.088 1542.27 Q738.917 1538.71 738.917 1531.6 Q738.917 1524.47 737.088 1520.93 Q735.282 1517.37 731.648 1517.37 M731.648 1513.66 Q737.458 1513.66 740.514 1518.27 Q743.593 1522.85 743.593 1531.6 Q743.593 1540.33 740.514 1544.94 Q737.458 1549.52 731.648 1549.52 Q725.838 1549.52 722.759 1544.94 Q719.704 1540.33 719.704 1531.6 Q719.704 1522.85 722.759 1518.27 Q725.838 1513.66 731.648 1513.66 Z" fill="#000000" fill-rule="nonzero" fill-opacity="1"></path><path clip-path="url(#clip060)" d="M1086.99 1544.91 L1094.63 1544.91 L1094.63 1518.55 L1086.32 1520.21 L1086.32 1515.95 L1094.59 1514.29 L1099.26 1514.29 L1099.26 1544.91 L1106.9 1544.91 L1106.9 1548.85 L1086.99 1548.85 L1086.99 1544.91 Z" fill="#000000" fill-rule="nonzero" fill-opacity="1"></path><path clip-path="url(#clip060)" d="M1126.35 1517.37 Q1122.74 1517.37 1120.91 1520.93 Q1119.1 1524.47 1119.1 1531.6 Q1119.1 1538.71 1120.91 1542.27 Q1122.74 1545.82 1126.35 1545.82 Q1129.98 1545.82 1131.79 1542.27 Q1133.61 1538.71 1133.61 1531.6 Q1133.61 1524.47 1131.79 1520.93 Q1129.98 1517.37 1126.35 1517.37 M1126.35 1513.66 Q1132.16 1513.66 1135.21 1518.27 Q1138.29 1522.85 1138.29 1531.6 Q1138.29 1540.33 1135.21 1544.94 Q1132.16 1549.52 1126.35 1549.52 Q1120.54 1549.52 1117.46 1544.94 Q1114.4 1540.33 1114.4 1531.6 Q1114.4 1522.85 1117.46 1518.27 Q1120.54 1513.66 1126.35 1513.66 Z" fill="#000000" fill-rule="nonzero" fill-opacity="1"></path><path clip-path="url(#clip060)" d="M1156.51 1517.37 Q1152.9 1517.37 1151.07 1520.93 Q1149.26 1524.47 1149.26 1531.6 Q1149.26 1538.71 1151.07 1542.27 Q1152.9 1545.82 1156.51 1545.82 Q1160.14 1545.82 1161.95 1542.27 Q1163.78 1538.71 1163.78 1531.6 Q1163.78 1524.47 1161.95 1520.93 Q1160.14 1517.37 1156.51 1517.37 M1156.51 1513.66 Q1162.32 1513.66 1165.37 1518.27 Q1168.45 1522.85 1168.45 1531.6 Q1168.45 1540.33 1165.37 1544.94 Q1162.32 1549.52 1156.51 1549.52 Q1150.7 1549.52 1147.62 1544.94 Q1144.56 1540.33 1144.56 1531.6 Q1144.56 1522.85 1147.62 1518.27 Q1150.7 1513.66 1156.51 1513.66 Z" fill="#000000" fill-rule="nonzero" fill-opacity="1"></path><path clip-path="url(#clip060)" d="M1186.67 1517.37 Q1183.06 1517.37 1181.23 1520.93 Q1179.42 1524.47 1179.42 1531.6 Q1179.42 1538.71 1181.23 1542.27 Q1183.06 1545.82 1186.67 1545.82 Q1190.3 1545.82 1192.11 1542.27 Q1193.94 1538.71 1193.94 1531.6 Q1193.94 1524.47 1192.11 1520.93 Q1190.3 1517.37 1186.67 1517.37 M1186.67 1513.66 Q1192.48 1513.66 1195.54 1518.27 Q1198.61 1522.85 1198.61 1531.6 Q1198.61 1540.33 1195.54 1544.94 Q1192.48 1549.52 1186.67 1549.52 Q1180.86 1549.52 1177.78 1544.94 Q1174.73 1540.33 1174.73 1531.6 Q1174.73 1522.85 1177.78 1518.27 Q1180.86 1513.66 1186.67 1513.66 Z" fill="#000000" fill-rule="nonzero" fill-opacity="1"></path><path clip-path="url(#clip060)" d="M1527.71 1544.91 L1535.35 1544.91 L1535.35 1518.55 L1527.04 1520.21 L1527.04 1515.95 L1535.3 1514.29 L1539.98 1514.29 L1539.98 1544.91 L1547.62 1544.91 L1547.62 1548.85 L1527.71 1548.85 L1527.71 1544.91 Z" fill="#000000" fill-rule="nonzero" fill-opacity="1"></path><path clip-path="url(#clip060)" d="M1557.11 1514.29 L1575.47 1514.29 L1575.47 1518.22 L1561.39 1518.22 L1561.39 1526.7 Q1562.41 1526.35 1563.43 1526.19 Q1564.45 1526 1565.47 1526 Q1571.25 1526 1574.63 1529.17 Q1578.01 1532.34 1578.01 1537.76 Q1578.01 1543.34 1574.54 1546.44 Q1571.07 1549.52 1564.75 1549.52 Q1562.57 1549.52 1560.3 1549.15 Q1558.06 1548.78 1555.65 1548.04 L1555.65 1543.34 Q1557.73 1544.47 1559.96 1545.03 Q1562.18 1545.58 1564.66 1545.58 Q1568.66 1545.58 1571 1543.48 Q1573.34 1541.37 1573.34 1537.76 Q1573.34 1534.15 1571 1532.04 Q1568.66 1529.94 1564.66 1529.94 Q1562.78 1529.94 1560.91 1530.35 Q1559.05 1530.77 1557.11 1531.65 L1557.11 1514.29 Z" fill="#000000" fill-rule="nonzero" fill-opacity="1"></path><path clip-path="url(#clip060)" d="M1597.22 1517.37 Q1593.61 1517.37 1591.79 1520.93 Q1589.98 1524.47 1589.98 1531.6 Q1589.98 1538.71 1591.79 1542.27 Q1593.61 1545.82 1597.22 1545.82 Q1600.86 1545.82 1602.66 1542.27 Q1604.49 1538.71 1604.49 1531.6 Q1604.49 1524.47 1602.66 1520.93 Q1600.86 1517.37 1597.22 1517.37 M1597.22 1513.66 Q1603.03 1513.66 1606.09 1518.27 Q1609.17 1522.85 1609.17 1531.6 Q1609.17 1540.33 1606.09 1544.94 Q1603.03 1549.52 1597.22 1549.52 Q1591.41 1549.52 1588.34 1544.94 Q1585.28 1540.33 1585.28 1531.6 Q1585.28 1522.85 1588.34 1518.27 Q1591.41 1513.66 1597.22 1513.66 Z" fill="#000000" fill-rule="nonzero" fill-opacity="1"></path><path clip-path="url(#clip060)" d="M1627.39 1517.37 Q1623.78 1517.37 1621.95 1520.93 Q1620.14 1524.47 1620.14 1531.6 Q1620.14 1538.71 1621.95 1542.27 Q1623.78 1545.82 1627.39 1545.82 Q1631.02 1545.82 1632.83 1542.27 Q1634.66 1538.71 1634.66 1531.6 Q1634.66 1524.47 1632.83 1520.93 Q1631.02 1517.37 1627.39 1517.37 M1627.39 1513.66 Q1633.2 1513.66 1636.25 1518.27 Q1639.33 1522.85 1639.33 1531.6 Q1639.33 1540.33 1636.25 1544.94 Q1633.2 1549.52 1627.39 1549.52 Q1621.58 1549.52 1618.5 1544.94 Q1615.44 1540.33 1615.44 1531.6 Q1615.44 1522.85 1618.5 1518.27 Q1621.58 1513.66 1627.39 1513.66 Z" fill="#000000" fill-rule="nonzero" fill-opacity="1"></path><path clip-path="url(#clip060)" d="M1972.51 1544.91 L1988.83 1544.91 L1988.83 1548.85 L1966.89 1548.85 L1966.89 1544.91 Q1969.55 1542.16 1974.13 1537.53 Q1978.74 1532.88 1979.92 1531.53 Q1982.17 1529.01 1983.05 1527.27 Q1983.95 1525.51 1983.95 1523.82 Q1983.95 1521.07 1982 1519.33 Q1980.08 1517.6 1976.98 1517.6 Q1974.78 1517.6 1972.33 1518.36 Q1969.9 1519.13 1967.12 1520.68 L1967.12 1515.95 Q1969.94 1514.82 1972.4 1514.24 Q1974.85 1513.66 1976.89 1513.66 Q1982.26 1513.66 1985.45 1516.35 Q1988.65 1519.03 1988.65 1523.52 Q1988.65 1525.65 1987.84 1527.57 Q1987.05 1529.47 1984.94 1532.07 Q1984.37 1532.74 1981.26 1535.95 Q1978.16 1539.15 1972.51 1544.91 Z" fill="#000000" fill-rule="nonzero" fill-opacity="1"></path><path clip-path="url(#clip060)" d="M2008.65 1517.37 Q2005.04 1517.37 2003.21 1520.93 Q2001.4 1524.47 2001.4 1531.6 Q2001.4 1538.71 2003.21 1542.27 Q2005.04 1545.82 2008.65 1545.82 Q2012.28 1545.82 2014.09 1542.27 Q2015.92 1538.71 2015.92 1531.6 Q2015.92 1524.47 2014.09 1520.93 Q2012.28 1517.37 2008.65 1517.37 M2008.65 1513.66 Q2014.46 1513.66 2017.51 1518.27 Q2020.59 1522.85 2020.59 1531.6 Q2020.59 1540.33 2017.51 1544.94 Q2014.46 1549.52 2008.65 1549.52 Q2002.84 1549.52 1999.76 1544.94 Q1996.7 1540.33 1996.7 1531.6 Q1996.7 1522.85 1999.76 1518.27 Q2002.84 1513.66 2008.65 1513.66 Z" fill="#000000" fill-rule="nonzero" fill-opacity="1"></path><path clip-path="url(#clip060)" d="M2038.81 1517.37 Q2035.2 1517.37 2033.37 1520.93 Q2031.56 1524.47 2031.56 1531.6 Q2031.56 1538.71 2033.37 1542.27 Q2035.2 1545.82 2038.81 1545.82 Q2042.44 1545.82 2044.25 1542.27 Q2046.08 1538.71 2046.08 1531.6 Q2046.08 1524.47 2044.25 1520.93 Q2042.44 1517.37 2038.81 1517.37 M2038.81 1513.66 Q2044.62 1513.66 2047.68 1518.27 Q2050.75 1522.85 2050.75 1531.6 Q2050.75 1540.33 2047.68 1544.94 Q2044.62 1549.52 2038.81 1549.52 Q2033 1549.52 2029.92 1544.94 Q2026.87 1540.33 2026.87 1531.6 Q2026.87 1522.85 2029.92 1518.27 Q2033 1513.66 2038.81 1513.66 Z" fill="#000000" fill-rule="nonzero" fill-opacity="1"></path><path clip-path="url(#clip060)" d="M2068.97 1517.37 Q2065.36 1517.37 2063.53 1520.93 Q2061.73 1524.47 2061.73 1531.6 Q2061.73 1538.71 2063.53 1542.27 Q2065.36 1545.82 2068.97 1545.82 Q2072.61 1545.82 2074.41 1542.27 Q2076.24 1538.71 2076.24 1531.6 Q2076.24 1524.47 2074.41 1520.93 Q2072.61 1517.37 2068.97 1517.37 M2068.97 1513.66 Q2074.78 1513.66 2077.84 1518.27 Q2080.92 1522.85 2080.92 1531.6 Q2080.92 1540.33 2077.84 1544.94 Q2074.78 1549.52 2068.97 1549.52 Q2063.16 1549.52 2060.08 1544.94 Q2057.03 1540.33 2057.03 1531.6 Q2057.03 1522.85 2060.08 1518.27 Q2063.16 1513.66 2068.97 1513.66 Z" fill="#000000" fill-rule="nonzero" fill-opacity="1"></path><polyline clip-path="url(#clip062)" style="stroke:#000000; stroke-linecap:round; stroke-linejoin:round; stroke-width:2; stroke-opacity:0.1; fill:none" points="201.019,1445.04 2352.76,1445.04 "></polyline>
<polyline clip-path="url(#clip062)" style="stroke:#000000; stroke-linecap:round; stroke-linejoin:round; stroke-width:2; stroke-opacity:0.1; fill:none" points="201.019,1377.86 2352.76,1377.86 "></polyline>
<polyline clip-path="url(#clip062)" style="stroke:#000000; stroke-linecap:round; stroke-linejoin:round; stroke-width:2; stroke-opacity:0.1; fill:none" points="201.019,1106.42 2352.76,1106.42 "></polyline>
<polyline clip-path="url(#clip062)" style="stroke:#000000; stroke-linecap:round; stroke-linejoin:round; stroke-width:2; stroke-opacity:0.1; fill:none" points="201.019,767.108 2352.76,767.108 "></polyline>
<polyline clip-path="url(#clip062)" style="stroke:#000000; stroke-linecap:round; stroke-linejoin:round; stroke-width:2; stroke-opacity:0.1; fill:none" points="201.019,88.4935 2352.76,88.4935 "></polyline>
<polyline clip-path="url(#clip060)" style="stroke:#000000; stroke-linecap:round; stroke-linejoin:round; stroke-width:4; stroke-opacity:1; fill:none" points="201.019,1486.45 201.019,47.2441 "></polyline>
<polyline clip-path="url(#clip060)" style="stroke:#000000; stroke-linecap:round; stroke-linejoin:round; stroke-width:4; stroke-opacity:1; fill:none" points="201.019,1445.04 219.917,1445.04 "></polyline>
<polyline clip-path="url(#clip060)" style="stroke:#000000; stroke-linecap:round; stroke-linejoin:round; stroke-width:4; stroke-opacity:1; fill:none" points="201.019,1377.86 219.917,1377.86 "></polyline>
<polyline clip-path="url(#clip060)" style="stroke:#000000; stroke-linecap:round; stroke-linejoin:round; stroke-width:4; stroke-opacity:1; fill:none" points="201.019,1106.42 219.917,1106.42 "></polyline>
<polyline clip-path="url(#clip060)" style="stroke:#000000; stroke-linecap:round; stroke-linejoin:round; stroke-width:4; stroke-opacity:1; fill:none" points="201.019,767.108 219.917,767.108 "></polyline>
<polyline clip-path="url(#clip060)" style="stroke:#000000; stroke-linecap:round; stroke-linejoin:round; stroke-width:4; stroke-opacity:1; fill:none" points="201.019,88.4935 219.917,88.4935 "></polyline>
<path clip-path="url(#clip060)" d="M145.112 1458.39 L152.751 1458.39 L152.751 1432.02 L144.441 1433.69 L144.441 1429.43 L152.705 1427.76 L157.38 1427.76 L157.38 1458.39 L165.019 1458.39 L165.019 1462.32 L145.112 1462.32 L145.112 1458.39 Z" fill="#000000" fill-rule="nonzero" fill-opacity="1"></path><path clip-path="url(#clip060)" d="M83.5614 1391.21 L91.2002 1391.21 L91.2002 1364.84 L82.8901 1366.51 L82.8901 1362.25 L91.1539 1360.58 L95.8298 1360.58 L95.8298 1391.21 L103.469 1391.21 L103.469 1395.14 L83.5614 1395.14 L83.5614 1391.21 Z" fill="#000000" fill-rule="nonzero" fill-opacity="1"></path><path clip-path="url(#clip060)" d="M122.913 1363.66 Q119.302 1363.66 117.473 1367.22 Q115.668 1370.77 115.668 1377.9 Q115.668 1385 117.473 1388.57 Q119.302 1392.11 122.913 1392.11 Q126.547 1392.11 128.353 1388.57 Q130.182 1385 130.182 1377.9 Q130.182 1370.77 128.353 1367.22 Q126.547 1363.66 122.913 1363.66 M122.913 1359.96 Q128.723 1359.96 131.779 1364.56 Q134.857 1369.15 134.857 1377.9 Q134.857 1386.62 131.779 1391.23 Q128.723 1395.81 122.913 1395.81 Q117.103 1395.81 114.024 1391.23 Q110.969 1386.62 110.969 1377.9 Q110.969 1369.15 114.024 1364.56 Q117.103 1359.96 122.913 1359.96 Z" fill="#000000" fill-rule="nonzero" fill-opacity="1"></path><path clip-path="url(#clip060)" d="M153.075 1363.66 Q149.464 1363.66 147.635 1367.22 Q145.83 1370.77 145.83 1377.9 Q145.83 1385 147.635 1388.57 Q149.464 1392.11 153.075 1392.11 Q156.709 1392.11 158.515 1388.57 Q160.343 1385 160.343 1377.9 Q160.343 1370.77 158.515 1367.22 Q156.709 1363.66 153.075 1363.66 M153.075 1359.96 Q158.885 1359.96 161.941 1364.56 Q165.019 1369.15 165.019 1377.9 Q165.019 1386.62 161.941 1391.23 Q158.885 1395.81 153.075 1395.81 Q147.265 1395.81 144.186 1391.23 Q141.131 1386.62 141.131 1377.9 Q141.131 1369.15 144.186 1364.56 Q147.265 1359.96 153.075 1359.96 Z" fill="#000000" fill-rule="nonzero" fill-opacity="1"></path><path clip-path="url(#clip060)" d="M82.7975 1089.14 L101.154 1089.14 L101.154 1093.07 L87.0799 1093.07 L87.0799 1101.54 Q88.0984 1101.2 89.1169 1101.03 Q90.1354 1100.85 91.1539 1100.85 Q96.941 1100.85 100.321 1104.02 Q103.7 1107.19 103.7 1112.61 Q103.7 1118.19 100.228 1121.29 Q96.7558 1124.37 90.4364 1124.37 Q88.2604 1124.37 85.9919 1124 Q83.7466 1123.63 81.3392 1122.89 L81.3392 1118.19 Q83.4225 1119.32 85.6447 1119.88 Q87.8669 1120.43 90.3438 1120.43 Q94.3484 1120.43 96.6863 1118.32 Q99.0243 1116.22 99.0243 1112.61 Q99.0243 1109 96.6863 1106.89 Q94.3484 1104.78 90.3438 1104.78 Q88.4688 1104.78 86.5938 1105.2 Q84.7419 1105.62 82.7975 1106.5 L82.7975 1089.14 Z" fill="#000000" fill-rule="nonzero" fill-opacity="1"></path><path clip-path="url(#clip060)" d="M122.913 1092.21 Q119.302 1092.21 117.473 1095.78 Q115.668 1099.32 115.668 1106.45 Q115.668 1113.56 117.473 1117.12 Q119.302 1120.66 122.913 1120.66 Q126.547 1120.66 128.353 1117.12 Q130.182 1113.56 130.182 1106.45 Q130.182 1099.32 128.353 1095.78 Q126.547 1092.21 122.913 1092.21 M122.913 1088.51 Q128.723 1088.51 131.779 1093.12 Q134.857 1097.7 134.857 1106.45 Q134.857 1115.18 131.779 1119.78 Q128.723 1124.37 122.913 1124.37 Q117.103 1124.37 114.024 1119.78 Q110.969 1115.18 110.969 1106.45 Q110.969 1097.7 114.024 1093.12 Q117.103 1088.51 122.913 1088.51 Z" fill="#000000" fill-rule="nonzero" fill-opacity="1"></path><path clip-path="url(#clip060)" d="M153.075 1092.21 Q149.464 1092.21 147.635 1095.78 Q145.83 1099.32 145.83 1106.45 Q145.83 1113.56 147.635 1117.12 Q149.464 1120.66 153.075 1120.66 Q156.709 1120.66 158.515 1117.12 Q160.343 1113.56 160.343 1106.45 Q160.343 1099.32 158.515 1095.78 Q156.709 1092.21 153.075 1092.21 M153.075 1088.51 Q158.885 1088.51 161.941 1093.12 Q165.019 1097.7 165.019 1106.45 Q165.019 1115.18 161.941 1119.78 Q158.885 1124.37 153.075 1124.37 Q147.265 1124.37 144.186 1119.78 Q141.131 1115.18 141.131 1106.45 Q141.131 1097.7 144.186 1093.12 Q147.265 1088.51 153.075 1088.51 Z" fill="#000000" fill-rule="nonzero" fill-opacity="1"></path><path clip-path="url(#clip060)" d="M53.3995 780.453 L61.0384 780.453 L61.0384 754.087 L52.7282 755.754 L52.7282 751.495 L60.9921 749.828 L65.668 749.828 L65.668 780.453 L73.3068 780.453 L73.3068 784.388 L53.3995 784.388 L53.3995 780.453 Z" fill="#000000" fill-rule="nonzero" fill-opacity="1"></path><path clip-path="url(#clip060)" d="M92.7512 752.907 Q89.1401 752.907 87.3114 756.471 Q85.5058 760.013 85.5058 767.143 Q85.5058 774.249 87.3114 777.814 Q89.1401 781.356 92.7512 781.356 Q96.3854 781.356 98.1909 777.814 Q100.02 774.249 100.02 767.143 Q100.02 760.013 98.1909 756.471 Q96.3854 752.907 92.7512 752.907 M92.7512 749.203 Q98.5613 749.203 101.617 753.809 Q104.696 758.393 104.696 767.143 Q104.696 775.87 101.617 780.476 Q98.5613 785.059 92.7512 785.059 Q86.941 785.059 83.8623 780.476 Q80.8068 775.87 80.8068 767.143 Q80.8068 758.393 83.8623 753.809 Q86.941 749.203 92.7512 749.203 Z" fill="#000000" fill-rule="nonzero" fill-opacity="1"></path><path clip-path="url(#clip060)" d="M122.913 752.907 Q119.302 752.907 117.473 756.471 Q115.668 760.013 115.668 767.143 Q115.668 774.249 117.473 777.814 Q119.302 781.356 122.913 781.356 Q126.547 781.356 128.353 777.814 Q130.182 774.249 130.182 767.143 Q130.182 760.013 128.353 756.471 Q126.547 752.907 122.913 752.907 M122.913 749.203 Q128.723 749.203 131.779 753.809 Q134.857 758.393 134.857 767.143 Q134.857 775.87 131.779 780.476 Q128.723 785.059 122.913 785.059 Q117.103 785.059 114.024 780.476 Q110.969 775.87 110.969 767.143 Q110.969 758.393 114.024 753.809 Q117.103 749.203 122.913 749.203 Z" fill="#000000" fill-rule="nonzero" fill-opacity="1"></path><path clip-path="url(#clip060)" d="M153.075 752.907 Q149.464 752.907 147.635 756.471 Q145.83 760.013 145.83 767.143 Q145.83 774.249 147.635 777.814 Q149.464 781.356 153.075 781.356 Q156.709 781.356 158.515 777.814 Q160.343 774.249 160.343 767.143 Q160.343 760.013 158.515 756.471 Q156.709 752.907 153.075 752.907 M153.075 749.203 Q158.885 749.203 161.941 753.809 Q165.019 758.393 165.019 767.143 Q165.019 775.87 161.941 780.476 Q158.885 785.059 153.075 785.059 Q147.265 785.059 144.186 780.476 Q141.131 775.87 141.131 767.143 Q141.131 758.393 144.186 753.809 Q147.265 749.203 153.075 749.203 Z" fill="#000000" fill-rule="nonzero" fill-opacity="1"></path><path clip-path="url(#clip060)" d="M56.6171 101.838 L72.9365 101.838 L72.9365 105.774 L50.9921 105.774 L50.9921 101.838 Q53.6541 99.0837 58.2375 94.4541 Q62.8439 89.8014 64.0245 88.4588 Q66.2698 85.9357 67.1494 84.1996 Q68.0522 82.4403 68.0522 80.7505 Q68.0522 77.9959 66.1078 76.2598 Q64.1865 74.5237 61.0847 74.5237 Q58.8856 74.5237 56.4319 75.2876 Q54.0014 76.0515 51.2236 77.6024 L51.2236 72.8802 Q54.0477 71.7459 56.5014 71.1672 Q58.955 70.5885 60.9921 70.5885 Q66.3624 70.5885 69.5568 73.2737 Q72.7513 75.9589 72.7513 80.4496 Q72.7513 82.5792 71.9411 84.5005 Q71.1541 86.3986 69.0476 88.9912 Q68.4689 89.6625 65.367 92.8801 Q62.2652 96.0745 56.6171 101.838 Z" fill="#000000" fill-rule="nonzero" fill-opacity="1"></path><path clip-path="url(#clip060)" d="M92.7512 74.2922 Q89.1401 74.2922 87.3114 77.857 Q85.5058 81.3986 85.5058 88.5282 Q85.5058 95.6347 87.3114 99.1995 Q89.1401 102.741 92.7512 102.741 Q96.3854 102.741 98.1909 99.1995 Q100.02 95.6347 100.02 88.5282 Q100.02 81.3986 98.1909 77.857 Q96.3854 74.2922 92.7512 74.2922 M92.7512 70.5885 Q98.5613 70.5885 101.617 75.195 Q104.696 79.7783 104.696 88.5282 Q104.696 97.255 101.617 101.861 Q98.5613 106.445 92.7512 106.445 Q86.941 106.445 83.8623 101.861 Q80.8068 97.255 80.8068 88.5282 Q80.8068 79.7783 83.8623 75.195 Q86.941 70.5885 92.7512 70.5885 Z" fill="#000000" fill-rule="nonzero" fill-opacity="1"></path><path clip-path="url(#clip060)" d="M122.913 74.2922 Q119.302 74.2922 117.473 77.857 Q115.668 81.3986 115.668 88.5282 Q115.668 95.6347 117.473 99.1995 Q119.302 102.741 122.913 102.741 Q126.547 102.741 128.353 99.1995 Q130.182 95.6347 130.182 88.5282 Q130.182 81.3986 128.353 77.857 Q126.547 74.2922 122.913 74.2922 M122.913 70.5885 Q128.723 70.5885 131.779 75.195 Q134.857 79.7783 134.857 88.5282 Q134.857 97.255 131.779 101.861 Q128.723 106.445 122.913 106.445 Q117.103 106.445 114.024 101.861 Q110.969 97.255 110.969 88.5282 Q110.969 79.7783 114.024 75.195 Q117.103 70.5885 122.913 70.5885 Z" fill="#000000" fill-rule="nonzero" fill-opacity="1"></path><path clip-path="url(#clip060)" d="M153.075 74.2922 Q149.464 74.2922 147.635 77.857 Q145.83 81.3986 145.83 88.5282 Q145.83 95.6347 147.635 99.1995 Q149.464 102.741 153.075 102.741 Q156.709 102.741 158.515 99.1995 Q160.343 95.6347 160.343 88.5282 Q160.343 81.3986 158.515 77.857 Q156.709 74.2922 153.075 74.2922 M153.075 70.5885 Q158.885 70.5885 161.941 75.195 Q165.019 79.7783 165.019 88.5282 Q165.019 97.255 161.941 101.861 Q158.885 106.445 153.075 106.445 Q147.265 106.445 144.186 101.861 Q141.131 97.255 141.131 88.5282 Q141.131 79.7783 144.186 75.195 Q147.265 70.5885 153.075 70.5885 Z" fill="#000000" fill-rule="nonzero" fill-opacity="1"></path><polyline clip-path="url(#clip062)" style="stroke:#009af9; stroke-linecap:round; stroke-linejoin:round; stroke-width:4; stroke-opacity:1; fill:none" points="261.917,1445.72 262.799,1445.72 263.68,1445.72 264.562,1445.72 265.443,1445.72 266.325,1445.38 267.206,1445.72 268.088,1445.6 268.969,1445.29 269.85,1445.43 270.732,1445.55 271.613,1445.72 272.495,1445.61 273.376,1445.72 274.258,1445.7 275.139,1445.63 276.02,1445.72 276.902,1445.72 277.783,1445.26 278.665,1445.72 279.546,1445.67 280.428,1445.37 281.309,1445.42 282.19,1445.72 283.072,1445.72 283.953,1445.71 284.835,1445.5 285.716,1445.38 286.598,1445.72 287.479,1445.72 288.36,1445.28 289.242,1445.71 290.123,1445.72 291.005,1445.7 291.886,1445.72 292.768,1445.37 293.649,1445.72 294.531,1445.53 295.412,1445.52 296.293,1445.59 297.175,1445.72 298.056,1445.39 298.938,1445.35 299.819,1445.72 300.701,1445.72 301.582,1445.65 302.463,1445.72 303.345,1445.72 304.226,1445.31 305.108,1445.65 305.989,1445.72 306.871,1445.55 307.752,1445.72 308.633,1445.72 309.515,1445.2 310.396,1445.72 311.278,1445.72 312.159,1445.57 313.041,1445.6 313.922,1445.72 314.803,1445.72 315.685,1445.3 316.566,1445.62 317.448,1445.72 318.329,1445.55 319.211,1445.72 320.092,1445.37 320.974,1445.72 321.855,1445.61 322.736,1445.54 323.618,1445.72 324.499,1445.57 325.381,1445.26 326.262,1445.43 327.144,1445.72 328.025,1445.72 328.906,1445.72 329.788,1445.72 330.669,1445.72 331.551,1445.46 332.432,1445.72 333.314,1445.37 334.195,1445.72 335.076,1445.62 335.958,1445.26 336.839,1445.46 337.721,1445.6 338.602,1445.72 339.484,1445.72 340.365,1445.53 341.246,1445.72 342.128,1445.61 343.009,1445.53 343.891,1445.6 344.772,1445.36 345.654,1445.49 346.535,1445.43 347.416,1445.64 348.298,1445.64 349.179,1445.72 350.061,1445.72 350.942,1445.72 351.824,1445.45 352.705,1445.55 353.587,1445.23 354.468,1445.72 355.349,1445.72 356.231,1445.56 357.112,1445.72 357.994,1445.5 358.875,1445.72 359.757,1445.31 360.638,1445.72 361.519,1445.3 362.401,1445.72 363.282,1445.59 364.164,1445.53 365.045,1445.28 365.927,1445.72 366.808,1445.72 367.689,1445.44 368.571,1445.72 369.452,1445.72 370.334,1445.38 371.215,1445.58 372.097,1445.72 372.978,1445.41 373.859,1445.72 374.741,1445.42 375.622,1445.37 376.504,1445.32 377.385,1445.59 378.267,1445.72 379.148,1445.32 380.03,1445.72 380.911,1445.72 381.792,1445.54 382.674,1445.33 383.555,1445.72 384.437,1445.45 385.318,1445.69 386.2,1445.3 387.081,1445.72 387.962,1445.33 388.844,1445.72 389.725,1445.72 390.607,1445.58 391.488,1445.6 392.37,1445.72 393.251,1445.68 394.132,1445.72 395.014,1445.49 395.895,1445.72 396.777,1445.72 397.658,1445.62 398.54,1445.72 399.421,1445.72 400.302,1445.26 401.184,1445.56 402.065,1445.35 402.947,1445.72 403.828,1445.71 404.71,1445.62 405.591,1445.38 406.473,1445.72 407.354,1445.3 408.235,1445.65 409.117,1445.34 409.998,1445.72 410.88,1445.22 411.761,1445.3 412.643,1445.72 413.524,1445.56 414.405,1445.59 415.287,1445.72 416.168,1445.72 417.05,1445.72 417.931,1445.32 418.813,1445.41 419.694,1445.5 420.575,1445.72 421.457,1445.72 422.338,1445.72 423.22,1445.2 424.101,1445.72 424.983,1445.72 425.864,1445.21 426.745,1445.72 427.627,1445.47 428.508,1445.72 429.39,1445.72 430.271,1445.69 431.153,1445.35 432.034,1445.72 432.916,1445.4 433.797,1445.72 434.678,1445.72 435.56,1445.72 436.441,1445.72 437.323,1445.53 438.204,1445.72 439.086,1445.7 439.967,1445.38 440.848,1445.39 441.73,1445.34 442.611,1445.72 443.493,1445.72 444.374,1445.5 445.256,1445.72 446.137,1445.37 447.018,1445.37 447.9,1445.72 448.781,1445.33 449.663,1445.72 450.544,1445.45 451.426,1445.26 452.307,1445.54 453.188,1445.54 454.07,1445.32 454.951,1445.25 455.833,1445.72 456.714,1445.72 457.596,1445.25 458.477,1445.31 459.358,1445.52 460.24,1445.72 461.121,1445.72 462.003,1445.72 462.884,1445.42 463.766,1445.57 464.647,1445.53 465.529,1445.22 466.41,1445.72 467.291,1445.72 468.173,1445.71 469.054,1445.33 469.936,1445.36 470.817,1445.58 471.699,1445.72 472.58,1445.42 473.461,1445.72 474.343,1445.14 475.224,1445.57 476.106,1445.72 476.987,1445.59 477.869,1445.72 478.75,1445.65 479.631,1445.72 480.513,1445.72 481.394,1445.72 482.276,1445.72 483.157,1445.72 484.039,1445.65 484.92,1445.49 485.801,1445.71 486.683,1445.26 487.564,1445.38 488.446,1445.72 489.327,1445.72 490.209,1445.72 491.09,1445.72 491.972,1445.72 492.853,1445.72 493.734,1445.65 494.616,1445.53 495.497,1445.7 496.379,1445.27 497.26,1445.72 498.142,1445.54 499.023,1445.72 499.904,1445.27 500.786,1445.72 501.667,1445.72 502.549,1445.48 503.43,1445.47 504.312,1445.54 505.193,1445.44 506.074,1445.48 506.956,1445.66 507.837,1445.54 508.719,1445.38 509.6,1445.62 510.482,1445.72 511.363,1445.66 512.244,1445.72 513.126,1445.72 514.007,1445.58 514.889,1445.38 515.77,1445.72 516.652,1445.72 517.533,1445.21 518.415,1445.72 519.296,1445.46 520.177,1445.62 521.059,1445.72 521.94,1445.66 522.822,1445.59 523.703,1445.5 524.585,1445.72 525.466,1445.72 526.347,1445.57 527.229,1445.46 528.11,1445.63 528.992,1445.72 529.873,1445.72 530.755,1445.56 531.636,1445.22 532.517,1445.72 533.399,1445.72 534.28,1445.72 535.162,1445.51 536.043,1445.72 536.925,1445.72 537.806,1445.72 538.687,1445.72 539.569,1445.63 540.45,1445.63 541.332,1445.72 542.213,1445.69 543.095,1445.53 543.976,1445.72 544.857,1445.72 545.739,1445.57 546.62,1445.5 547.502,1445.24 548.383,1445.49 549.265,1445.62 550.146,1445.72 551.028,1445.23 551.909,1445.52 552.79,1445.33 553.672,1445.72 554.553,1445.62 555.435,1445.72 556.316,1445.59 557.198,1445.72 558.079,1445.72 558.96,1445.46 559.842,1445.58 560.723,1445.72 561.605,1445.72 562.486,1445.49 563.368,1445.12 564.249,1445.72 565.13,1445.25 566.012,1445.42 566.893,1445.35 567.775,1445.41 568.656,1445.72 569.538,1445.36 570.419,1445.46 571.3,1445.72 572.182,1445.72 573.063,1445.54 573.945,1445.67 574.826,1445.72 575.708,1445.72 576.589,1445.53 577.471,1445.72 578.352,1445.72 579.233,1445.71 580.115,1445.72 580.996,1445.72 581.878,1445.72 582.759,1445.72 583.641,1445.38 584.522,1445.72 585.403,1445.72 586.285,1445.72 587.166,1445.71 588.048,1445.72 588.929,1445.57 589.811,1445.72 590.692,1445.45 591.573,1445.72 592.455,1445.72 593.336,1445.72 594.218,1445.72 595.099,1445.57 595.981,1445.67 596.862,1445.61 597.743,1445.05 598.625,1445.72 599.506,1445.33 600.388,1445.57 601.269,1445.72 602.151,1445.72 603.032,1445.72 603.914,1445.72 604.795,1445.54 605.676,1445.52 606.558,1445.72 607.439,1445.62 608.321,1445.72 609.202,1445.72 610.084,1445.54 610.965,1445.45 611.846,1445.72 612.728,1445.72 613.609,1445.25 614.491,1445.72 615.372,1445.68 616.254,1445.72 617.135,1445.72 618.016,1445.72 618.898,1445.43 619.779,1445.4 620.661,1445.72 621.542,1445.72 622.424,1445.72 623.305,1445.72 624.186,1445.24 625.068,1445.47 625.949,1445.6 626.831,1445.71 627.712,1445.62 628.594,1445.31 629.475,1445.36 630.356,1445.3 631.238,1445.72 632.119,1445.72 633.001,1445.42 633.882,1445.72 634.764,1445.72 635.645,1445.61 636.527,1445.72 637.408,1445.36 638.289,1445.59 639.171,1445.72 640.052,1445.72 640.934,1445.44 641.815,1445.53 642.697,1445.59 643.578,1445.72 644.459,1445.72 645.341,1445.61 646.222,1445.32 647.104,1445.52 647.985,1445.54 648.867,1445.27 649.748,1445.31 650.629,1445.36 651.511,1445.72 652.392,1445.42 653.274,1445.65 654.155,1445.72 655.037,1445.72 655.918,1445.72 656.799,1445.72 657.681,1445.53 658.562,1445.42 659.444,1445.72 660.325,1445.72 661.207,1445.72 662.088,1445.47 662.97,1445.6 663.851,1445.67 664.732,1445.41 665.614,1445.31 666.495,1445.72 667.377,1445.42 668.258,1445.3 669.14,1445.72 670.021,1445.72 670.902,1445.72 671.784,1445.71 672.665,1445.58 673.547,1445.72 674.428,1445.72 675.31,1445.28 676.191,1445.72 677.072,1445.44 677.954,1445.72 678.835,1445.52 679.717,1445.72 680.598,1445.72 681.48,1445.55 682.361,1445.52 683.242,1445.72 684.124,1445.72 685.005,1445.69 685.887,1445.33 686.768,1445.15 687.65,1445.72 688.531,1445.5 689.413,1445.72 690.294,1445.29 691.175,1445.71 692.057,1445.25 692.938,1445.4 693.82,1445.58 694.701,1445.3 695.583,1445.72 696.464,1445.69 697.345,1445.26 698.227,1445.71 699.108,1445.55 699.99,1445.59 700.871,1445.72 701.753,1445.31 702.634,1445.72 703.515,1445.5 704.397,1445.72 705.278,1445.61 706.16,1445.72 707.041,1445.26 707.923,1445.71 708.804,1445.68 709.685,1445.72 710.567,1445.72 711.448,1445.72 712.33,1445.29 713.211,1445.41 714.093,1445.38 714.974,1445.21 715.855,1445.47 716.737,1445.72 717.618,1445.72 718.5,1445.72 719.381,1445.72 720.263,1445.33 721.144,1445.72 722.026,1445.72 722.907,1445.62 723.788,1445.39 724.67,1445.72 725.551,1445.72 726.433,1445.47 727.314,1445.72 728.196,1445.56 729.077,1445.54 729.958,1445.65 730.84,1445.71 731.721,1445.31 732.603,1445.26 733.484,1445.72 734.366,1445.59 735.247,1445.72 736.128,1445.72 737.01,1445.71 737.891,1445.62 738.773,1445.51 739.654,1445.61 740.536,1445.55 741.417,1445.36 742.298,1445.71 743.18,1445.72 744.061,1445.48 744.943,1445.46 745.824,1445.31 746.706,1445.72 747.587,1445.72 748.469,1445.48 749.35,1445.72 750.231,1445.72 751.113,1445.56 751.994,1445.63 752.876,1445.71 753.757,1445.72 754.639,1445.72 755.52,1445.72 756.401,1445.72 757.283,1445.5 758.164,1445.72 759.046,1445.72 759.927,1445.54 760.809,1445.51 761.69,1445.55 762.571,1445.72 763.453,1445.72 764.334,1445.45 765.216,1445.72 766.097,1445.35 766.979,1445.24 767.86,1445.43 768.741,1445.67 769.623,1445.64 770.504,1445.63 771.386,1445.72 772.267,1445.72 773.149,1445.72 774.03,1445.72 774.912,1445.61 775.793,1445.71 776.674,1445.66 777.556,1445.57 778.437,1445.34 779.319,1445.72 780.2,1445.31 781.082,1445.48 781.963,1445.72 782.844,1445.63 783.726,1445.72 784.607,1445.72 785.489,1445.52 786.37,1445.72 787.252,1445.28 788.133,1445.71 789.014,1445.72 789.896,1445.66 790.777,1445.72 791.659,1445.41 792.54,1445.41 793.422,1445.49 794.303,1445.72 795.184,1445.71 796.066,1445.63 796.947,1445.72 797.829,1445.47 798.71,1445.72 799.592,1445.72 800.473,1445.69 801.354,1445.65 802.236,1445.59 803.117,1445.39 803.999,1445.72 804.88,1445.72 805.762,1445.72 806.643,1445.72 807.525,1445.72 808.406,1445.46 809.287,1445.72 810.169,1445.72 811.05,1445.72 811.932,1445.72 812.813,1445.68 813.695,1445.72 814.576,1445.37 815.457,1445.72 816.339,1445.72 817.22,1445.72 818.102,1445.67 818.983,1445.27 819.865,1445.72 820.746,1445.72 821.627,1445.51 822.509,1445.65 823.39,1445.67 824.272,1445.28 825.153,1445.22 826.035,1445.34 826.916,1445.72 827.797,1445.48 828.679,1445.72 829.56,1445.59 830.442,1445.72 831.323,1445.71 832.205,1445.19 833.086,1445.72 833.968,1445.72 834.849,1445.43 835.73,1445.72 836.612,1445.41 837.493,1445.29 838.375,1445.29 839.256,1445.72 840.138,1445.38 841.019,1445.41 841.9,1445.28 842.782,1445.49 843.663,1445.58 844.545,1445.29 845.426,1445.44 846.308,1445.42 847.189,1445.51 848.07,1445.72 848.952,1445.72 849.833,1445.61 850.715,1445.49 851.596,1445.72 852.478,1445.18 853.359,1445.61 854.24,1445.72 855.122,1445.72 856.003,1445.72 856.885,1445.29 857.766,1445.72 858.648,1445.48 859.529,1445.72 860.411,1445.31 861.292,1445.72 862.173,1445.44 863.055,1445.6 863.936,1445.72 864.818,1445.36 865.699,1445.72 866.581,1445.46 867.462,1445.32 868.343,1445.39 869.225,1445.72 870.106,1445.34 870.988,1445.72 871.869,1445.52 872.751,1445.58 873.632,1445.72 874.513,1445.7 875.395,1445.72 876.276,1445.72 877.158,1445.72 878.039,1445.72 878.921,1445.72 879.802,1445.53 880.683,1445.59 881.565,1445.6 882.446,1445.72 883.328,1445.64 884.209,1445.72 885.091,1445.72 885.972,1445.53 886.853,1445.62 887.735,1445.38 888.616,1445.72 889.498,1445.4 890.379,1445.54 891.261,1445.72 892.142,1445.72 893.024,1445.53 893.905,1445.31 894.786,1445.38 895.668,1445.46 896.549,1445.72 897.431,1445.62 898.312,1445.4 899.194,1445.65 900.075,1445.32 900.956,1445.72 901.838,1445.31 902.719,1445.43 903.601,1445.72 904.482,1445.7 905.364,1445.71 906.245,1445.72 907.126,1445.25 908.008,1445.42 908.889,1445.72 909.771,1445.59 910.652,1445.51 911.534,1445.72 912.415,1445.72 913.296,1445.66 914.178,1445.59 915.059,1445.34 915.941,1445.49 916.822,1445.72 917.704,1445.72 918.585,1445.68 919.467,1445.27 920.348,1445.54 921.229,1445.72 922.111,1445.72 922.992,1445.61 923.874,1445.46 924.755,1445.42 925.637,1445.33 926.518,1445.24 927.399,1445.72 928.281,1445.72 929.162,1445.59 930.044,1445.35 930.925,1445.58 931.807,1445.55 932.688,1445.72 933.569,1445.24 934.451,1445.72 935.332,1445.72 936.214,1445.36 937.095,1445.72 937.977,1445.72 938.858,1445.62 939.739,1445.72 940.621,1445.37 941.502,1445.46 942.384,1445.72 943.265,1445.72 944.147,1445.72 945.028,1445.52 945.91,1445.57 946.791,1445.45 947.672,1445.48 948.554,1445.43 949.435,1445.72 950.317,1445.72 951.198,1445.48 952.08,1445.49 952.961,1445.72 953.842,1445.32 954.724,1445.72 955.605,1445.72 956.487,1445.35 957.368,1445.72 958.25,1445.69 959.131,1445.69 960.012,1445.72 960.894,1445.4 961.775,1445.72 962.657,1445.54 963.538,1445.49 964.42,1445.28 965.301,1445.46 966.182,1445.23 967.064,1445.64 967.945,1445.49 968.827,1445.67 969.708,1445.72 970.59,1445.46 971.471,1445.4 972.352,1445.56 973.234,1445.72 974.115,1445.72 974.997,1445.58 975.878,1445.72 976.76,1445.72 977.641,1445.23 978.523,1445.72 979.404,1445.72 980.285,1445.5 981.167,1445.41 982.048,1445.32 982.93,1445.41 983.811,1445.72 984.693,1445.72 985.574,1445.72 986.455,1445.65 987.337,1445.66 988.218,1445.71 989.1,1445.51 989.981,1445.72 990.863,1445.72 991.744,1445.4 992.625,1445.43 993.507,1445.51 994.388,1445.72 995.27,1445.72 996.151,1445.42 997.033,1445.72 997.914,1445.29 998.795,1445.72 999.677,1445.72 1000.56,1445.33 1001.44,1445.4 1002.32,1445.72 1003.2,1445.72 1004.08,1445.72 1004.97,1445.36 1005.85,1445.44 1006.73,1445.72 1007.61,1445.65 1008.49,1445.72 1009.37,1445.72 1010.25,1445.4 1011.14,1445.15 1012.02,1445.72 1012.9,1445.55 1013.78,1445.46 1014.66,1445.72 1015.54,1445.71 1016.42,1445.72 1017.31,1445.37 1018.19,1445.48 1019.07,1445.72 1019.95,1445.72 1020.83,1445.58 1021.71,1445.14 1022.59,1445.51 1023.48,1445.43 1024.36,1445.55 1025.24,1445.72 1026.12,1445.72 1027,1445.72 1027.88,1445.57 1028.76,1445.72 1029.65,1445.72 1030.53,1445.29 1031.41,1445.72 1032.29,1445.72 1033.17,1445.34 1034.05,1445.49 1034.93,1445.33 1035.82,1445.72 1036.7,1445.62 1037.58,1445.43 1038.46,1445.25 1039.34,1445.72 1040.22,1445.53 1041.1,1445.46 1041.99,1445.72 1042.87,1445.71 1043.75,1445.59 1044.63,1445.26 1045.51,1445.28 1046.39,1445.35 1047.27,1445.33 1048.16,1445.72 1049.04,1445.72 1049.92,1445.59 1050.8,1445.72 1051.68,1445.36 1052.56,1445.14 1053.44,1445.31 1054.33,1445.4 1055.21,1445.72 1056.09,1445.61 1056.97,1445.48 1057.85,1445.49 1058.73,1445.27 1059.61,1445.71 1060.5,1445.4 1061.38,1445.39 1062.26,1445.58 1063.14,1445.7 1064.02,1445.72 1064.9,1445.55 1065.78,1445.67 1066.67,1445.51 1067.55,1445.56 1068.43,1445.72 1069.31,1445.28 1070.19,1445.62 1071.07,1445.72 1071.95,1445.42 1072.84,1445.72 1073.72,1445.31 1074.6,1445.72 1075.48,1445.72 1076.36,1445.38 1077.24,1445.44 1078.12,1445.29 1079.01,1445.44 1079.89,1445.72 1080.77,1445.34 1081.65,1445.72 1082.53,1445.49 1083.41,1445.56 1084.29,1445.57 1085.18,1445.64 1086.06,1445.68 1086.94,1445.64 1087.82,1445.54 1088.7,1445.33 1089.58,1445.13 1090.46,1445.72 1091.35,1445.72 1092.23,1445.23 1093.11,1445.72 1093.99,1445.66 1094.87,1445.68 1095.75,1445.23 1096.63,1445.72 1097.52,1445.65 1098.4,1445.49 1099.28,1445.72 1100.16,1445.72 1101.04,1445.72 1101.92,1445.72 1102.8,1445.52 1103.69,1445.72 1104.57,1445.25 1105.45,1445.72 1106.33,1445.72 1107.21,1445.32 1108.09,1445.72 1108.97,1445.16 1109.86,1445.72 1110.74,1445.72 1111.62,1445.72 1112.5,1445.72 1113.38,1445.72 1114.26,1445.54 1115.14,1445.72 1116.03,1445.72 1116.91,1445.72 1117.79,1445.72 1118.67,1445.49 1119.55,1445.32 1120.43,1445.72 1121.31,1445.61 1122.2,1445.63 1123.08,1445.68 1123.96,1445.72 1124.84,1445.46 1125.72,1445.72 1126.6,1445.72 1127.48,1445.72 1128.37,1445.72 1129.25,1445.29 1130.13,1445.5 1131.01,1445.53 1131.89,1445.44 1132.77,1445.58 1133.65,1445.62 1134.54,1445.48 1135.42,1445.41 1136.3,1445.72 1137.18,1445.62 1138.06,1445.72 1138.94,1445.57 1139.82,1445.63 1140.71,1445.72 1141.59,1445.72 1142.47,1445.58 1143.35,1445.28 1144.23,1445.72 1145.11,1445.72 1145.99,1445.72 1146.88,1445.72 1147.76,1445.43 1148.64,1445.72 1149.52,1445.28 1150.4,1445.35 1151.28,1445.65 1152.16,1445.59 1153.05,1445.72 1153.93,1445.44 1154.81,1445.41 1155.69,1445.28 1156.57,1445.43 1157.45,1445.44 1158.33,1445.72 1159.22,1445.38 1160.1,1445.69 1160.98,1445.52 1161.86,1445.28 1162.74,1445.34 1163.62,1445.72 1164.5,1442.84 1165.39,1443.92 1166.27,1443.49 1167.15,1443.64 1168.03,1445.06 1168.91,1441.45 1169.79,1445.09 1170.67,1445.72 1171.56,1445.05 1172.44,1444.42 1173.32,1445.72 1174.2,1445.04 1175.08,1444.14 1175.96,1443.86 1176.84,1443.73 1177.73,1445.48 1178.61,1445.05 1179.49,1444.9 1180.37,1442.76 1181.25,1443.38 1182.13,1443.13 1183.01,1445.72 1183.9,1444.82 1184.78,1444.07 1185.66,1445.72 1186.54,1445.72 1187.42,1443.83 1188.3,1445.72 1189.19,1438.03 1190.07,1443.6 1190.95,1445.72 1191.83,1445.72 1192.71,1445.72 1193.59,1442.8 1194.47,1445.72 1195.36,1443.07 1196.24,1445.72 1197.12,1445.72 1198,1445.72 1198.88,1443.75 1199.76,1445.72 1200.64,1445.72 1201.53,1445.72 1202.41,1444.92 1203.29,1445.72 1204.17,1445.53 1205.05,1443.75 1205.93,1445.72 1206.81,1443.47 1207.7,1444.63 1208.58,1443.83 1209.46,1442.33 1210.34,1443.65 1211.22,1445.44 1212.1,1443.97 1212.98,1436.94 1213.87,1445.55 1214.75,1445.38 1215.63,1444.96 1216.51,1445.72 1217.39,1444.31 1218.27,1445.26 1219.15,1444.28 1220.04,1443.68 1220.92,1443.29 1221.8,1443.68 1222.68,1445.72 1223.56,1445.71 1224.44,1445.1 1225.32,1442.91 1226.21,1443.2 1227.09,1444.28 1227.97,1442.93 1228.85,1438.39 1229.73,1444.22 1230.61,1445.72 1231.49,1445.72 1232.38,1443.88 1233.26,1443.75 1234.14,1444.23 1235.02,1443.63 1235.9,1443.21 1236.78,1443.96 1237.66,1445.72 1238.55,1444.22 1239.43,1444.9 1240.31,1441.7 1241.19,1443.16 1242.07,1442.6 1242.95,1445.72 1243.83,1445.72 1244.72,1445.21 1245.6,1443.12 1246.48,1443.65 1247.36,1443.97 1248.24,1444.04 1249.12,1445.01 1250,1443.8 1250.89,1445.72 1251.77,1444.62 1252.65,1442.88 1253.53,1443.97 1254.41,1445.72 1255.29,1445.72 1256.17,1444.18 1257.06,1445.64 1257.94,1445.37 1258.82,1445.72 1259.7,1445.33 1260.58,1443.26 1261.46,1445.72 1262.34,1445.71 1263.23,1445.72 1264.11,1445.72 1264.99,1445.72 1265.87,1445.49 1266.75,1445.72 1267.63,1442.86 1268.51,1443.62 1269.4,1443.52 1270.28,1445.72 1271.16,1445.49 1272.04,1443.6 1272.92,1445.46 1273.8,1444.29 1274.68,1445.72 1275.57,1445.54 1276.45,1445.72 1277.33,1443.29 1278.21,1444.08 1279.09,1445.72 1279.97,1445.72 1280.85,1444.14 1281.74,1443.27 1282.62,1445.72 1283.5,1443.64 1284.38,1445.72 1285.26,1443.55 1286.14,1445.24 1287.02,1442.79 1287.91,1445.72 1288.79,1444.81 1289.67,1445.72 1290.55,1443.05 1291.43,1440.5 1292.31,1442.1 1293.19,1445.72 1294.08,1445.72 1294.96,1445.72 1295.84,1443.41 1296.72,1439.4 1297.6,1445.72 1298.48,1445.72 1299.36,1442.01 1300.25,1443.97 1301.13,1445.72 1302.01,1445.71 1302.89,1445.72 1303.77,1443.74 1304.65,1441.99 1305.53,1445.72 1306.42,1443.21 1307.3,1442.97 1308.18,1445.72 1309.06,1443.15 1309.94,1445.19 1310.82,1445.72 1311.7,1443.92 1312.59,1445.7 1313.47,1444.22 1314.35,1443.8 1315.23,1445.72 1316.11,1445.72 1316.99,1445.26 1317.87,1443.22 1318.76,1444.57 1319.64,1445.72 1320.52,1445.72 1321.4,1441.53 1322.28,1445.72 1323.16,1445.72 1324.04,1444.72 1324.93,1443.9 1325.81,1445.29 1326.69,1445.72 1327.57,1445.72 1328.45,1445.72 1329.33,1443.33 1330.21,1443.02 1331.1,1445.72 1331.98,1443.25 1332.86,1444.02 1333.74,1441.9 1334.62,1443.91 1335.5,1443.79 1336.38,1443.62 1337.27,1443.74 1338.15,1443.22 1339.03,1444.16 1339.91,1444.77 1340.79,1441.17 1341.67,1445.72 1342.55,1445.72 1343.44,1443.57 1344.32,1445.72 1345.2,1443.4 1346.08,1445.72 1346.96,1443.74 1347.84,1443.04 1348.72,1445.27 1349.61,1445.72 1350.49,1443.93 1351.37,1445.72 1352.25,1444.52 1353.13,1441.7 1354.01,1443.84 1354.89,1444.11 1355.78,1445.72 1356.66,1445.4 1357.54,1445.72 1358.42,1444.12 1359.3,1445.72 1360.18,1445.3 1361.06,1445.72 1361.95,1444.39 1362.83,1444.46 1363.71,1442.04 1364.59,1443.21 1365.47,1442.46 1366.35,1445.71 1367.23,1445.72 1368.12,1445.72 1369,1443.38 1369.88,1443.43 1370.76,1445.72 1371.64,1443.99 1372.52,1445.51 1373.4,1443.57 1374.29,1442.93 1375.17,1442.01 1376.05,1442.97 1376.93,1444.2 1377.81,1445.72 1378.69,1443.97 1379.57,1445.71 1380.46,1444.08 1381.34,1443.93 1382.22,1442.99 1383.1,1443.88 1383.98,1445.14 1384.86,1440.24 1385.74,1444.04 1386.63,1443.81 1387.51,1442.46 1388.39,1443.85 1389.27,1445.41 1390.15,1445.72 1391.03,1443.94 1391.91,1443.95 1392.8,1445.72 1393.68,1444.13 1394.56,1444.22 1395.44,1444.08 1396.32,1443.84 1397.2,1445.72 1398.08,1445.72 1398.97,1442.96 1399.85,1445.47 1400.73,1442.89 1401.61,1443.37 1402.49,1443.66 1403.37,1444.57 1404.25,1445.72 1405.14,1445.66 1406.02,1444.63 1406.9,1445.72 1407.78,1444.24 1408.66,1444.92 1409.54,1444.15 1410.42,1445.72 1411.31,1443.63 1412.19,1444.73 1413.07,1443.2 1413.95,1443.57 1414.83,1443.49 1415.71,1445.34 1416.59,1444.63 1417.48,1440.94 1418.36,1443.99 1419.24,1443.05 1420.12,1445.43 1421,1444.17 1421.88,1445.72 1422.76,1445.08 1423.65,1443.3 1424.53,1444.16 1425.41,1445.72 1426.29,1443.78 1427.17,1443.91 1428.05,1445.72 1428.93,1445.44 1429.82,1445.72 1430.7,1445.72 1431.58,1445.62 1432.46,1444.2 1433.34,1444.09 1434.22,1445.72 1435.1,1445.72 1435.99,1444.59 1436.87,1445.72 1437.75,1442.33 1438.63,1445.72 1439.51,1445.72 1440.39,1445.59 1441.27,1443.22 1442.16,1445.47 1443.04,1442.1 1443.92,1445.72 1444.8,1445.44 1445.68,1445.72 1446.56,1443.11 1447.44,1445.72 1448.33,1445.43 1449.21,1442.15 1450.09,1445.6 1450.97,1442.73 1451.85,1443.35 1452.73,1443.58 1453.61,1443.37 1454.5,1442.88 1455.38,1443.78 1456.26,1445.13 1457.14,1445.72 1458.02,1443.94 1458.9,1445.72 1459.78,1444.24 1460.67,1445.72 1461.55,1443.1 1462.43,1442.22 1463.31,1445.72 1464.19,1442.97 1465.07,1445.72 1465.95,1445.71 1466.84,1445.72 1467.72,1443.08 1468.6,1443.4 1469.48,1445.72 1470.36,1445.28 1471.24,1444.19 1472.13,1445.72 1473.01,1441.71 1473.89,1444.06 1474.77,1445.58 1475.65,1444.96 1476.53,1445.72 1477.41,1445.72 1478.3,1442.9 1479.18,1445.72 1480.06,1445.72 1480.94,1443.3 1481.82,1444.29 1482.7,1445.72 1483.58,1444.23 1484.47,1444.36 1485.35,1445.72 1486.23,1443.95 1487.11,1445.15 1487.99,1445.67 1488.87,1443.35 1489.75,1445.72 1490.64,1444.67 1491.52,1445.72 1492.4,1445.56 1493.28,1444.66 1494.16,1443.85 1495.04,1439.11 1495.92,1444.03 1496.81,1445.72 1497.69,1445.72 1498.57,1445.72 1499.45,1444.96 1500.33,1444.14 1501.21,1443.24 1502.09,1444.19 1502.98,1444.54 1503.86,1444.26 1504.74,1443.89 1505.62,1445.72 1506.5,1445.22 1507.38,1445.72 1508.26,1443.59 1509.15,1443.79 1510.03,1445.57 1510.91,1445.72 1511.79,1443.53 1512.67,1445.72 1513.55,1445.72 1514.43,1443.92 1515.32,1444.1 1516.2,1443.62 1517.08,1444.91 1517.96,1442.98 1518.84,1445.72 1519.72,1445.54 1520.6,1445.72 1521.49,1445.58 1522.37,1445.71 1523.25,1445.72 1524.13,1443.32 1525.01,1445.72 1525.89,1445.72 1526.77,1443.91 1527.66,1445.72 1528.54,1444.74 1529.42,1443.68 1530.3,1442.33 1531.18,1442.91 1532.06,1442.11 1532.94,1445.5 1533.83,1444.85 1534.71,1445.72 1535.59,1445.32 1536.47,1443.91 1537.35,1445.72 1538.23,1442.87 1539.11,1443.15 1540,1444.02 1540.88,1443.87 1541.76,1444.83 1542.64,1443.96 1543.52,1444.22 1544.4,1445.45 1545.28,1445.65 1546.17,1444.09 1547.05,1443.67 1547.93,1445.15 1548.81,1443.04 1549.69,1445.72 1550.57,1444.63 1551.45,1445.72 1552.34,1445.72 1553.22,1445.72 1554.1,1445.72 1554.98,1442.91 1555.86,1445.72 1556.74,1442.86 1557.62,1445.4 1558.51,1443.1 1559.39,1441.6 1560.27,1445.45 1561.15,1445.72 1562.03,1445.72 1562.91,1445.72 1563.79,1445.72 1564.68,1445.72 1565.56,1443.16 1566.44,1443.37 1567.32,1443.72 1568.2,1445.72 1569.08,1445.72 1569.96,1445.72 1570.85,1444.19 1571.73,1444.37 1572.61,1444.04 1573.49,1444.14 1574.37,1445.72 1575.25,1445.46 1576.13,1443.78 1577.02,1444.22 1577.9,1445.72 1578.78,1443.27 1579.66,1445.72 1580.54,1444.33 1581.42,1445.51 1582.3,1445.44 1583.19,1443.61 1584.07,1445.72 1584.95,1444.26 1585.83,1445.72 1586.71,1445.72 1587.59,1443.54 1588.47,1445.72 1589.36,1443.92 1590.24,1444.44 1591.12,1443.23 1592,1444.47 1592.88,1445.2 1593.76,1445.28 1594.64,1442.65 1595.53,1445.21 1596.41,1444.27 1597.29,1445.4 1598.17,1443.12 1599.05,1445.72 1599.93,1445.72 1600.81,1444.11 1601.7,1443.51 1602.58,1445.72 1603.46,1440.64 1604.34,1442.86 1605.22,1445.72 1606.1,1442.88 1606.98,1445.72 1607.87,1444.03 1608.75,1444.61 1609.63,1443.97 1610.51,1445.72 1611.39,1444.32 1612.27,1445.72 1613.15,1442.63 1614.04,1443.36 1614.92,1443.87 1615.8,1445.72 1616.68,1423.58 1617.56,1440.83 1618.44,1426.79 1619.32,1416.38 1620.21,1424.86 1621.09,1443.16 1621.97,1422.6 1622.85,1423.07 1623.73,1428.81 1624.61,1439.24 1625.49,1425.9 1626.38,1424.51 1627.26,1431.89 1628.14,1422.49 1629.02,1445.72 1629.9,1445.72 1630.78,1442.79 1631.66,1419.34 1632.55,1419.09 1633.43,1415.7 1634.31,1423.83 1635.19,1416.37 1636.07,1416.74 1636.95,1408.06 1637.83,1423.33 1638.72,1421.58 1639.6,1426.57 1640.48,1442.46 1641.36,1429.05 1642.24,1445.72 1643.12,1445.72 1644,1359.18 1644.89,1445.72 1645.77,1418.45 1646.65,1443.4 1647.53,1405.83 1648.41,1420.47 1649.29,1428.49 1650.17,1445.72 1651.06,1425.78 1651.94,1420.55 1652.82,1422.56 1653.7,1440.37 1654.58,1430.32 1655.46,1408.95 1656.34,1428.67 1657.23,1427.97 1658.11,1420.39 1658.99,1424.71 1659.87,1407.52 1660.75,1426.57 1661.63,1427.94 1662.51,1404.55 1663.4,1429.43 1664.28,1427.63 1665.16,1433.24 1666.04,1424.17 1666.92,1415.6 1667.8,1424.79 1668.68,1445.72 1669.57,1413.44 1670.45,1440.16 1671.33,1419.13 1672.21,1422.44 1673.09,1419.47 1673.97,1426.12 1674.85,1403.18 1675.74,1418.26 1676.62,1445.72 1677.5,1398.03 1678.38,1417.89 1679.26,1445.72 1680.14,1445.72 1681.02,1420.57 1681.91,1430.15 1682.79,1422.87 1683.67,1445.72 1684.55,1428.62 1685.43,1430.4 1686.31,1445.72 1687.19,1420.42 1688.08,1377.5 1688.96,1414.34 1689.84,1442.56 1690.72,1412.96 1691.6,1443.97 1692.48,1422.81 1693.36,1424.14 1694.25,1427.52 1695.13,1418.17 1696.01,1428.19 1696.89,1416.31 1697.77,1419.41 1698.65,1440.18 1699.53,1427.95 1700.42,1416.87 1701.3,1426.74 1702.18,1406.12 1703.06,1426.52 1703.94,1420.1 1704.82,1417.2 1705.7,1426.35 1706.59,1420.83 1707.47,1421.14 1708.35,1422.99 1709.23,1414.92 1710.11,1417.67 1710.99,1404.17 1711.87,1418.97 1712.76,1424.55 1713.64,1412.8 1714.52,1426.11 1715.4,1424.7 1716.28,1441.59 1717.16,1426.67 1718.04,1426.61 1718.93,1420.26 1719.81,1445.72 1720.69,1445.72 1721.57,1441.28 1722.45,1413.12 1723.33,1414.45 1724.21,1422.79 1725.1,1386.94 1725.98,1445.72 1726.86,1426.87 1727.74,1421.72 1728.62,1445.72 1729.5,1427.76 1730.38,1415.3 1731.27,1425.98 1732.15,1418.09 1733.03,1442.95 1733.91,1414.67 1734.79,1417.98 1735.67,1445.72 1736.55,1445.72 1737.44,1405.98 1738.32,1440.23 1739.2,1420.87 1740.08,1445.72 1740.96,1427.59 1741.84,1411.16 1742.72,1425.88 1743.61,1430.01 1744.49,1428.31 1745.37,1437.82 1746.25,1433.97 1747.13,1442.17 1748.01,1442.43 1748.89,1429.18 1749.78,1416.12 1750.66,1427.07 1751.54,1428.19 1752.42,1431.73 1753.3,1424.65 1754.18,1428.74 1755.07,1418.42 1755.95,1424.42 1756.83,1413.27 1757.71,1440.98 1758.59,1429.34 1759.47,1445.72 1760.35,1442.36 1761.24,1445.72 1762.12,1423.19 1763,1425.42 1763.88,1407.28 1764.76,1445.72 1765.64,1414.71 1766.52,1413.94 1767.41,1429.06 1768.29,1410.57 1769.17,1361.86 1770.05,1445.72 1770.93,1427.82 1771.81,1445.72 1772.69,1438.46 1773.58,1440.86 1774.46,1416.38 1775.34,1423.89 1776.22,1420.05 1777.1,1423.79 1777.98,1432.08 1778.86,1426.51 1779.75,1420.5 1780.63,1421.47 1781.51,1384.53 1782.39,1423.9 1783.27,1445.72 1784.15,1415.11 1785.03,1429.04 1785.92,1420.34 1786.8,1411.36 1787.68,1416.94 1788.56,1426.75 1789.44,1416.33 1790.32,1421.29 1791.2,1427.14 1792.09,1426.05 1792.97,1425.79 1793.85,1432.86 1794.73,1427.66 1795.61,1423.99 1796.49,1423.36 1797.37,1419.49 1798.26,1421.53 1799.14,1445.72 1800.02,1443.12 1800.9,1405.73 1801.78,1443.04 1802.66,1428.77 1803.54,1417.78 1804.43,1417.7 1805.31,1423.61 1806.19,1426.06 1807.07,1445.72 1807.95,1423.48 1808.83,1424.1 1809.71,1445.72 1810.6,1423.08 1811.48,1443.01 1812.36,1421.79 1813.24,1445.72 1814.12,1417.57 1815,1441.78 1815.88,1424.17 1816.77,1413.09 1817.65,1419.44 1818.53,1421.03 1819.41,1445.72 1820.29,1445.72 1821.17,1406.72 1822.05,1424.65 1822.94,1418.06 1823.82,1398.79 1824.7,1428.26 1825.58,1428.32 1826.46,1425.2 1827.34,1441.72 1828.22,1420.94 1829.11,1425.54 1829.99,1445.72 1830.87,1428.43 1831.75,1424.35 1832.63,1427.3 1833.51,1421.63 1834.39,1424.59 1835.28,1442.36 1836.16,1427.09 1837.04,1424.7 1837.92,1427.1 1838.8,1416.83 1839.68,1442.01 1840.56,1422.61 1841.45,1424.16 1842.33,1424.85 1843.21,1427.75 1844.09,1414.85 1844.97,1428.67 1845.85,1445.72 1846.73,1428.38 1847.62,1411.33 1848.5,1427.33 1849.38,1423.17 1850.26,1444.52 1851.14,1426.66 1852.02,1445.72 1852.9,1422.4 1853.79,1414.83 1854.67,1445.72 1855.55,1445.72 1856.43,1436.56 1857.31,1419.71 1858.19,1415.71 1859.07,1445.72 1859.96,1421.39 1860.84,1422.72 1861.72,1442.42 1862.6,1424.89 1863.48,1417.83 1864.36,1439.79 1865.24,1425.29 1866.13,1445.72 1867.01,1404.42 1867.89,1421.27 1868.77,1423.39 1869.65,1429.95 1870.53,1421.94 1871.41,1425.98 1872.3,1445.72 1873.18,1431.62 1874.06,1416.45 1874.94,1439.94 1875.82,1409.95 1876.7,1424.03 1877.58,1414.72 1878.47,1422.16 1879.35,1445.72 1880.23,1416.84 1881.11,1429.27 1881.99,1425.09 1882.87,1429.34 1883.75,1444.02 1884.64,1442.97 1885.52,1427.6 1886.4,1424.46 1887.28,1445.72 1888.16,1429.06 1889.04,1440.83 1889.92,1426.58 1890.81,1445.72 1891.69,1408.64 1892.57,1423.67 1893.45,1414.68 1894.33,1441.6 1895.21,1441.22 1896.09,1424.47 1896.98,1432.76 1897.86,1367.43 1898.74,1442.77 1899.62,1415.83 1900.5,1443.16 1901.38,1428.49 1902.26,1445.72 1903.15,1445.72 1904.03,1411.23 1904.91,1445.72 1905.79,1445.72 1906.67,1418.91 1907.55,1408.42 1908.43,1413.84 1909.32,1423.15 1910.2,1429.51 1911.08,1418.7 1911.96,1417.67 1912.84,1445.72 1913.72,1418.89 1914.6,1423 1915.49,1415.93 1916.37,1422.15 1917.25,1427.7 1918.13,1423.49 1919.01,1409.36 1919.89,1427.2 1920.77,1422.58 1921.66,1425.8 1922.54,1426.87 1923.42,1435.79 1924.3,1424.94 1925.18,1429.44 1926.06,1441.64 1926.94,1427.4 1927.83,1445.72 1928.71,1415.56 1929.59,1413.42 1930.47,1421.49 1931.35,1431.07 1932.23,1429.95 1933.11,1413.38 1934,1445.72 1934.88,1425.68 1935.76,1445.72 1936.64,1412.41 1937.52,1445.72 1938.4,1441.36 1939.28,1425.3 1940.17,1443.29 1941.05,1426.81 1941.93,1445.72 1942.81,1442.1 1943.69,1423.15 1944.57,1416.43 1945.45,1445.72 1946.34,1445.72 1947.22,1423.81 1948.1,1435.21 1948.98,1415.77 1949.86,1425.83 1950.74,1442.03 1951.62,1417.35 1952.51,1428.45 1953.39,1433.34 1954.27,1421.16 1955.15,1445.72 1956.03,1424.93 1956.91,1428.91 1957.79,1405.91 1958.68,1417.67 1959.56,1428.29 1960.44,1424.9 1961.32,1421.8 1962.2,1398.67 1963.08,1427.88 1963.96,1428.11 1964.85,1419.82 1965.73,1425.15 1966.61,1429.45 1967.49,1445.72 1968.37,1419.64 1969.25,1445.72 1970.13,1422.87 1971.02,1430.21 1971.9,1438.69 1972.78,1404.69 1973.66,1441.02 1974.54,1414.77 1975.42,1436.22 1976.3,1406.92 1977.19,1381.58 1978.07,1417.2 1978.95,1424.89 1979.83,1445.72 1980.71,1419.15 1981.59,1445.72 1982.47,1420.87 1983.36,1416.22 1984.24,1445.72 1985.12,1415.23 1986,1429.01 1986.88,1436.94 1987.76,1445.72 1988.64,1422.84 1989.53,1405.65 1990.41,1414.94 1991.29,1418.72 1992.17,1416.39 1993.05,1445.72 1993.93,1430.99 1994.81,1414.56 1995.7,1423.15 1996.58,1428.45 1997.46,1426.96 1998.34,1420.79 1999.22,1422.35 2000.1,1445.72 2000.98,1427.49 2001.87,1397.83 2002.75,1438.03 2003.63,1421.09 2004.51,1442.32 2005.39,1422.3 2006.27,1412.68 2007.15,1417.64 2008.04,1445.72 2008.92,1425 2009.8,1441.63 2010.68,1445.72 2011.56,1422.7 2012.44,1429.03 2013.32,1420.03 2014.21,1420.83 2015.09,1417.06 2015.97,1445.72 2016.85,1407.99 2017.73,1442.97 2018.61,1413.08 2019.49,1421.42 2020.38,1418.53 2021.26,1416.61 2022.14,1422.64 2023.02,1441.32 2023.9,1436.98 2024.78,1423.7 2025.66,1416.37 2026.55,1441.71 2027.43,1445.72 2028.31,1429.18 2029.19,1409.49 2030.07,1422.74 2030.95,1419.78 2031.83,1421.39 2032.72,1445.72 2033.6,1440.47 2034.48,1423.94 2035.36,1421.02 2036.24,1433.27 2037.12,1424.98 2038,1420.8 2038.89,1418.05 2039.77,1440.82 2040.65,1433.77 2041.53,1445.72 2042.41,1428.48 2043.29,1422.93 2044.18,1442.05 2045.06,1445.72 2045.94,1427.74 2046.82,1445.72 2047.7,1445.72 2048.58,1445.72 2049.46,1417.44 2050.35,1439.91 2051.23,1422.59 2052.11,1423.93 2052.99,1415.85 2053.87,1417.71 2054.75,1429.41 2055.63,1421.55 2056.52,1419.72 2057.4,1430.18 2058.28,1427.39 2059.16,1445.72 2060.04,1406.14 2060.92,1445.72 2061.8,1445.72 2062.69,1429.22 2063.57,1422.26 2064.45,1420.87 2065.33,1421.46 2066.21,1428.34 2067.09,1041.25 2067.97,952.254 2068.86,980.606 2069.74,1024.4 2070.62,909.422 2071.5,836.781 2072.38,970.311 2073.26,1050.34 2074.14,733.63 2075.03,939.583 2075.91,695.181 2076.79,1330.03 2077.67,1441.86 2078.55,786.843 2079.43,871.016 2080.31,1390.55 2081.2,904.545 2082.08,1444.92 2082.96,875.885 2083.84,927.216 2084.72,855.344 2085.6,957.67 2086.48,1445.71 2087.37,950.189 2088.25,885.851 2089.13,949.347 2090.01,1075.64 2090.89,1355.45 2091.77,1445.71 2092.65,1092.62 2093.54,1445.71 2094.42,1445.71 2095.3,922.128 2096.18,1076.38 2097.06,758.906 2097.94,1055.42 2098.82,1445.72 2099.71,1396.85 2100.59,1445.72 2101.47,941.437 2102.35,1445.72 2103.23,1104.61 2104.11,1445.72 2104.99,1075.93 2105.88,1445.71 2106.76,923.629 2107.64,850.254 2108.52,1026.26 2109.4,1369.98 2110.28,813.046 2111.16,871.229 2112.05,1250.3 2112.93,989.479 2113.81,886.552 2114.69,1437.45 2115.57,1110.75 2116.45,1035.67 2117.33,1418.46 2118.22,1143.96 2119.1,803.147 2119.98,1084.36 2120.86,661.947 2121.74,666.744 2122.62,647.228 2123.5,1442.14 2124.39,871.116 2125.27,1004.4 2126.15,883.978 2127.03,945.139 2127.91,879.349 2128.79,756.687 2129.67,1034.11 2130.56,895.333 2131.44,818.713 2132.32,1066.73 2133.2,1328.49 2134.08,786.06 2134.96,1429.7 2135.84,1048.83 2136.73,1203.92 2137.61,1435.82 2138.49,1405.59 2139.37,879.606 2140.25,1000.24 2141.13,945.881 2142.01,1075.79 2142.9,1136.47 2143.78,800.416 2144.66,813.773 2145.54,1063.23 2146.42,1445.71 2147.3,949.063 2148.18,1062.97 2149.07,1445.71 2149.95,1411.14 2150.83,935.119 2151.71,1445.71 2152.59,1445.71 2153.47,1201.71 2154.35,996.312 2155.24,772.697 2156.12,928.603 2157,920.11 2157.88,811.432 2158.76,938.396 2159.64,1254.92 2160.52,947.574 2161.41,934.662 2162.29,842.627 2163.17,899.439 2164.05,1146.07 2164.93,888.813 2165.81,1445.07 2166.69,929.694 2167.58,1315.98 2168.46,945.7 2169.34,1146.59 2170.22,1445.71 2171.1,931.32 2171.98,1445.71 2172.86,1336.55 2173.75,717.056 2174.63,701.298 2175.51,808.43 2176.39,861.456 2177.27,1072.36 2178.15,1172.15 2179.03,1342.48 2179.92,953.267 2180.8,1445.7 2181.68,968.563 2182.56,816.811 2183.44,1445.72 2184.32,1445.72 2185.2,945.427 2186.09,1440.65 2186.97,989.711 2187.85,1025.62 2188.73,1039.28 2189.61,755.555 2190.49,1412.72 2191.37,1240.18 2192.26,863.881 2193.14,1316.82 2194.02,1063.19 2194.9,1445.72 2195.78,1041.28 2196.66,1223.59 2197.54,1042.4 2198.43,1445.71 2199.31,1445.72 2200.19,1186.48 2201.07,874.676 2201.95,805.913 2202.83,1371.09 2203.71,1131.08 2204.6,1443.7 2205.48,1052.62 2206.36,895.92 2207.24,1443.95 2208.12,1246.87 2209,890.979 2209.88,969.031 2210.77,752.821 2211.65,1433.87 2212.53,1123.31 2213.41,756.106 2214.29,926.697 2215.17,1348.43 2216.05,1302.73 2216.94,924.389 2217.82,1034.3 2218.7,1009.6 2219.58,837.149 2220.46,817.55 2221.34,1198.32 2222.22,1051.95 2223.11,1445.71 2223.99,1445.72 2224.87,1138.17 2225.75,992.477 2226.63,920.031 2227.51,1425.3 2228.39,1445.71 2229.28,775.282 2230.16,1445.71 2231.04,87.9763 2231.92,1442.11 2232.8,845.275 2233.68,1141.15 2234.56,1445.71 2235.45,1256.72 2236.33,964.38 2237.21,1242.73 2238.09,1432.76 2238.97,1370.12 2239.85,843.547 2240.73,1334.36 2241.62,1422.8 2242.5,901.813 2243.38,1349.16 2244.26,1060.75 2245.14,1445.71 2246.02,1059.01 2246.9,936.36 2247.79,936.759 2248.67,891.925 2249.55,1427.83 2250.43,991.108 2251.31,1429.55 2252.19,689.52 2253.07,891.807 2253.96,967.899 2254.84,587.421 2255.72,1006.41 2256.6,811.742 2257.48,799.296 2258.36,1445.72 2259.24,953.111 2260.13,815.337 2261.01,964.769 2261.89,1405.19 2262.77,1022.8 2263.65,844.68 2264.53,917.866 2265.41,1053.54 2266.3,1022.32 2267.18,994.385 2268.06,1444.03 2268.94,982.189 2269.82,940.08 2270.7,935.781 2271.58,832.09 2272.47,922.252 2273.35,998.706 2274.23,950.939 2275.11,836.429 2275.99,1001.06 2276.87,920.203 2277.75,1076.59 2278.64,1444.11 2279.52,1445.71 2280.4,958.474 2281.28,819.09 2282.16,904.48 2283.04,1058.21 2283.92,962.626 2284.81,932.58 2285.69,1432.89 2286.57,877.032 2287.45,1034.17 2288.33,1445.71 2289.21,767.942 2290.09,929.965 2290.98,1411.36 2291.86,1430.2 "></polyline>
<polyline clip-path="url(#clip062)" style="stroke:#e26f46; stroke-linecap:round; stroke-linejoin:round; stroke-width:4; stroke-opacity:1; fill:none" points="261.917,1445.72 262.799,1445.72 263.68,1445.72 264.562,1445.72 265.443,1445.72 266.325,1445.38 267.206,1445.72 268.088,1445.6 268.969,1445.29 269.85,1445.43 270.732,1445.55 271.613,1445.72 272.495,1445.61 273.376,1445.72 274.258,1445.7 275.139,1445.63 276.02,1445.72 276.902,1445.72 277.783,1445.26 278.665,1445.72 279.546,1445.67 280.428,1445.37 281.309,1445.42 282.19,1445.72 283.072,1445.72 283.953,1445.71 284.835,1445.5 285.716,1445.38 286.598,1445.72 287.479,1445.72 288.36,1445.28 289.242,1445.71 290.123,1445.72 291.005,1445.7 291.886,1445.72 292.768,1445.37 293.649,1445.72 294.531,1445.53 295.412,1445.52 296.293,1445.59 297.175,1445.72 298.056,1445.39 298.938,1445.35 299.819,1445.72 300.701,1445.72 301.582,1445.65 302.463,1445.72 303.345,1445.72 304.226,1445.31 305.108,1445.65 305.989,1445.72 306.871,1445.55 307.752,1445.72 308.633,1445.72 309.515,1445.2 310.396,1445.72 311.278,1445.72 312.159,1445.57 313.041,1445.6 313.922,1445.72 314.803,1445.72 315.685,1445.3 316.566,1445.62 317.448,1445.72 318.329,1445.55 319.211,1445.72 320.092,1445.37 320.974,1445.72 321.855,1445.61 322.736,1445.54 323.618,1445.72 324.499,1445.57 325.381,1445.26 326.262,1445.43 327.144,1445.72 328.025,1445.72 328.906,1445.72 329.788,1445.72 330.669,1445.72 331.551,1445.46 332.432,1445.72 333.314,1445.37 334.195,1445.72 335.076,1445.62 335.958,1445.26 336.839,1445.46 337.721,1445.6 338.602,1445.72 339.484,1445.72 340.365,1445.53 341.246,1445.72 342.128,1445.61 343.009,1445.53 343.891,1445.6 344.772,1445.36 345.654,1445.49 346.535,1445.43 347.416,1445.64 348.298,1445.64 349.179,1445.72 350.061,1445.72 350.942,1445.72 351.824,1445.45 352.705,1445.55 353.587,1445.23 354.468,1445.72 355.349,1445.72 356.231,1445.56 357.112,1445.72 357.994,1445.5 358.875,1445.72 359.757,1445.31 360.638,1445.72 361.519,1445.3 362.401,1445.72 363.282,1445.59 364.164,1445.53 365.045,1445.28 365.927,1445.72 366.808,1445.72 367.689,1445.44 368.571,1445.72 369.452,1445.72 370.334,1445.38 371.215,1445.58 372.097,1445.72 372.978,1445.41 373.859,1445.72 374.741,1445.42 375.622,1445.37 376.504,1445.32 377.385,1445.59 378.267,1445.72 379.148,1445.32 380.03,1445.72 380.911,1445.72 381.792,1445.54 382.674,1445.33 383.555,1445.72 384.437,1445.45 385.318,1445.69 386.2,1445.3 387.081,1445.72 387.962,1445.33 388.844,1445.72 389.725,1445.72 390.607,1445.58 391.488,1445.6 392.37,1445.72 393.251,1445.68 394.132,1445.72 395.014,1445.49 395.895,1445.72 396.777,1445.72 397.658,1445.62 398.54,1445.72 399.421,1445.72 400.302,1445.26 401.184,1445.56 402.065,1445.35 402.947,1445.72 403.828,1445.71 404.71,1445.62 405.591,1445.38 406.473,1445.72 407.354,1445.3 408.235,1445.65 409.117,1445.34 409.998,1445.72 410.88,1445.22 411.761,1445.3 412.643,1445.72 413.524,1445.56 414.405,1445.59 415.287,1445.72 416.168,1445.72 417.05,1445.72 417.931,1445.32 418.813,1445.41 419.694,1445.5 420.575,1445.72 421.457,1445.72 422.338,1445.72 423.22,1445.2 424.101,1445.72 424.983,1445.72 425.864,1445.21 426.745,1445.72 427.627,1445.47 428.508,1445.72 429.39,1445.72 430.271,1445.69 431.153,1445.35 432.034,1445.72 432.916,1445.4 433.797,1445.72 434.678,1445.72 435.56,1445.72 436.441,1445.72 437.323,1445.53 438.204,1445.72 439.086,1445.7 439.967,1445.38 440.848,1445.39 441.73,1445.34 442.611,1445.72 443.493,1445.72 444.374,1445.5 445.256,1445.72 446.137,1445.37 447.018,1445.37 447.9,1445.72 448.781,1445.33 449.663,1445.72 450.544,1445.45 451.426,1445.26 452.307,1445.54 453.188,1445.54 454.07,1445.32 454.951,1445.25 455.833,1445.72 456.714,1445.72 457.596,1445.25 458.477,1445.31 459.358,1445.52 460.24,1445.72 461.121,1445.72 462.003,1445.72 462.884,1445.42 463.766,1445.57 464.647,1445.53 465.529,1445.22 466.41,1445.72 467.291,1445.72 468.173,1445.71 469.054,1445.33 469.936,1445.36 470.817,1445.58 471.699,1445.72 472.58,1445.42 473.461,1445.72 474.343,1445.14 475.224,1445.57 476.106,1445.72 476.987,1445.59 477.869,1445.72 478.75,1445.65 479.631,1445.72 480.513,1445.72 481.394,1445.72 482.276,1445.72 483.157,1445.72 484.039,1445.65 484.92,1445.49 485.801,1445.71 486.683,1445.26 487.564,1445.38 488.446,1445.72 489.327,1445.72 490.209,1445.72 491.09,1445.72 491.972,1445.72 492.853,1445.72 493.734,1445.65 494.616,1445.53 495.497,1445.7 496.379,1445.27 497.26,1445.72 498.142,1445.54 499.023,1445.72 499.904,1445.27 500.786,1445.72 501.667,1445.72 502.549,1445.48 503.43,1445.47 504.312,1445.54 505.193,1445.44 506.074,1445.48 506.956,1445.66 507.837,1445.54 508.719,1445.38 509.6,1445.62 510.482,1445.72 511.363,1445.66 512.244,1445.72 513.126,1445.72 514.007,1445.58 514.889,1445.38 515.77,1445.72 516.652,1445.72 517.533,1445.21 518.415,1445.72 519.296,1445.46 520.177,1445.62 521.059,1445.72 521.94,1445.66 522.822,1445.59 523.703,1445.5 524.585,1445.72 525.466,1445.72 526.347,1445.57 527.229,1445.46 528.11,1445.63 528.992,1445.72 529.873,1445.72 530.755,1445.56 531.636,1445.22 532.517,1445.72 533.399,1445.72 534.28,1445.72 535.162,1445.51 536.043,1445.72 536.925,1445.72 537.806,1445.72 538.687,1445.72 539.569,1445.63 540.45,1445.63 541.332,1445.72 542.213,1445.69 543.095,1445.53 543.976,1445.72 544.857,1445.72 545.739,1445.57 546.62,1445.5 547.502,1445.24 548.383,1445.49 549.265,1445.62 550.146,1445.72 551.028,1445.23 551.909,1445.52 552.79,1445.33 553.672,1445.72 554.553,1445.62 555.435,1445.72 556.316,1445.59 557.198,1445.72 558.079,1445.72 558.96,1445.46 559.842,1445.58 560.723,1445.72 561.605,1445.72 562.486,1445.49 563.368,1445.12 564.249,1445.72 565.13,1445.25 566.012,1445.42 566.893,1445.35 567.775,1445.41 568.656,1445.72 569.538,1445.36 570.419,1445.46 571.3,1445.72 572.182,1445.72 573.063,1445.54 573.945,1445.67 574.826,1445.72 575.708,1445.72 576.589,1445.53 577.471,1445.72 578.352,1445.72 579.233,1445.71 580.115,1445.72 580.996,1445.72 581.878,1445.72 582.759,1445.72 583.641,1445.38 584.522,1445.72 585.403,1445.72 586.285,1445.72 587.166,1445.71 588.048,1445.72 588.929,1445.57 589.811,1445.72 590.692,1445.45 591.573,1445.72 592.455,1445.72 593.336,1445.72 594.218,1445.72 595.099,1445.57 595.981,1445.67 596.862,1445.61 597.743,1445.05 598.625,1445.72 599.506,1445.33 600.388,1445.57 601.269,1445.72 602.151,1445.72 603.032,1445.72 603.914,1445.72 604.795,1445.54 605.676,1445.52 606.558,1445.72 607.439,1445.62 608.321,1445.72 609.202,1445.72 610.084,1445.54 610.965,1445.45 611.846,1445.72 612.728,1445.72 613.609,1445.25 614.491,1445.72 615.372,1445.68 616.254,1445.72 617.135,1445.72 618.016,1445.72 618.898,1445.43 619.779,1445.4 620.661,1445.72 621.542,1445.72 622.424,1445.72 623.305,1445.72 624.186,1445.24 625.068,1445.47 625.949,1445.6 626.831,1445.71 627.712,1445.62 628.594,1445.31 629.475,1445.36 630.356,1445.3 631.238,1445.72 632.119,1445.72 633.001,1445.42 633.882,1445.72 634.764,1445.72 635.645,1445.61 636.527,1445.72 637.408,1445.36 638.289,1445.59 639.171,1445.72 640.052,1445.72 640.934,1445.44 641.815,1445.53 642.697,1445.59 643.578,1445.72 644.459,1445.72 645.341,1445.61 646.222,1445.32 647.104,1445.52 647.985,1445.54 648.867,1445.27 649.748,1445.31 650.629,1445.36 651.511,1445.72 652.392,1445.42 653.274,1445.65 654.155,1445.72 655.037,1445.72 655.918,1445.72 656.799,1445.72 657.681,1445.53 658.562,1445.42 659.444,1445.72 660.325,1445.72 661.207,1445.72 662.088,1445.47 662.97,1445.6 663.851,1445.67 664.732,1445.41 665.614,1445.31 666.495,1445.72 667.377,1445.42 668.258,1445.3 669.14,1445.72 670.021,1445.72 670.902,1445.72 671.784,1445.71 672.665,1445.58 673.547,1445.72 674.428,1445.72 675.31,1445.28 676.191,1445.72 677.072,1445.44 677.954,1445.72 678.835,1445.52 679.717,1445.72 680.598,1445.72 681.48,1445.55 682.361,1445.52 683.242,1445.72 684.124,1445.72 685.005,1445.69 685.887,1445.33 686.768,1445.15 687.65,1445.72 688.531,1445.5 689.413,1445.72 690.294,1445.29 691.175,1445.71 692.057,1445.25 692.938,1445.4 693.82,1445.58 694.701,1445.3 695.583,1445.72 696.464,1445.69 697.345,1445.26 698.227,1445.71 699.108,1445.55 699.99,1445.59 700.871,1445.72 701.753,1445.31 702.634,1445.72 703.515,1445.5 704.397,1445.72 705.278,1445.61 706.16,1445.72 707.041,1445.26 707.923,1445.71 708.804,1445.68 709.685,1445.72 710.567,1445.72 711.448,1445.72 712.33,1445.29 713.211,1445.41 714.093,1445.38 714.974,1445.21 715.855,1445.47 716.737,1445.72 717.618,1445.72 718.5,1445.72 719.381,1445.72 720.263,1445.33 721.144,1445.72 722.026,1445.72 722.907,1445.62 723.788,1445.39 724.67,1445.72 725.551,1445.72 726.433,1445.47 727.314,1445.72 728.196,1445.56 729.077,1445.54 729.958,1445.65 730.84,1445.71 731.721,1445.31 732.603,1445.26 733.484,1445.72 734.366,1445.59 735.247,1445.72 736.128,1445.72 737.01,1445.71 737.891,1445.62 738.773,1445.51 739.654,1445.61 740.536,1445.55 741.417,1445.36 742.298,1445.71 743.18,1445.72 744.061,1445.48 744.943,1445.46 745.824,1445.31 746.706,1445.72 747.587,1445.72 748.469,1445.48 749.35,1445.72 750.231,1445.72 751.113,1445.56 751.994,1445.63 752.876,1445.71 753.757,1445.72 754.639,1445.72 755.52,1445.72 756.401,1445.72 757.283,1445.5 758.164,1445.72 759.046,1445.72 759.927,1445.54 760.809,1445.51 761.69,1445.55 762.571,1445.72 763.453,1445.72 764.334,1445.45 765.216,1445.72 766.097,1445.35 766.979,1445.24 767.86,1445.43 768.741,1445.67 769.623,1445.64 770.504,1445.63 771.386,1445.72 772.267,1445.72 773.149,1445.72 774.03,1445.72 774.912,1445.61 775.793,1445.71 776.674,1445.66 777.556,1445.57 778.437,1445.34 779.319,1445.72 780.2,1445.31 781.082,1445.48 781.963,1445.72 782.844,1445.63 783.726,1445.72 784.607,1445.72 785.489,1445.52 786.37,1445.72 787.252,1445.28 788.133,1445.71 789.014,1445.72 789.896,1445.66 790.777,1445.72 791.659,1445.41 792.54,1445.41 793.422,1445.49 794.303,1445.72 795.184,1445.71 796.066,1445.63 796.947,1445.72 797.829,1445.47 798.71,1445.72 799.592,1445.72 800.473,1445.69 801.354,1445.65 802.236,1445.59 803.117,1445.39 803.999,1445.72 804.88,1445.72 805.762,1445.72 806.643,1445.72 807.525,1445.72 808.406,1445.46 809.287,1445.72 810.169,1445.72 811.05,1445.72 811.932,1445.72 812.813,1445.68 813.695,1445.72 814.576,1445.37 815.457,1445.72 816.339,1445.72 817.22,1445.72 818.102,1445.67 818.983,1445.27 819.865,1445.72 820.746,1445.72 821.627,1445.51 822.509,1445.65 823.39,1445.67 824.272,1445.28 825.153,1445.22 826.035,1445.34 826.916,1445.72 827.797,1445.48 828.679,1445.72 829.56,1445.59 830.442,1445.72 831.323,1445.71 832.205,1445.19 833.086,1445.72 833.968,1445.72 834.849,1445.43 835.73,1445.72 836.612,1445.41 837.493,1445.29 838.375,1445.29 839.256,1445.72 840.138,1445.38 841.019,1445.41 841.9,1445.28 842.782,1445.49 843.663,1445.58 844.545,1445.29 845.426,1445.44 846.308,1445.42 847.189,1445.51 848.07,1445.72 848.952,1445.72 849.833,1445.61 850.715,1445.49 851.596,1445.72 852.478,1445.18 853.359,1445.61 854.24,1445.72 855.122,1445.72 856.003,1445.72 856.885,1445.29 857.766,1445.72 858.648,1445.48 859.529,1445.72 860.411,1445.31 861.292,1445.72 862.173,1445.44 863.055,1445.6 863.936,1445.72 864.818,1445.36 865.699,1445.72 866.581,1445.46 867.462,1445.32 868.343,1445.39 869.225,1445.72 870.106,1445.34 870.988,1445.72 871.869,1445.52 872.751,1445.58 873.632,1445.72 874.513,1445.7 875.395,1445.72 876.276,1445.72 877.158,1445.72 878.039,1445.72 878.921,1445.72 879.802,1445.53 880.683,1445.59 881.565,1445.6 882.446,1445.72 883.328,1445.64 884.209,1445.72 885.091,1445.72 885.972,1445.53 886.853,1445.62 887.735,1445.38 888.616,1445.72 889.498,1445.4 890.379,1445.54 891.261,1445.72 892.142,1445.72 893.024,1445.53 893.905,1445.31 894.786,1445.38 895.668,1445.46 896.549,1445.72 897.431,1445.62 898.312,1445.4 899.194,1445.65 900.075,1445.32 900.956,1445.72 901.838,1445.31 902.719,1445.43 903.601,1445.72 904.482,1445.7 905.364,1445.71 906.245,1445.72 907.126,1445.25 908.008,1445.42 908.889,1445.72 909.771,1445.59 910.652,1445.51 911.534,1445.72 912.415,1445.72 913.296,1445.66 914.178,1445.59 915.059,1445.34 915.941,1445.49 916.822,1445.72 917.704,1445.72 918.585,1445.68 919.467,1445.27 920.348,1445.54 921.229,1445.72 922.111,1445.72 922.992,1445.61 923.874,1445.46 924.755,1445.42 925.637,1445.33 926.518,1445.24 927.399,1445.72 928.281,1445.72 929.162,1445.59 930.044,1445.35 930.925,1445.58 931.807,1445.55 932.688,1445.72 933.569,1445.24 934.451,1445.72 935.332,1445.72 936.214,1445.36 937.095,1445.72 937.977,1445.72 938.858,1445.62 939.739,1445.72 940.621,1445.37 941.502,1445.46 942.384,1445.72 943.265,1445.72 944.147,1445.72 945.028,1445.52 945.91,1445.57 946.791,1445.45 947.672,1445.48 948.554,1445.43 949.435,1445.72 950.317,1445.72 951.198,1445.48 952.08,1445.49 952.961,1445.72 953.842,1445.32 954.724,1445.72 955.605,1445.72 956.487,1445.35 957.368,1445.72 958.25,1445.69 959.131,1445.69 960.012,1445.72 960.894,1445.4 961.775,1445.72 962.657,1445.54 963.538,1445.49 964.42,1445.28 965.301,1445.46 966.182,1445.23 967.064,1445.64 967.945,1445.49 968.827,1445.67 969.708,1445.72 970.59,1445.46 971.471,1445.4 972.352,1445.56 973.234,1445.72 974.115,1445.72 974.997,1445.58 975.878,1445.72 976.76,1445.72 977.641,1445.23 978.523,1445.72 979.404,1445.72 980.285,1445.5 981.167,1445.41 982.048,1445.32 982.93,1445.41 983.811,1445.72 984.693,1445.72 985.574,1445.72 986.455,1445.65 987.337,1445.66 988.218,1445.71 989.1,1445.51 989.981,1445.72 990.863,1445.72 991.744,1445.4 992.625,1445.43 993.507,1445.51 994.388,1445.72 995.27,1445.72 996.151,1445.42 997.033,1445.72 997.914,1445.29 998.795,1445.72 999.677,1445.72 1000.56,1445.33 1001.44,1445.4 1002.32,1445.72 1003.2,1445.72 1004.08,1445.72 1004.97,1445.36 1005.85,1445.44 1006.73,1445.72 1007.61,1445.65 1008.49,1445.72 1009.37,1445.72 1010.25,1445.4 1011.14,1445.15 1012.02,1445.72 1012.9,1445.55 1013.78,1445.46 1014.66,1445.72 1015.54,1445.71 1016.42,1445.72 1017.31,1445.37 1018.19,1445.48 1019.07,1445.72 1019.95,1445.72 1020.83,1445.58 1021.71,1445.14 1022.59,1445.51 1023.48,1445.43 1024.36,1445.55 1025.24,1445.72 1026.12,1445.72 1027,1445.72 1027.88,1445.57 1028.76,1445.72 1029.65,1445.72 1030.53,1445.29 1031.41,1445.72 1032.29,1445.72 1033.17,1445.34 1034.05,1445.49 1034.93,1445.33 1035.82,1445.72 1036.7,1445.62 1037.58,1445.43 1038.46,1445.25 1039.34,1445.72 1040.22,1445.53 1041.1,1445.46 1041.99,1445.72 1042.87,1445.71 1043.75,1445.59 1044.63,1445.26 1045.51,1445.28 1046.39,1445.35 1047.27,1445.33 1048.16,1445.72 1049.04,1445.72 1049.92,1445.59 1050.8,1445.72 1051.68,1445.36 1052.56,1445.14 1053.44,1445.31 1054.33,1445.4 1055.21,1445.72 1056.09,1445.61 1056.97,1445.48 1057.85,1445.49 1058.73,1445.27 1059.61,1445.71 1060.5,1445.4 1061.38,1445.39 1062.26,1445.58 1063.14,1445.7 1064.02,1445.72 1064.9,1445.55 1065.78,1445.67 1066.67,1445.51 1067.55,1445.56 1068.43,1445.72 1069.31,1445.28 1070.19,1445.62 1071.07,1445.72 1071.95,1445.42 1072.84,1445.72 1073.72,1445.31 1074.6,1445.72 1075.48,1445.72 1076.36,1445.38 1077.24,1445.44 1078.12,1445.29 1079.01,1445.44 1079.89,1445.72 1080.77,1445.34 1081.65,1445.72 1082.53,1445.49 1083.41,1445.56 1084.29,1445.57 1085.18,1445.64 1086.06,1445.68 1086.94,1445.64 1087.82,1445.54 1088.7,1445.33 1089.58,1445.13 1090.46,1445.72 1091.35,1445.72 1092.23,1445.23 1093.11,1445.72 1093.99,1445.66 1094.87,1445.68 1095.75,1445.23 1096.63,1445.72 1097.52,1445.65 1098.4,1445.49 1099.28,1445.72 1100.16,1445.72 1101.04,1445.72 1101.92,1445.72 1102.8,1445.52 1103.69,1445.72 1104.57,1445.25 1105.45,1445.72 1106.33,1445.72 1107.21,1445.32 1108.09,1445.72 1108.97,1445.16 1109.86,1445.72 1110.74,1445.72 1111.62,1445.72 1112.5,1445.72 1113.38,1445.72 1114.26,1445.54 1115.14,1445.72 1116.03,1445.72 1116.91,1445.72 1117.79,1445.72 1118.67,1445.49 1119.55,1445.32 1120.43,1445.72 1121.31,1445.61 1122.2,1445.63 1123.08,1445.68 1123.96,1445.72 1124.84,1445.46 1125.72,1445.72 1126.6,1445.72 1127.48,1445.72 1128.37,1445.72 1129.25,1445.29 1130.13,1445.5 1131.01,1445.53 1131.89,1445.44 1132.77,1445.58 1133.65,1445.62 1134.54,1445.48 1135.42,1445.41 1136.3,1445.72 1137.18,1445.62 1138.06,1445.72 1138.94,1445.57 1139.82,1445.63 1140.71,1445.72 1141.59,1445.72 1142.47,1445.58 1143.35,1445.28 1144.23,1445.72 1145.11,1445.72 1145.99,1445.72 1146.88,1445.72 1147.76,1445.43 1148.64,1445.72 1149.52,1445.28 1150.4,1445.35 1151.28,1445.65 1152.16,1445.59 1153.05,1445.72 1153.93,1445.44 1154.81,1445.41 1155.69,1445.28 1156.57,1445.43 1157.45,1445.44 1158.33,1445.72 1159.22,1445.38 1160.1,1445.69 1160.98,1445.52 1161.86,1445.28 1162.74,1445.34 1163.62,1445.72 1164.5,1443.86 1165.39,1444.96 1166.27,1444.4 1167.15,1444.47 1168.03,1445.23 1168.91,1442.49 1169.79,1445.58 1170.67,1445.72 1171.56,1445.54 1172.44,1445.15 1173.32,1445.72 1174.2,1445.62 1175.08,1445.12 1175.96,1444.84 1176.84,1444.52 1177.73,1445.58 1178.61,1445.21 1179.49,1445.49 1180.37,1443.84 1181.25,1444.27 1182.13,1444.15 1183.01,1445.72 1183.9,1445.6 1184.78,1444.92 1185.66,1445.72 1186.54,1445.72 1187.42,1444.71 1188.3,1445.72 1189.19,1439.93 1190.07,1444.6 1190.95,1445.72 1191.83,1445.72 1192.71,1445.72 1193.59,1443.77 1194.47,1445.72 1195.36,1444.2 1196.24,1445.72 1197.12,1445.72 1198,1445.72 1198.88,1444.74 1199.76,1445.72 1200.64,1445.72 1201.53,1445.72 1202.41,1445.4 1203.29,1445.72 1204.17,1445.57 1205.05,1444.72 1205.93,1445.72 1206.81,1444.3 1207.7,1445.34 1208.58,1444.72 1209.46,1443.93 1210.34,1444.63 1211.22,1445.53 1212.1,1444.96 1212.98,1438.74 1213.87,1445.64 1214.75,1445.47 1215.63,1445.21 1216.51,1445.72 1217.39,1445.08 1218.27,1445.62 1219.15,1445.26 1220.04,1444.54 1220.92,1444.14 1221.8,1444.74 1222.68,1445.72 1223.56,1445.72 1224.44,1445.23 1225.32,1443.98 1226.21,1444.15 1227.09,1445.17 1227.97,1444.01 1228.85,1440.59 1229.73,1445.09 1230.61,1445.72 1231.49,1445.72 1232.38,1444.68 1233.26,1444.96 1234.14,1445.19 1235.02,1444.63 1235.9,1444.09 1236.78,1444.84 1237.66,1445.72 1238.55,1445.18 1239.43,1445.43 1240.31,1442.77 1241.19,1443.96 1242.07,1443.9 1242.95,1445.72 1243.83,1445.72 1244.72,1445.62 1245.6,1444.24 1246.48,1444.68 1247.36,1444.92 1248.24,1444.89 1249.12,1445.58 1250,1444.76 1250.89,1445.72 1251.77,1445.55 1252.65,1443.85 1253.53,1445 1254.41,1445.72 1255.29,1445.72 1256.17,1444.88 1257.06,1445.69 1257.94,1445.67 1258.82,1445.72 1259.7,1445.67 1260.58,1444.21 1261.46,1445.72 1262.34,1445.71 1263.23,1445.72 1264.11,1445.72 1264.99,1445.72 1265.87,1445.53 1266.75,1445.72 1267.63,1443.85 1268.51,1444.49 1269.4,1444.65 1270.28,1445.72 1271.16,1445.66 1272.04,1444.56 1272.92,1445.64 1273.8,1445.18 1274.68,1445.72 1275.57,1445.66 1276.45,1445.72 1277.33,1444.27 1278.21,1444.91 1279.09,1445.72 1279.97,1445.72 1280.85,1444.96 1281.74,1444.24 1282.62,1445.72 1283.5,1444.57 1284.38,1445.72 1285.26,1444.58 1286.14,1445.6 1287.02,1444.16 1287.91,1445.72 1288.79,1445 1289.67,1445.72 1290.55,1444.26 1291.43,1442.54 1292.31,1442.93 1293.19,1445.72 1294.08,1445.72 1294.96,1445.72 1295.84,1444.28 1296.72,1441.17 1297.6,1445.72 1298.48,1445.72 1299.36,1442.71 1300.25,1444.93 1301.13,1445.72 1302.01,1445.72 1302.89,1445.72 1303.77,1444.87 1304.65,1443.53 1305.53,1445.72 1306.42,1444.14 1307.3,1443.82 1308.18,1445.72 1309.06,1444.06 1309.94,1445.63 1310.82,1445.72 1311.7,1444.98 1312.59,1445.71 1313.47,1445.12 1314.35,1444.64 1315.23,1445.72 1316.11,1445.72 1316.99,1445.34 1317.87,1444.2 1318.76,1445.27 1319.64,1445.72 1320.52,1445.72 1321.4,1442.5 1322.28,1445.72 1323.16,1445.72 1324.04,1445.11 1324.93,1444.85 1325.81,1445.63 1326.69,1445.72 1327.57,1445.72 1328.45,1445.72 1329.33,1444.18 1330.21,1443.95 1331.1,1445.72 1331.98,1444.48 1332.86,1444.88 1333.74,1443.38 1334.62,1444.88 1335.5,1444.83 1336.38,1444.59 1337.27,1444.63 1338.15,1444.49 1339.03,1445.02 1339.91,1445.54 1340.79,1442.77 1341.67,1445.72 1342.55,1445.72 1343.44,1444.59 1344.32,1445.72 1345.2,1444.23 1346.08,1445.72 1346.96,1444.44 1347.84,1444.01 1348.72,1445.54 1349.61,1445.72 1350.49,1444.83 1351.37,1445.72 1352.25,1445.09 1353.13,1442.75 1354.01,1444.85 1354.89,1445.01 1355.78,1445.72 1356.66,1445.53 1357.54,1445.72 1358.42,1444.93 1359.3,1445.72 1360.18,1445.64 1361.06,1445.72 1361.95,1445.34 1362.83,1445.4 1363.71,1443.04 1364.59,1444.2 1365.47,1443.39 1366.35,1445.72 1367.23,1445.72 1368.12,1445.72 1369,1444.64 1369.88,1444.28 1370.76,1445.72 1371.64,1444.97 1372.52,1445.6 1373.4,1444.48 1374.29,1443.9 1375.17,1442.95 1376.05,1443.92 1376.93,1445.07 1377.81,1445.72 1378.69,1444.89 1379.57,1445.72 1380.46,1444.91 1381.34,1444.83 1382.22,1443.85 1383.1,1444.78 1383.98,1445.68 1384.86,1442.45 1385.74,1445.03 1386.63,1444.78 1387.51,1443.48 1388.39,1444.67 1389.27,1445.48 1390.15,1445.72 1391.03,1444.79 1391.91,1444.85 1392.8,1445.72 1393.68,1445.14 1394.56,1445.14 1395.44,1444.97 1396.32,1444.5 1397.2,1445.72 1398.08,1445.72 1398.97,1443.88 1399.85,1445.65 1400.73,1443.76 1401.61,1444.41 1402.49,1444.65 1403.37,1445.42 1404.25,1445.72 1405.14,1445.68 1406.02,1445.45 1406.9,1445.72 1407.78,1445.12 1408.66,1445.63 1409.54,1444.93 1410.42,1445.72 1411.31,1444.64 1412.19,1445.39 1413.07,1444.06 1413.95,1444.53 1414.83,1444.53 1415.71,1445.63 1416.59,1445.33 1417.48,1442.11 1418.36,1444.99 1419.24,1443.86 1420.12,1445.67 1421,1445.03 1421.88,1445.72 1422.76,1445.46 1423.65,1444.22 1424.53,1444.98 1425.41,1445.72 1426.29,1444.78 1427.17,1444.81 1428.05,1445.72 1428.93,1445.49 1429.82,1445.72 1430.7,1445.72 1431.58,1445.64 1432.46,1445.05 1433.34,1445.02 1434.22,1445.72 1435.1,1445.72 1435.99,1445.54 1436.87,1445.72 1437.75,1443.2 1438.63,1445.72 1439.51,1445.72 1440.39,1445.64 1441.27,1444.27 1442.16,1445.67 1443.04,1443.09 1443.92,1445.72 1444.8,1445.66 1445.68,1445.72 1446.56,1444.38 1447.44,1445.72 1448.33,1445.67 1449.21,1442.96 1450.09,1445.65 1450.97,1444.03 1451.85,1444.37 1452.73,1444.44 1453.61,1444.27 1454.5,1443.81 1455.38,1444.65 1456.26,1445.67 1457.14,1445.72 1458.02,1445 1458.9,1445.72 1459.78,1445.23 1460.67,1445.72 1461.55,1444.02 1462.43,1443.26 1463.31,1445.72 1464.19,1443.97 1465.07,1445.72 1465.95,1445.72 1466.84,1445.72 1467.72,1444.31 1468.6,1444.44 1469.48,1445.72 1470.36,1445.38 1471.24,1445.11 1472.13,1445.72 1473.01,1443.15 1473.89,1445.03 1474.77,1445.69 1475.65,1445.5 1476.53,1445.72 1477.41,1445.72 1478.3,1443.86 1479.18,1445.72 1480.06,1445.72 1480.94,1444.25 1481.82,1444.91 1482.7,1445.72 1483.58,1445 1484.47,1445.27 1485.35,1445.72 1486.23,1444.77 1487.11,1445.7 1487.99,1445.68 1488.87,1444.33 1489.75,1445.72 1490.64,1445.49 1491.52,1445.72 1492.4,1445.67 1493.28,1445.49 1494.16,1444.73 1495.04,1441.61 1495.92,1444.99 1496.81,1445.72 1497.69,1445.72 1498.57,1445.72 1499.45,1445.38 1500.33,1445.1 1501.21,1444.12 1502.09,1445.18 1502.98,1445.51 1503.86,1445.07 1504.74,1444.85 1505.62,1445.72 1506.5,1445.65 1507.38,1445.72 1508.26,1444.47 1509.15,1444.71 1510.03,1445.68 1510.91,1445.72 1511.79,1444.4 1512.67,1445.72 1513.55,1445.72 1514.43,1444.83 1515.32,1445.06 1516.2,1444.61 1517.08,1445.64 1517.96,1443.9 1518.84,1445.72 1519.72,1445.58 1520.6,1445.72 1521.49,1445.62 1522.37,1445.72 1523.25,1445.72 1524.13,1444.48 1525.01,1445.72 1525.89,1445.72 1526.77,1444.88 1527.66,1445.72 1528.54,1445.38 1529.42,1444.6 1530.3,1443.24 1531.18,1443.79 1532.06,1443.15 1532.94,1445.62 1533.83,1445.3 1534.71,1445.72 1535.59,1445.62 1536.47,1444.9 1537.35,1445.72 1538.23,1443.95 1539.11,1444.03 1540,1445.03 1540.88,1444.9 1541.76,1445.36 1542.64,1444.91 1543.52,1445.11 1544.4,1445.64 1545.28,1445.7 1546.17,1445.08 1547.05,1444.52 1547.93,1445.27 1548.81,1443.93 1549.69,1445.72 1550.57,1445.32 1551.45,1445.72 1552.34,1445.72 1553.22,1445.72 1554.1,1445.72 1554.98,1443.84 1555.86,1445.72 1556.74,1443.99 1557.62,1445.67 1558.51,1444.2 1559.39,1442.63 1560.27,1445.51 1561.15,1445.72 1562.03,1445.72 1562.91,1445.72 1563.79,1445.72 1564.68,1445.72 1565.56,1444.33 1566.44,1444.17 1567.32,1444.63 1568.2,1445.72 1569.08,1445.72 1569.96,1445.72 1570.85,1445.11 1571.73,1445.26 1572.61,1444.9 1573.49,1445 1574.37,1445.72 1575.25,1445.64 1576.13,1444.81 1577.02,1445.14 1577.9,1445.72 1578.78,1444.18 1579.66,1445.72 1580.54,1445.18 1581.42,1445.57 1582.3,1445.68 1583.19,1444.76 1584.07,1445.72 1584.95,1445.19 1585.83,1445.72 1586.71,1445.72 1587.59,1444.42 1588.47,1445.72 1589.36,1444.87 1590.24,1445.32 1591.12,1444.49 1592,1445.24 1592.88,1445.4 1593.76,1445.49 1594.64,1443.59 1595.53,1445.66 1596.41,1445.08 1597.29,1445.66 1598.17,1444.06 1599.05,1445.72 1599.93,1445.72 1600.81,1445.11 1601.7,1444.57 1602.58,1445.72 1603.46,1441.9 1604.34,1443.76 1605.22,1445.72 1606.1,1444 1606.98,1445.72 1607.87,1444.97 1608.75,1445.36 1609.63,1444.96 1610.51,1445.72 1611.39,1445.3 1612.27,1445.72 1613.15,1443.77 1614.04,1444.33 1614.92,1444.59 1615.8,1445.72 1616.68,1442.68 1617.56,1445.11 1618.44,1442.68 1619.32,1436.3 1620.21,1440.4 1621.09,1444.56 1621.97,1440.87 1622.85,1441.53 1623.73,1442.68 1624.61,1444.71 1625.49,1444.02 1626.38,1438.66 1627.26,1443.65 1628.14,1440.49 1629.02,1445.72 1629.9,1445.72 1630.78,1444.83 1631.66,1436.89 1632.55,1438.66 1633.43,1434.9 1634.31,1441.91 1635.19,1436.44 1636.07,1436.19 1636.95,1429.64 1637.83,1439.46 1638.72,1441.12 1639.6,1440.93 1640.48,1444.67 1641.36,1442.69 1642.24,1445.72 1643.12,1445.72 1644,1398.57 1644.89,1445.72 1645.77,1437.11 1646.65,1445.03 1647.53,1428.41 1648.41,1439.73 1649.29,1443.58 1650.17,1445.72 1651.06,1443.56 1651.94,1439.23 1652.82,1440.76 1653.7,1444.86 1654.58,1441.55 1655.46,1429.62 1656.34,1442.97 1657.23,1441.78 1658.11,1441.23 1658.99,1443.8 1659.87,1429.72 1660.75,1440.93 1661.63,1441.21 1662.51,1427.67 1663.4,1442.57 1664.28,1443.1 1665.16,1441.94 1666.04,1439.66 1666.92,1435.17 1667.8,1442.87 1668.68,1445.72 1669.57,1432.2 1670.45,1444.64 1671.33,1436.94 1672.21,1440.5 1673.09,1438.19 1673.97,1441.99 1674.85,1426.94 1675.74,1439.35 1676.62,1445.72 1677.5,1426.33 1678.38,1436.48 1679.26,1445.72 1680.14,1445.72 1681.02,1438.18 1681.91,1441.93 1682.79,1441.33 1683.67,1445.72 1684.55,1441.99 1685.43,1443.69 1686.31,1445.72 1687.19,1438 1688.08,1415.18 1688.96,1433.69 1689.84,1444.8 1690.72,1432.25 1691.6,1445.46 1692.48,1441.98 1693.36,1442.55 1694.25,1441.37 1695.13,1437.41 1696.01,1443.62 1696.89,1435.79 1697.77,1437.42 1698.65,1444.83 1699.53,1441.32 1700.42,1436.56 1701.3,1443.83 1702.18,1428.43 1703.06,1442.26 1703.94,1438.6 1704.82,1436.28 1705.7,1441.34 1706.59,1438.98 1707.47,1440.16 1708.35,1440.77 1709.23,1434.34 1710.11,1436.46 1710.99,1427.14 1711.87,1434.72 1712.76,1443.48 1713.64,1437.12 1714.52,1440.22 1715.4,1442.66 1716.28,1444.61 1717.16,1443.8 1718.04,1441.87 1718.93,1440.23 1719.81,1445.72 1720.69,1445.72 1721.57,1444.32 1722.45,1435.91 1723.33,1433.81 1724.21,1438.48 1725.1,1417.06 1725.98,1445.72 1726.86,1443.7 1727.74,1440.03 1728.62,1445.72 1729.5,1443.79 1730.38,1435.16 1731.27,1442.13 1732.15,1437.39 1733.03,1444.49 1733.91,1436.09 1734.79,1436.62 1735.67,1445.72 1736.55,1445.72 1737.44,1429.03 1738.32,1444.26 1739.2,1439.43 1740.08,1445.72 1740.96,1442.02 1741.84,1431.46 1742.72,1439.17 1743.61,1443.9 1744.49,1441.23 1745.37,1444.13 1746.25,1443.96 1747.13,1445.55 1748.01,1444.32 1748.89,1442.62 1749.78,1435.95 1750.66,1442.19 1751.54,1442.04 1752.42,1444.4 1753.3,1441.8 1754.18,1443.27 1755.07,1435.81 1755.95,1442.57 1756.83,1436.39 1757.71,1445.3 1758.59,1443.22 1759.47,1445.72 1760.35,1445.12 1761.24,1445.72 1762.12,1437.42 1763,1442.43 1763.88,1429.45 1764.76,1445.72 1765.64,1435.33 1766.52,1433.25 1767.41,1443.9 1768.29,1430.89 1769.17,1407.13 1770.05,1445.72 1770.93,1442.24 1771.81,1445.72 1772.69,1444.94 1773.58,1444.28 1774.46,1435.7 1775.34,1442.55 1776.22,1439.06 1777.1,1438.88 1777.98,1441.87 1778.86,1440.77 1779.75,1439.68 1780.63,1438.67 1781.51,1413.64 1782.39,1442.3 1783.27,1445.72 1784.15,1433.45 1785.03,1442.85 1785.92,1438.97 1786.8,1432.78 1787.68,1435.24 1788.56,1442.62 1789.44,1436.59 1790.32,1439.96 1791.2,1441.25 1792.09,1442.81 1792.97,1442.97 1793.85,1443.65 1794.73,1443.21 1795.61,1440.14 1796.49,1439.96 1797.37,1437.87 1798.26,1440.54 1799.14,1445.72 1800.02,1445.35 1800.9,1429.16 1801.78,1445.36 1802.66,1442.08 1803.54,1436.26 1804.43,1437.53 1805.31,1440.62 1806.19,1441.32 1807.07,1445.72 1807.95,1437.98 1808.83,1441.37 1809.71,1445.72 1810.6,1438.48 1811.48,1444.84 1812.36,1437.18 1813.24,1445.72 1814.12,1436.9 1815,1444.33 1815.88,1443.24 1816.77,1432.86 1817.65,1436.48 1818.53,1439.4 1819.41,1445.72 1820.29,1445.72 1821.17,1428.97 1822.05,1441.43 1822.94,1436.1 1823.82,1425.47 1824.7,1443.82 1825.58,1442.59 1826.46,1439.3 1827.34,1444.13 1828.22,1439.49 1829.11,1440.11 1829.99,1445.72 1830.87,1443.86 1831.75,1438.47 1832.63,1442.4 1833.51,1440.24 1834.39,1441.88 1835.28,1444.91 1836.16,1440.65 1837.04,1443.14 1837.92,1440.31 1838.8,1439.17 1839.68,1444.78 1840.56,1440.28 1841.45,1443.4 1842.33,1440.67 1843.21,1443.5 1844.09,1434.84 1844.97,1441.87 1845.85,1445.72 1846.73,1441.84 1847.62,1432.09 1848.5,1441.26 1849.38,1438.16 1850.26,1445.58 1851.14,1442.38 1852.02,1445.72 1852.9,1443.26 1853.79,1434.64 1854.67,1445.72 1855.55,1445.72 1856.43,1443.55 1857.31,1439.15 1858.19,1434.45 1859.07,1445.72 1859.96,1440.72 1860.84,1440.53 1861.72,1444.46 1862.6,1439.79 1863.48,1437.52 1864.36,1444.25 1865.24,1441.37 1866.13,1445.72 1867.01,1426.95 1867.89,1439.15 1868.77,1440.37 1869.65,1444.06 1870.53,1437.89 1871.41,1440.03 1872.3,1445.72 1873.18,1443.36 1874.06,1436.34 1874.94,1445.07 1875.82,1433.43 1876.7,1440.24 1877.58,1434.87 1878.47,1441.08 1879.35,1445.72 1880.23,1435.56 1881.11,1444.73 1881.99,1439.59 1882.87,1443.13 1883.75,1445.21 1884.64,1445.2 1885.52,1440.86 1886.4,1440.44 1887.28,1445.72 1888.16,1441.27 1889.04,1444.88 1889.92,1442.56 1890.81,1445.72 1891.69,1430.9 1892.57,1438.62 1893.45,1435.02 1894.33,1445.25 1895.21,1443.94 1896.09,1443.17 1896.98,1444.63 1897.86,1422.34 1898.74,1445.33 1899.62,1435.4 1900.5,1444.87 1901.38,1441.49 1902.26,1445.72 1903.15,1445.72 1904.03,1431.76 1904.91,1445.72 1905.79,1445.72 1906.67,1436.91 1907.55,1428.39 1908.43,1435.26 1909.32,1441.66 1910.2,1443.51 1911.08,1437.87 1911.96,1437.35 1912.84,1445.72 1913.72,1438.21 1914.6,1441.07 1915.49,1435.37 1916.37,1440.57 1917.25,1441.59 1918.13,1441.55 1919.01,1430.33 1919.89,1442.86 1920.77,1440 1921.66,1439.58 1922.54,1443.67 1923.42,1443.59 1924.3,1438.76 1925.18,1442.35 1926.06,1444.3 1926.94,1442.1 1927.83,1445.72 1928.71,1433.73 1929.59,1434.65 1930.47,1440.59 1931.35,1441.73 1932.23,1444.07 1933.11,1436.51 1934,1445.72 1934.88,1443.92 1935.76,1445.72 1936.64,1433.22 1937.52,1445.72 1938.4,1445.02 1939.28,1442.23 1940.17,1445.24 1941.05,1442.7 1941.93,1445.72 1942.81,1444.88 1943.69,1437.28 1944.57,1437.17 1945.45,1445.72 1946.34,1445.72 1947.22,1440.8 1948.1,1443.06 1948.98,1434.86 1949.86,1438.57 1950.74,1445.32 1951.62,1437.11 1952.51,1441.42 1953.39,1444.45 1954.27,1440.21 1955.15,1445.72 1956.03,1441.52 1956.91,1442.96 1957.79,1432.87 1958.68,1438.72 1959.56,1442.94 1960.44,1440.04 1961.32,1437.18 1962.2,1423.27 1963.08,1441.81 1963.96,1443.46 1964.85,1438.45 1965.73,1441.09 1966.61,1442.63 1967.49,1445.72 1968.37,1435.66 1969.25,1445.72 1970.13,1440.13 1971.02,1442.68 1971.9,1444.1 1972.78,1427.05 1973.66,1444.7 1974.54,1434.36 1975.42,1443.29 1976.3,1428.96 1977.19,1419.9 1978.07,1435.95 1978.95,1441.8 1979.83,1445.72 1980.71,1438.45 1981.59,1445.72 1982.47,1439.34 1983.36,1436.21 1984.24,1445.72 1985.12,1434.4 1986,1442.87 1986.88,1444.68 1987.76,1445.72 1988.64,1440.84 1989.53,1429.82 1990.41,1435.54 1991.29,1437.34 1992.17,1435.45 1993.05,1445.72 1993.93,1442.73 1994.81,1434.84 1995.7,1440.94 1996.58,1441.15 1997.46,1443.24 1998.34,1439.34 1999.22,1440.56 2000.1,1445.72 2000.98,1440.52 2001.87,1424.22 2002.75,1443.55 2003.63,1438.38 2004.51,1444.25 2005.39,1440.06 2006.27,1433.29 2007.15,1437.54 2008.04,1445.72 2008.92,1439.99 2009.8,1445.18 2010.68,1445.72 2011.56,1437.52 2012.44,1441.85 2013.32,1439.64 2014.21,1436.06 2015.09,1436.42 2015.97,1445.72 2016.85,1429.32 2017.73,1445.34 2018.61,1433.93 2019.49,1438.07 2020.38,1437.87 2021.26,1437.08 2022.14,1442.29 2023.02,1444.09 2023.9,1443.13 2024.78,1440.14 2025.66,1438.82 2026.55,1444.34 2027.43,1445.72 2028.31,1442.9 2029.19,1430.06 2030.07,1441.53 2030.95,1439.16 2031.83,1440.51 2032.72,1445.72 2033.6,1444.41 2034.48,1443.57 2035.36,1439.73 2036.24,1442.23 2037.12,1442.08 2038,1439.47 2038.89,1438.22 2039.77,1445.22 2040.65,1442.24 2041.53,1445.72 2042.41,1443.15 2043.29,1439 2044.18,1444.4 2045.06,1445.72 2045.94,1442.73 2046.82,1445.72 2047.7,1445.72 2048.58,1445.72 2049.46,1436.47 2050.35,1443.49 2051.23,1440.04 2052.11,1439.23 2052.99,1435.3 2053.87,1435.08 2054.75,1443.48 2055.63,1442.18 2056.52,1438.57 2057.4,1442.65 2058.28,1442.28 2059.16,1445.72 2060.04,1429.35 2060.92,1445.72 2061.8,1445.72 2062.69,1441.71 2063.57,1441.14 2064.45,1438.52 2065.33,1440.27 2066.21,1442.54 2067.09,1406.53 2067.97,1394.69 2068.86,1353.49 2069.74,1410.05 2070.62,1371.01 2071.5,1356.76 2072.38,1394.29 2073.26,1408.9 2074.14,1289.82 2075.03,1348.16 2075.91,1295.7 2076.79,1438.16 2077.67,1445.22 2078.55,1338.77 2079.43,1358.92 2080.31,1442.57 2081.2,1325.02 2082.08,1445.66 2082.96,1315.66 2083.84,1389.86 2084.72,1305.87 2085.6,1352.95 2086.48,1445.72 2087.37,1396.39 2088.25,1321.61 2089.13,1341.84 2090.01,1416.9 2090.89,1439.93 2091.77,1445.72 2092.65,1423.58 2093.54,1445.72 2094.42,1445.72 2095.3,1356.77 2096.18,1414.11 2097.06,1307.86 2097.94,1418.67 2098.82,1445.72 2099.71,1443.92 2100.59,1445.72 2101.47,1379.1 2102.35,1445.72 2103.23,1422.48 2104.11,1445.72 2104.99,1415.57 2105.88,1445.72 2106.76,1352.18 2107.64,1312.96 2108.52,1403.63 2109.4,1442.05 2110.28,1312.02 2111.16,1315.95 2112.05,1433.34 2112.93,1395.79 2113.81,1375.38 2114.69,1444.65 2115.57,1429.12 2116.45,1409.66 2117.33,1443.64 2118.22,1427.2 2119.1,1328.36 2119.98,1418.73 2120.86,1294.31 2121.74,1287.73 2122.62,1287.12 2123.5,1445.65 2124.39,1375.94 2125.27,1391.72 2126.15,1320.28 2127.03,1388.48 2127.91,1332.49 2128.79,1337.66 2129.67,1411.48 2130.56,1342.98 2131.44,1312.39 2132.32,1406.19 2133.2,1439.15 2134.08,1342.23 2134.96,1445.25 2135.84,1417.45 2136.73,1426.85 2137.61,1444.34 2138.49,1441.4 2139.37,1370.17 2140.25,1409.88 2141.13,1394.13 2142.01,1420.04 2142.9,1430 2143.78,1334.32 2144.66,1351.39 2145.54,1425.3 2146.42,1445.72 2147.3,1352.37 2148.18,1414.97 2149.07,1445.72 2149.95,1443.22 2150.83,1391.22 2151.71,1445.72 2152.59,1445.72 2153.47,1431.67 2154.35,1403.1 2155.24,1303.65 2156.12,1341.86 2157,1350.17 2157.88,1308.36 2158.76,1387.63 2159.64,1434.83 2160.52,1346.97 2161.41,1383.54 2162.29,1324.01 2163.17,1334.88 2164.05,1428.31 2164.93,1326.84 2165.81,1445.68 2166.69,1354.53 2167.58,1435.72 2168.46,1384 2169.34,1433.49 2170.22,1445.72 2171.1,1329.98 2171.98,1445.72 2172.86,1437.86 2173.75,1297.1 2174.63,1289.14 2175.51,1352.35 2176.39,1317.49 2177.27,1426.9 2178.15,1423.93 2179.03,1440.73 2179.92,1384.18 2180.8,1445.72 2181.68,1399.77 2182.56,1320.71 2183.44,1445.72 2184.32,1445.72 2185.2,1346.36 2186.09,1445.55 2186.97,1406.95 2187.85,1407.27 2188.73,1412.16 2189.61,1304.74 2190.49,1441.66 2191.37,1427.9 2192.26,1320.31 2193.14,1436.75 2194.02,1416.3 2194.9,1445.72 2195.78,1409.64 2196.66,1436.61 2197.54,1413.83 2198.43,1445.72 2199.31,1445.72 2200.19,1424.94 2201.07,1330.44 2201.95,1360.3 2202.83,1440.23 2203.71,1427.56 2204.6,1445.6 2205.48,1416.27 2206.36,1319.25 2207.24,1445.62 2208.12,1433.93 2209,1344.96 2209.88,1360.37 2210.77,1300.66 2211.65,1445.28 2212.53,1432.73 2213.41,1330.82 2214.29,1387.97 2215.17,1438 2216.05,1439.69 2216.94,1391.69 2217.82,1407.17 2218.7,1402.68 2219.58,1307.98 2220.46,1329.94 2221.34,1433.07 2222.22,1409.4 2223.11,1445.72 2223.99,1445.72 2224.87,1432.04 2225.75,1404.89 2226.63,1352.48 2227.51,1445.16 2228.39,1445.72 2229.28,1305.15 2230.16,1445.72 2231.04,1071.27 2231.92,1445.6 2232.8,1316.2 2233.68,1431.74 2234.56,1445.72 2235.45,1437.8 2236.33,1393.18 2237.21,1430.63 2238.09,1445.1 2238.97,1442.66 2239.85,1308.86 2240.73,1441.59 2241.62,1443.41 2242.5,1338.5 2243.38,1439.22 2244.26,1413.26 2245.14,1445.72 2246.02,1417.82 2246.9,1396.41 2247.79,1354.03 2248.67,1322.91 2249.55,1445.22 2250.43,1406.61 2251.31,1443.54 2252.19,1305.19 2253.07,1324.02 2253.96,1395.02 2254.84,1270.15 2255.72,1410.91 2256.6,1319.58 2257.48,1307.52 2258.36,1445.72 2259.24,1391.94 2260.13,1329.77 2261.01,1365.7 2261.89,1441.27 2262.77,1410.03 2263.65,1373.22 2264.53,1352.76 2265.41,1415.38 2266.3,1405.98 2267.18,1401.76 2268.06,1445.67 2268.94,1359.06 2269.82,1349.22 2270.7,1342.03 2271.58,1306.6 2272.47,1382.47 2273.35,1400.88 2274.23,1348.54 2275.11,1309.19 2275.99,1398.89 2276.87,1379.66 2277.75,1418.46 2278.64,1445.67 2279.52,1445.72 2280.4,1397.24 2281.28,1315.69 2282.16,1389.2 2283.04,1410.98 2283.92,1391 2284.81,1341.12 2285.69,1444.07 2286.57,1364.01 2287.45,1403.67 2288.33,1445.72 2289.21,1306.2 2290.09,1338.3 2290.98,1443.54 2291.86,1444.13 "></polyline>
</svg>