<svg xmlns="http://www.w3.org/2000/svg" xmlns:xlink="http://www.w3.org/1999/xlink" width="600" height="400" viewBox="0 0 2400 1600">
<defs>
  <clipPath id="clip140">
    <rect x="0" y="0" width="2400" height="1600"></rect>
  </clipPath>
</defs>
<path clip-path="url(#clip140)" d="M0 1600 L2400 1600 L2400 0 L0 0  Z" fill="#ffffff" fill-rule="evenodd" fill-opacity="1"></path>
<defs>
  <clipPath id="clip141">
    <rect x="480" y="0" width="1681" height="1600"></rect>
  </clipPath>
</defs>
<path clip-path="url(#clip140)" d="M201.019 1486.45 L2352.76 1486.45 L2352.76 47.2441 L201.019 47.2441  Z" fill="#ffffff" fill-rule="evenodd" fill-opacity="1"></path>
<defs>
  <clipPath id="clip142">
    <rect x="201" y="47" width="2153" height="1440"></rect>
  </clipPath>
</defs>
<polyline clip-path="url(#clip142)" style="stroke:#000000; stroke-linecap:round; stroke-linejoin:round; stroke-width:2; stroke-opacity:0.1; fill:none" points="261.036,1486.45 261.036,47.2441 "></polyline>
<polyline clip-path="url(#clip142)" style="stroke:#000000; stroke-linecap:round; stroke-linejoin:round; stroke-width:2; stroke-opacity:0.1; fill:none" points="701.753,1486.45 701.753,47.2441 "></polyline>
<polyline clip-path="url(#clip142)" style="stroke:#000000; stroke-linecap:round; stroke-linejoin:round; stroke-width:2; stroke-opacity:0.1; fill:none" points="1142.47,1486.45 1142.47,47.2441 "></polyline>
<polyline clip-path="url(#clip142)" style="stroke:#000000; stroke-linecap:round; stroke-linejoin:round; stroke-width:2; stroke-opacity:0.1; fill:none" points="1583.19,1486.45 1583.19,47.2441 "></polyline>
<polyline clip-path="url(#clip142)" style="stroke:#000000; stroke-linecap:round; stroke-linejoin:round; stroke-width:2; stroke-opacity:0.1; fill:none" points="2023.9,1486.45 2023.9,47.2441 "></polyline>
<polyline clip-path="url(#clip140)" style="stroke:#000000; stroke-linecap:round; stroke-linejoin:round; stroke-width:4; stroke-opacity:1; fill:none" points="201.019,1486.45 2352.76,1486.45 "></polyline>
<polyline clip-path="url(#clip140)" style="stroke:#000000; stroke-linecap:round; stroke-linejoin:round; stroke-width:4; stroke-opacity:1; fill:none" points="261.036,1486.45 261.036,1467.55 "></polyline>
<polyline clip-path="url(#clip140)" style="stroke:#000000; stroke-linecap:round; stroke-linejoin:round; stroke-width:4; stroke-opacity:1; fill:none" points="701.753,1486.45 701.753,1467.55 "></polyline>
<polyline clip-path="url(#clip140)" style="stroke:#000000; stroke-linecap:round; stroke-linejoin:round; stroke-width:4; stroke-opacity:1; fill:none" points="1142.47,1486.45 1142.47,1467.55 "></polyline>
<polyline clip-path="url(#clip140)" style="stroke:#000000; stroke-linecap:round; stroke-linejoin:round; stroke-width:4; stroke-opacity:1; fill:none" points="1583.19,1486.45 1583.19,1467.55 "></polyline>
<polyline clip-path="url(#clip140)" style="stroke:#000000; stroke-linecap:round; stroke-linejoin:round; stroke-width:4; stroke-opacity:1; fill:none" points="2023.9,1486.45 2023.9,1467.55 "></polyline>
<path clip-path="url(#clip140)" d="M261.036 1517.37 Q257.425 1517.37 255.596 1520.93 Q253.791 1524.47 253.791 1531.6 Q253.791 1538.71 255.596 1542.27 Q257.425 1545.82 261.036 1545.82 Q264.67 1545.82 266.476 1542.27 Q268.305 1538.71 268.305 1531.6 Q268.305 1524.47 266.476 1520.93 Q264.67 1517.37 261.036 1517.37 M261.036 1513.66 Q266.846 1513.66 269.902 1518.27 Q272.98 1522.85 272.98 1531.6 Q272.98 1540.33 269.902 1544.94 Q266.846 1549.52 261.036 1549.52 Q255.226 1549.52 252.147 1544.94 Q249.092 1540.33 249.092 1531.6 Q249.092 1522.85 252.147 1518.27 Q255.226 1513.66 261.036 1513.66 Z" fill="#000000" fill-rule="nonzero" fill-opacity="1"></path><path clip-path="url(#clip140)" d="M661.371 1514.29 L679.727 1514.29 L679.727 1518.22 L665.653 1518.22 L665.653 1526.7 Q666.672 1526.35 667.69 1526.19 Q668.709 1526 669.727 1526 Q675.514 1526 678.894 1529.17 Q682.274 1532.34 682.274 1537.76 Q682.274 1543.34 678.801 1546.44 Q675.329 1549.52 669.01 1549.52 Q666.834 1549.52 664.565 1549.15 Q662.32 1548.78 659.913 1548.04 L659.913 1543.34 Q661.996 1544.47 664.218 1545.03 Q666.44 1545.58 668.917 1545.58 Q672.922 1545.58 675.26 1543.48 Q677.598 1541.37 677.598 1537.76 Q677.598 1534.15 675.26 1532.04 Q672.922 1529.94 668.917 1529.94 Q667.042 1529.94 665.167 1530.35 Q663.315 1530.77 661.371 1531.65 L661.371 1514.29 Z" fill="#000000" fill-rule="nonzero" fill-opacity="1"></path><path clip-path="url(#clip140)" d="M701.486 1517.37 Q697.875 1517.37 696.047 1520.93 Q694.241 1524.47 694.241 1531.6 Q694.241 1538.71 696.047 1542.27 Q697.875 1545.82 701.486 1545.82 Q705.121 1545.82 706.926 1542.27 Q708.755 1538.71 708.755 1531.6 Q708.755 1524.47 706.926 1520.93 Q705.121 1517.37 701.486 1517.37 M701.486 1513.66 Q707.297 1513.66 710.352 1518.27 Q713.431 1522.85 713.431 1531.6 Q713.431 1540.33 710.352 1544.94 Q707.297 1549.52 701.486 1549.52 Q695.676 1549.52 692.598 1544.94 Q689.542 1540.33 689.542 1531.6 Q689.542 1522.85 692.598 1518.27 Q695.676 1513.66 701.486 1513.66 Z" fill="#000000" fill-rule="nonzero" fill-opacity="1"></path><path clip-path="url(#clip140)" d="M731.648 1517.37 Q728.037 1517.37 726.208 1520.93 Q724.403 1524.47 724.403 1531.6 Q724.403 1538.71 726.208 1542.27 Q728.037 1545.82 731.648 1545.82 Q735.282 1545.82 737.088 1542.27 Q738.917 1538.71 738.917 1531.6 Q738.917 1524.47 737.088 1520.93 Q735.282 1517.37 731.648 1517.37 M731.648 1513.66 Q737.458 1513.66 740.514 1518.27 Q743.593 1522.85 743.593 1531.6 Q743.593 1540.33 740.514 1544.94 Q737.458 1549.52 731.648 1549.52 Q725.838 1549.52 722.759 1544.94 Q719.704 1540.33 719.704 1531.6 Q719.704 1522.85 722.759 1518.27 Q725.838 1513.66 731.648 1513.66 Z" fill="#000000" fill-rule="nonzero" fill-opacity="1"></path><path clip-path="url(#clip140)" d="M1086.99 1544.91 L1094.63 1544.91 L1094.63 1518.55 L1086.32 1520.21 L1086.32 1515.95 L1094.59 1514.29 L1099.26 1514.29 L1099.26 1544.91 L1106.9 1544.91 L1106.9 1548.85 L1086.99 1548.85 L1086.99 1544.91 Z" fill="#000000" fill-rule="nonzero" fill-opacity="1"></path><path clip-path="url(#clip140)" d="M1126.35 1517.37 Q1122.74 1517.37 1120.91 1520.93 Q1119.1 1524.47 1119.1 1531.6 Q1119.1 1538.71 1120.91 1542.27 Q1122.74 1545.82 1126.35 1545.82 Q1129.98 1545.82 1131.79 1542.27 Q1133.61 1538.71 1133.61 1531.6 Q1133.61 1524.47 1131.79 1520.93 Q1129.98 1517.37 1126.35 1517.37 M1126.35 1513.66 Q1132.16 1513.66 1135.21 1518.27 Q1138.29 1522.85 1138.29 1531.6 Q1138.29 1540.33 1135.21 1544.94 Q1132.16 1549.52 1126.35 1549.52 Q1120.54 1549.52 1117.46 1544.94 Q1114.4 1540.33 1114.4 1531.6 Q1114.4 1522.85 1117.46 1518.27 Q1120.54 1513.66 1126.35 1513.66 Z" fill="#000000" fill-rule="nonzero" fill-opacity="1"></path><path clip-path="url(#clip140)" d="M1156.51 1517.37 Q1152.9 1517.37 1151.07 1520.93 Q1149.26 1524.47 1149.26 1531.6 Q1149.26 1538.71 1151.07 1542.27 Q1152.9 1545.82 1156.51 1545.82 Q1160.14 1545.82 1161.95 1542.27 Q1163.78 1538.71 1163.78 1531.6 Q1163.78 1524.47 1161.95 1520.93 Q1160.14 1517.37 1156.51 1517.37 M1156.51 1513.66 Q1162.32 1513.66 1165.37 1518.27 Q1168.45 1522.85 1168.45 1531.6 Q1168.45 1540.33 1165.37 1544.94 Q1162.32 1549.52 1156.51 1549.52 Q1150.7 1549.52 1147.62 1544.94 Q1144.56 1540.33 1144.56 1531.6 Q1144.56 1522.85 1147.62 1518.27 Q1150.7 1513.66 1156.51 1513.66 Z" fill="#000000" fill-rule="nonzero" fill-opacity="1"></path><path clip-path="url(#clip140)" d="M1186.67 1517.37 Q1183.06 1517.37 1181.23 1520.93 Q1179.42 1524.47 1179.42 1531.6 Q1179.42 1538.71 1181.23 1542.27 Q1183.06 1545.82 1186.67 1545.82 Q1190.3 1545.82 1192.11 1542.27 Q1193.94 1538.71 1193.94 1531.6 Q1193.94 1524.47 1192.11 1520.93 Q1190.3 1517.37 1186.67 1517.37 M1186.67 1513.66 Q1192.48 1513.66 1195.54 1518.27 Q1198.61 1522.85 1198.61 1531.6 Q1198.61 1540.33 1195.54 1544.94 Q1192.48 1549.52 1186.67 1549.52 Q1180.86 1549.52 1177.78 1544.94 Q1174.73 1540.33 1174.73 1531.6 Q1174.73 1522.85 1177.78 1518.27 Q1180.86 1513.66 1186.67 1513.66 Z" fill="#000000" fill-rule="nonzero" fill-opacity="1"></path><path clip-path="url(#clip140)" d="M1527.71 1544.91 L1535.35 1544.91 L1535.35 1518.55 L1527.04 1520.21 L1527.04 1515.95 L1535.3 1514.29 L1539.98 1514.29 L1539.98 1544.91 L1547.62 1544.91 L1547.62 1548.85 L1527.71 1548.85 L1527.71 1544.91 Z" fill="#000000" fill-rule="nonzero" fill-opacity="1"></path><path clip-path="url(#clip140)" d="M1557.11 1514.29 L1575.47 1514.29 L1575.47 1518.22 L1561.39 1518.22 L1561.39 1526.7 Q1562.41 1526.35 1563.43 1526.19 Q1564.45 1526 1565.47 1526 Q1571.25 1526 1574.63 1529.17 Q1578.01 1532.34 1578.01 1537.76 Q1578.01 1543.34 1574.54 1546.44 Q1571.07 1549.52 1564.75 1549.52 Q1562.57 1549.52 1560.3 1549.15 Q1558.06 1548.78 1555.65 1548.04 L1555.65 1543.34 Q1557.73 1544.47 1559.96 1545.03 Q1562.18 1545.58 1564.66 1545.58 Q1568.66 1545.58 1571 1543.48 Q1573.34 1541.37 1573.34 1537.76 Q1573.34 1534.15 1571 1532.04 Q1568.66 1529.94 1564.66 1529.94 Q1562.78 1529.94 1560.91 1530.35 Q1559.05 1530.77 1557.11 1531.65 L1557.11 1514.29 Z" fill="#000000" fill-rule="nonzero" fill-opacity="1"></path><path clip-path="url(#clip140)" d="M1597.22 1517.37 Q1593.61 1517.37 1591.79 1520.93 Q1589.98 1524.47 1589.98 1531.6 Q1589.98 1538.71 1591.79 1542.27 Q1593.61 1545.82 1597.22 1545.82 Q1600.86 1545.82 1602.66 1542.27 Q1604.49 1538.71 1604.49 1531.6 Q1604.49 1524.47 1602.66 1520.93 Q1600.86 1517.37 1597.22 1517.37 M1597.22 1513.66 Q1603.03 1513.66 1606.09 1518.27 Q1609.17 1522.85 1609.17 1531.6 Q1609.17 1540.33 1606.09 1544.94 Q1603.03 1549.52 1597.22 1549.52 Q1591.41 1549.52 1588.34 1544.94 Q1585.28 1540.33 1585.28 1531.6 Q1585.28 1522.85 1588.34 1518.27 Q1591.41 1513.66 1597.22 1513.66 Z" fill="#000000" fill-rule="nonzero" fill-opacity="1"></path><path clip-path="url(#clip140)" d="M1627.39 1517.37 Q1623.78 1517.37 1621.95 1520.93 Q1620.14 1524.47 1620.14 1531.6 Q1620.14 1538.71 1621.95 1542.27 Q1623.78 1545.82 1627.39 1545.82 Q1631.02 1545.82 1632.83 1542.27 Q1634.66 1538.71 1634.66 1531.6 Q1634.66 1524.47 1632.83 1520.93 Q1631.02 1517.37 1627.39 1517.37 M1627.39 1513.66 Q1633.2 1513.66 1636.25 1518.27 Q1639.33 1522.85 1639.33 1531.6 Q1639.33 1540.33 1636.25 1544.94 Q1633.2 1549.52 1627.39 1549.52 Q1621.58 1549.52 1618.5 1544.94 Q1615.44 1540.33 1615.44 1531.6 Q1615.44 1522.85 1618.5 1518.27 Q1621.58 1513.66 1627.39 1513.66 Z" fill="#000000" fill-rule="nonzero" fill-opacity="1"></path><path clip-path="url(#clip140)" d="M1972.51 1544.91 L1988.83 1544.91 L1988.83 1548.85 L1966.89 1548.85 L1966.89 1544.91 Q1969.55 1542.16 1974.13 1537.53 Q1978.74 1532.88 1979.92 1531.53 Q1982.17 1529.01 1983.05 1527.27 Q1983.95 1525.51 1983.95 1523.82 Q1983.95 1521.07 1982 1519.33 Q1980.08 1517.6 1976.98 1517.6 Q1974.78 1517.6 1972.33 1518.36 Q1969.9 1519.13 1967.12 1520.68 L1967.12 1515.95 Q1969.94 1514.82 1972.4 1514.24 Q1974.85 1513.66 1976.89 1513.66 Q1982.26 1513.66 1985.45 1516.35 Q1988.65 1519.03 1988.65 1523.52 Q1988.65 1525.65 1987.84 1527.57 Q1987.05 1529.47 1984.94 1532.07 Q1984.37 1532.74 1981.26 1535.95 Q1978.16 1539.15 1972.51 1544.91 Z" fill="#000000" fill-rule="nonzero" fill-opacity="1"></path><path clip-path="url(#clip140)" d="M2008.65 1517.37 Q2005.04 1517.37 2003.21 1520.93 Q2001.4 1524.47 2001.4 1531.6 Q2001.4 1538.71 2003.21 1542.27 Q2005.04 1545.82 2008.65 1545.82 Q2012.28 1545.82 2014.09 1542.27 Q2015.92 1538.71 2015.92 1531.6 Q2015.92 1524.47 2014.09 1520.93 Q2012.28 1517.37 2008.65 1517.37 M2008.65 1513.66 Q2014.46 1513.66 2017.51 1518.27 Q2020.59 1522.85 2020.59 1531.6 Q2020.59 1540.33 2017.51 1544.94 Q2014.46 1549.52 2008.65 1549.52 Q2002.84 1549.52 1999.76 1544.94 Q1996.7 1540.33 1996.7 1531.6 Q1996.7 1522.85 1999.76 1518.27 Q2002.84 1513.66 2008.65 1513.66 Z" fill="#000000" fill-rule="nonzero" fill-opacity="1"></path><path clip-path="url(#clip140)" d="M2038.81 1517.37 Q2035.2 1517.37 2033.37 1520.93 Q2031.56 1524.47 2031.56 1531.6 Q2031.56 1538.71 2033.37 1542.27 Q2035.2 1545.82 2038.81 1545.82 Q2042.44 1545.82 2044.25 1542.27 Q2046.08 1538.71 2046.08 1531.6 Q2046.08 1524.47 2044.25 1520.93 Q2042.44 1517.37 2038.81 1517.37 M2038.81 1513.66 Q2044.62 1513.66 2047.68 1518.27 Q2050.75 1522.85 2050.75 1531.6 Q2050.75 1540.33 2047.68 1544.94 Q2044.62 1549.52 2038.81 1549.52 Q2033 1549.52 2029.92 1544.94 Q2026.87 1540.33 2026.87 1531.6 Q2026.87 1522.85 2029.92 1518.27 Q2033 1513.66 2038.81 1513.66 Z" fill="#000000" fill-rule="nonzero" fill-opacity="1"></path><path clip-path="url(#clip140)" d="M2068.97 1517.37 Q2065.36 1517.37 2063.53 1520.93 Q2061.73 1524.47 2061.73 1531.6 Q2061.73 1538.71 2063.53 1542.27 Q2065.36 1545.82 2068.97 1545.82 Q2072.61 1545.82 2074.41 1542.27 Q2076.24 1538.71 2076.24 1531.6 Q2076.24 1524.47 2074.41 1520.93 Q2072.61 1517.37 2068.97 1517.37 M2068.97 1513.66 Q2074.78 1513.66 2077.84 1518.27 Q2080.92 1522.85 2080.92 1531.6 Q2080.92 1540.33 2077.84 1544.94 Q2074.78 1549.52 2068.97 1549.52 Q2063.16 1549.52 2060.08 1544.94 Q2057.03 1540.33 2057.03 1531.6 Q2057.03 1522.85 2060.08 1518.27 Q2063.16 1513.66 2068.97 1513.66 Z" fill="#000000" fill-rule="nonzero" fill-opacity="1"></path><polyline clip-path="url(#clip142)" style="stroke:#000000; stroke-linecap:round; stroke-linejoin:round; stroke-width:2; stroke-opacity:0.1; fill:none" points="201.019,933.477 2352.76,933.477 "></polyline>
<polyline clip-path="url(#clip142)" style="stroke:#000000; stroke-linecap:round; stroke-linejoin:round; stroke-width:2; stroke-opacity:0.1; fill:none" points="201.019,421.238 2352.76,421.238 "></polyline>
<polyline clip-path="url(#clip142)" style="stroke:#000000; stroke-linecap:round; stroke-linejoin:round; stroke-width:2; stroke-opacity:0.1; fill:none" points="201.019,242.218 2352.76,242.218 "></polyline>
<polyline clip-path="url(#clip142)" style="stroke:#000000; stroke-linecap:round; stroke-linejoin:round; stroke-width:2; stroke-opacity:0.1; fill:none" points="201.019,165.118 2352.76,165.118 "></polyline>
<polyline clip-path="url(#clip142)" style="stroke:#000000; stroke-linecap:round; stroke-linejoin:round; stroke-width:2; stroke-opacity:0.1; fill:none" points="201.019,88.0187 2352.76,88.0187 "></polyline>
<polyline clip-path="url(#clip140)" style="stroke:#000000; stroke-linecap:round; stroke-linejoin:round; stroke-width:4; stroke-opacity:1; fill:none" points="201.019,1486.45 201.019,47.2441 "></polyline>
<polyline clip-path="url(#clip140)" style="stroke:#000000; stroke-linecap:round; stroke-linejoin:round; stroke-width:4; stroke-opacity:1; fill:none" points="201.019,933.477 219.917,933.477 "></polyline>
<polyline clip-path="url(#clip140)" style="stroke:#000000; stroke-linecap:round; stroke-linejoin:round; stroke-width:4; stroke-opacity:1; fill:none" points="201.019,421.238 219.917,421.238 "></polyline>
<polyline clip-path="url(#clip140)" style="stroke:#000000; stroke-linecap:round; stroke-linejoin:round; stroke-width:4; stroke-opacity:1; fill:none" points="201.019,242.218 219.917,242.218 "></polyline>
<polyline clip-path="url(#clip140)" style="stroke:#000000; stroke-linecap:round; stroke-linejoin:round; stroke-width:4; stroke-opacity:1; fill:none" points="201.019,165.118 219.917,165.118 "></polyline>
<polyline clip-path="url(#clip140)" style="stroke:#000000; stroke-linecap:round; stroke-linejoin:round; stroke-width:4; stroke-opacity:1; fill:none" points="201.019,88.0187 219.917,88.0187 "></polyline>
<path clip-path="url(#clip140)" d="M145.112 946.822 L152.751 946.822 L152.751 920.456 L144.441 922.123 L144.441 917.863 L152.705 916.197 L157.38 916.197 L157.38 946.822 L165.019 946.822 L165.019 950.757 L145.112 950.757 L145.112 946.822 Z" fill="#000000" fill-rule="nonzero" fill-opacity="1"></path><path clip-path="url(#clip140)" d="M83.5614 434.583 L91.2002 434.583 L91.2002 408.217 L82.8901 409.884 L82.8901 405.624 L91.1539 403.958 L95.8298 403.958 L95.8298 434.583 L103.469 434.583 L103.469 438.518 L83.5614 438.518 L83.5614 434.583 Z" fill="#000000" fill-rule="nonzero" fill-opacity="1"></path><path clip-path="url(#clip140)" d="M122.913 407.036 Q119.302 407.036 117.473 410.601 Q115.668 414.143 115.668 421.273 Q115.668 428.379 117.473 431.944 Q119.302 435.485 122.913 435.485 Q126.547 435.485 128.353 431.944 Q130.182 428.379 130.182 421.273 Q130.182 414.143 128.353 410.601 Q126.547 407.036 122.913 407.036 M122.913 403.333 Q128.723 403.333 131.779 407.939 Q134.857 412.523 134.857 421.273 Q134.857 429.999 131.779 434.606 Q128.723 439.189 122.913 439.189 Q117.103 439.189 114.024 434.606 Q110.969 429.999 110.969 421.273 Q110.969 412.523 114.024 407.939 Q117.103 403.333 122.913 403.333 Z" fill="#000000" fill-rule="nonzero" fill-opacity="1"></path><path clip-path="url(#clip140)" d="M153.075 407.036 Q149.464 407.036 147.635 410.601 Q145.83 414.143 145.83 421.273 Q145.83 428.379 147.635 431.944 Q149.464 435.485 153.075 435.485 Q156.709 435.485 158.515 431.944 Q160.343 428.379 160.343 421.273 Q160.343 414.143 158.515 410.601 Q156.709 407.036 153.075 407.036 M153.075 403.333 Q158.885 403.333 161.941 407.939 Q165.019 412.523 165.019 421.273 Q165.019 429.999 161.941 434.606 Q158.885 439.189 153.075 439.189 Q147.265 439.189 144.186 434.606 Q141.131 429.999 141.131 421.273 Q141.131 412.523 144.186 407.939 Q147.265 403.333 153.075 403.333 Z" fill="#000000" fill-rule="nonzero" fill-opacity="1"></path><path clip-path="url(#clip140)" d="M82.7975 224.938 L101.154 224.938 L101.154 228.873 L87.0799 228.873 L87.0799 237.345 Q88.0984 236.998 89.1169 236.836 Q90.1354 236.651 91.1539 236.651 Q96.941 236.651 100.321 239.822 Q103.7 242.993 103.7 248.41 Q103.7 253.989 100.228 257.091 Q96.7558 260.169 90.4364 260.169 Q88.2604 260.169 85.9919 259.799 Q83.7466 259.429 81.3392 258.688 L81.3392 253.989 Q83.4225 255.123 85.6447 255.679 Q87.8669 256.234 90.3438 256.234 Q94.3484 256.234 96.6863 254.128 Q99.0243 252.021 99.0243 248.41 Q99.0243 244.799 96.6863 242.692 Q94.3484 240.586 90.3438 240.586 Q88.4688 240.586 86.5938 241.003 Q84.7419 241.419 82.7975 242.299 L82.7975 224.938 Z" fill="#000000" fill-rule="nonzero" fill-opacity="1"></path><path clip-path="url(#clip140)" d="M122.913 228.017 Q119.302 228.017 117.473 231.581 Q115.668 235.123 115.668 242.253 Q115.668 249.359 117.473 252.924 Q119.302 256.466 122.913 256.466 Q126.547 256.466 128.353 252.924 Q130.182 249.359 130.182 242.253 Q130.182 235.123 128.353 231.581 Q126.547 228.017 122.913 228.017 M122.913 224.313 Q128.723 224.313 131.779 228.919 Q134.857 233.503 134.857 242.253 Q134.857 250.979 131.779 255.586 Q128.723 260.169 122.913 260.169 Q117.103 260.169 114.024 255.586 Q110.969 250.979 110.969 242.253 Q110.969 233.503 114.024 228.919 Q117.103 224.313 122.913 224.313 Z" fill="#000000" fill-rule="nonzero" fill-opacity="1"></path><path clip-path="url(#clip140)" d="M153.075 228.017 Q149.464 228.017 147.635 231.581 Q145.83 235.123 145.83 242.253 Q145.83 249.359 147.635 252.924 Q149.464 256.466 153.075 256.466 Q156.709 256.466 158.515 252.924 Q160.343 249.359 160.343 242.253 Q160.343 235.123 158.515 231.581 Q156.709 228.017 153.075 228.017 M153.075 224.313 Q158.885 224.313 161.941 228.919 Q165.019 233.503 165.019 242.253 Q165.019 250.979 161.941 255.586 Q158.885 260.169 153.075 260.169 Q147.265 260.169 144.186 255.586 Q141.131 250.979 141.131 242.253 Q141.131 233.503 144.186 228.919 Q147.265 224.313 153.075 224.313 Z" fill="#000000" fill-rule="nonzero" fill-opacity="1"></path><path clip-path="url(#clip140)" d="M53.3995 178.463 L61.0384 178.463 L61.0384 152.098 L52.7282 153.764 L52.7282 149.505 L60.9921 147.838 L65.668 147.838 L65.668 178.463 L73.3068 178.463 L73.3068 182.398 L53.3995 182.398 L53.3995 178.463 Z" fill="#000000" fill-rule="nonzero" fill-opacity="1"></path><path clip-path="url(#clip140)" d="M92.7512 150.917 Q89.1401 150.917 87.3114 154.482 Q85.5058 158.023 85.5058 165.153 Q85.5058 172.259 87.3114 175.824 Q89.1401 179.366 92.7512 179.366 Q96.3854 179.366 98.1909 175.824 Q100.02 172.259 100.02 165.153 Q100.02 158.023 98.1909 154.482 Q96.3854 150.917 92.7512 150.917 M92.7512 147.213 Q98.5613 147.213 101.617 151.82 Q104.696 156.403 104.696 165.153 Q104.696 173.88 101.617 178.486 Q98.5613 183.07 92.7512 183.07 Q86.941 183.07 83.8623 178.486 Q80.8068 173.88 80.8068 165.153 Q80.8068 156.403 83.8623 151.82 Q86.941 147.213 92.7512 147.213 Z" fill="#000000" fill-rule="nonzero" fill-opacity="1"></path><path clip-path="url(#clip140)" d="M122.913 150.917 Q119.302 150.917 117.473 154.482 Q115.668 158.023 115.668 165.153 Q115.668 172.259 117.473 175.824 Q119.302 179.366 122.913 179.366 Q126.547 179.366 128.353 175.824 Q130.182 172.259 130.182 165.153 Q130.182 158.023 128.353 154.482 Q126.547 150.917 122.913 150.917 M122.913 147.213 Q128.723 147.213 131.779 151.82 Q134.857 156.403 134.857 165.153 Q134.857 173.88 131.779 178.486 Q128.723 183.07 122.913 183.07 Q117.103 183.07 114.024 178.486 Q110.969 173.88 110.969 165.153 Q110.969 156.403 114.024 151.82 Q117.103 147.213 122.913 147.213 Z" fill="#000000" fill-rule="nonzero" fill-opacity="1"></path><path clip-path="url(#clip140)" d="M153.075 150.917 Q149.464 150.917 147.635 154.482 Q145.83 158.023 145.83 165.153 Q145.83 172.259 147.635 175.824 Q149.464 179.366 153.075 179.366 Q156.709 179.366 158.515 175.824 Q160.343 172.259 160.343 165.153 Q160.343 158.023 158.515 154.482 Q156.709 150.917 153.075 150.917 M153.075 147.213 Q158.885 147.213 161.941 151.82 Q165.019 156.403 165.019 165.153 Q165.019 173.88 161.941 178.486 Q158.885 183.07 153.075 183.07 Q147.265 183.07 144.186 178.486 Q141.131 173.88 141.131 165.153 Q141.131 156.403 144.186 151.82 Q147.265 147.213 153.075 147.213 Z" fill="#000000" fill-rule="nonzero" fill-opacity="1"></path><path clip-path="url(#clip140)" d="M56.6171 101.363 L72.9365 101.363 L72.9365 105.299 L50.9921 105.299 L50.9921 101.363 Q53.6541 98.6089 58.2375 93.9793 Q62.8439 89.3265 64.0245 87.9839 Q66.2698 85.4608 67.1494 83.7247 Q68.0522 81.9655 68.0522 80.2756 Q68.0522 77.521 66.1078 75.7849 Q64.1865 74.0488 61.0847 74.0488 Q58.8856 74.0488 56.4319 74.8127 Q54.0014 75.5766 51.2236 77.1275 L51.2236 72.4053 Q54.0477 71.2711 56.5014 70.6924 Q58.955 70.1137 60.9921 70.1137 Q66.3624 70.1137 69.5568 72.7988 Q72.7513 75.484 72.7513 79.9747 Q72.7513 82.1043 71.9411 84.0256 Q71.1541 85.9238 69.0476 88.5163 Q68.4689 89.1876 65.367 92.4052 Q62.2652 95.5996 56.6171 101.363 Z" fill="#000000" fill-rule="nonzero" fill-opacity="1"></path><path clip-path="url(#clip140)" d="M92.7512 73.8173 Q89.1401 73.8173 87.3114 77.3821 Q85.5058 80.9238 85.5058 88.0534 Q85.5058 95.1598 87.3114 98.7246 Q89.1401 102.266 92.7512 102.266 Q96.3854 102.266 98.1909 98.7246 Q100.02 95.1598 100.02 88.0534 Q100.02 80.9238 98.1909 77.3821 Q96.3854 73.8173 92.7512 73.8173 M92.7512 70.1137 Q98.5613 70.1137 101.617 74.7201 Q104.696 79.3034 104.696 88.0534 Q104.696 96.7802 101.617 101.387 Q98.5613 105.97 92.7512 105.97 Q86.941 105.97 83.8623 101.387 Q80.8068 96.7802 80.8068 88.0534 Q80.8068 79.3034 83.8623 74.7201 Q86.941 70.1137 92.7512 70.1137 Z" fill="#000000" fill-rule="nonzero" fill-opacity="1"></path><path clip-path="url(#clip140)" d="M122.913 73.8173 Q119.302 73.8173 117.473 77.3821 Q115.668 80.9238 115.668 88.0534 Q115.668 95.1598 117.473 98.7246 Q119.302 102.266 122.913 102.266 Q126.547 102.266 128.353 98.7246 Q130.182 95.1598 130.182 88.0534 Q130.182 80.9238 128.353 77.3821 Q126.547 73.8173 122.913 73.8173 M122.913 70.1137 Q128.723 70.1137 131.779 74.7201 Q134.857 79.3034 134.857 88.0534 Q134.857 96.7802 131.779 101.387 Q128.723 105.97 122.913 105.97 Q117.103 105.97 114.024 101.387 Q110.969 96.7802 110.969 88.0534 Q110.969 79.3034 114.024 74.7201 Q117.103 70.1137 122.913 70.1137 Z" fill="#000000" fill-rule="nonzero" fill-opacity="1"></path><path clip-path="url(#clip140)" d="M153.075 73.8173 Q149.464 73.8173 147.635 77.3821 Q145.83 80.9238 145.83 88.0534 Q145.83 95.1598 147.635 98.7246 Q149.464 102.266 153.075 102.266 Q156.709 102.266 158.515 98.7246 Q160.343 95.1598 160.343 88.0534 Q160.343 80.9238 158.515 77.3821 Q156.709 73.8173 153.075 73.8173 M153.075 70.1137 Q158.885 70.1137 161.941 74.7201 Q165.019 79.3034 165.019 88.0534 Q165.019 96.7802 161.941 101.387 Q158.885 105.97 153.075 105.97 Q147.265 105.97 144.186 101.387 Q141.131 96.7802 141.131 88.0534 Q141.131 79.3034 144.186 74.7201 Q147.265 70.1137 153.075 70.1137 Z" fill="#000000" fill-rule="nonzero" fill-opacity="1"></path><polyline clip-path="url(#clip142)" style="stroke:#009af9; stroke-linecap:round; stroke-linejoin:round; stroke-width:4; stroke-opacity:1; fill:none" points="261.917,1445.72 262.799,1445.72 263.68,1445.72 264.562,1445.72 265.443,1445.72 266.325,1010.99 267.206,1445.72 268.088,1119.66 268.969,982.356 269.85,1026.69 270.732,1084.06 271.613,1445.72 272.495,1133.32 273.376,1445.72 274.258,1319.19 275.139,1150.88 276.02,1445.72 276.902,1445.72 277.783,976.842 278.665,1445.72 279.546,1221.29 280.428,1005.67 281.309,1022.81 282.19,1445.72 283.072,1445.72 283.953,1416.67 284.835,1058.42 285.716,1008.14 286.598,1445.72 287.479,1445.72 288.36,979.858 289.242,1381.89 290.123,1445.72 291.005,1339.78 291.886,1445.72 292.768,1007.44 293.649,1445.72 294.531,1072.26 295.412,1068.81 296.293,1114.8 297.175,1445.72 298.056,1014.51 298.938,999.735 299.819,1445.72 300.701,1445.72 301.582,1187.2 302.463,1445.72 303.345,1445.72 304.226,990.171 305.108,1188.54 305.989,1445.72 306.871,1085.93 307.752,1445.72 308.633,1445.72 309.515,963.276 310.396,1445.72 311.278,1445.72 312.159,1096.89 313.041,1124.42 313.922,1445.72 314.803,1445.72 315.685,985.904 316.566,1145.56 317.448,1445.72 318.329,1084.68 319.211,1445.72 320.092,1006.79 320.974,1445.72 321.855,1137.1 322.736,1080.86 323.618,1445.72 324.499,1102.46 325.381,976.128 326.262,1027.16 327.144,1445.72 328.025,1445.72 328.906,1445.72 329.788,1445.72 330.669,1445.72 331.551,1039.76 332.432,1445.72 333.314,1007.19 334.195,1445.72 335.076,1144.71 335.958,977.128 336.839,1038.4 337.721,1119.77 338.602,1445.72 339.484,1445.72 340.365,1074.75 341.246,1445.72 342.128,1132.54 343.009,1075.07 343.891,1124.82 344.772,1003.2 345.654,1051.7 346.535,1025.45 347.416,1166.48 348.298,1172.57 349.179,1445.71 350.061,1445.72 350.942,1445.72 351.824,1036.91 352.705,1083.4 353.587,968.541 354.468,1445.72 355.349,1445.72 356.231,1093.58 357.112,1445.72 357.994,1059.26 358.875,1445.72 359.757,988.705 360.638,1445.72 361.519,986.885 362.401,1445.72 363.282,1112.8 364.164,1075.96 365.045,980.417 365.927,1445.72 366.808,1445.72 367.689,1031.46 368.571,1445.72 369.452,1445.72 370.334,1010.94 371.215,1105.79 372.097,1445.72 372.978,1020.13 373.859,1445.72 374.741,1023.91 375.622,1006.79 376.504,992.038 377.385,1113.39 378.267,1445.72 379.148,990.312 380.03,1445.72 380.911,1445.72 381.792,1077.57 382.674,994.256 383.555,1445.72 384.437,1033.18 385.318,1283.21 386.2,986.729 387.081,1445.72 387.962,994.456 388.844,1445.72 389.725,1445.72 390.607,1103.69 391.488,1126.32 392.37,1445.72 393.251,1233.66 394.132,1445.72 395.014,1054.23 395.895,1445.72 396.777,1445.72 397.658,1142.17 398.54,1445.72 399.421,1445.71 400.302,976.21 401.184,1092.6 402.065,1001.11 402.947,1445.72 403.828,1371.75 404.71,1143.47 405.591,1008.04 406.473,1445.72 407.354,986.485 408.235,1177.7 409.117,997.874 409.998,1445.72 410.88,966.299 411.761,985.162 412.643,1445.72 413.524,1091.48 414.405,1116.97 415.287,1445.72 416.168,1445.72 417.05,1445.72 417.931,991.187 418.813,1019.02 419.694,1058.36 420.575,1445.72 421.457,1445.72 422.338,1445.72 423.22,961.795 424.101,1445.72 424.983,1445.72 425.864,965.606 426.745,1445.72 427.627,1044.65 428.508,1445.72 429.39,1445.72 430.271,1256.96 431.153,1000.11 432.034,1445.72 432.916,1016.46 433.797,1445.72 434.678,1445.72 435.56,1445.72 436.441,1445.72 437.323,1072.27 438.204,1445.72 439.086,1311.8 439.967,1008.81 440.848,1012.11 441.73,998.14 442.611,1445.72 443.493,1445.72 444.374,1056.85 445.256,1445.72 446.137,1006.57 447.018,1007.05 447.9,1445.72 448.781,994.33 449.663,1445.72 450.544,1033.25 451.426,975.795 452.307,1079.51 453.188,1082.6 454.07,990.464 454.951,973.585 455.833,1445.71 456.714,1445.72 457.596,974.513 458.477,988.309 459.358,1068.19 460.24,1445.72 461.121,1445.72 462.003,1445.72 462.884,1023.97 463.766,1098.55 464.647,1075.93 465.529,967.49 466.41,1445.72 467.291,1445.72 468.173,1416.21 469.054,993.396 469.936,1004.73 470.817,1108.64 471.699,1445.72 472.58,1024.5 473.461,1445.72 474.343,950.197 475.224,1097.58 476.106,1445.72 476.987,1116.24 477.869,1445.72 478.75,1185.36 479.631,1445.72 480.513,1445.72 481.394,1445.72 482.276,1445.72 483.157,1445.72 484.039,1178.72 484.92,1050.6 485.801,1401.66 486.683,976.441 487.564,1011.13 488.446,1445.71 489.327,1445.72 490.209,1445.72 491.09,1445.72 491.972,1445.72 492.853,1445.72 493.734,1175.97 494.616,1071.37 495.497,1337.15 496.379,977.388 497.26,1445.72 498.142,1082.64 499.023,1445.72 499.904,978.036 500.786,1445.72 501.667,1445.72 502.549,1048.97 503.43,1041.7 504.312,1076.94 505.193,1029.54 506.074,1048.01 506.956,1198.15 507.837,1080.58 508.719,1007.94 509.6,1145.74 510.482,1445.72 511.363,1197.95 512.244,1445.72 513.126,1445.72 514.007,1111.04 514.889,1008.74 515.77,1445.72 516.652,1445.72 517.533,964.847 518.415,1445.72 519.296,1040.53 520.177,1140.5 521.059,1445.72 521.94,1203.18 522.822,1112.33 523.703,1056.86 524.585,1445.72 525.466,1445.72 526.347,1099.43 527.229,1039.71 528.11,1156.31 528.992,1445.72 529.873,1445.72 530.755,1090.01 531.636,966.972 532.517,1445.72 533.399,1445.72 534.28,1445.72 535.162,1060.51 536.043,1445.72 536.925,1445.72 537.806,1445.72 538.687,1445.72 539.569,1153.17 540.45,1161.1 541.332,1445.72 542.213,1289.98 543.095,1074.68 543.976,1445.72 544.857,1445.72 545.739,1103.23 546.62,1059.49 547.502,971.197 548.383,1051.12 549.265,1141.41 550.146,1445.72 551.028,968.074 551.909,1067.75 552.79,995.743 553.672,1445.72 554.553,1142.73 555.435,1445.72 556.316,1114.79 557.198,1445.72 558.079,1445.72 558.96,1038.86 559.842,1110.79 560.723,1445.72 561.605,1445.72 562.486,1050.99 563.368,946.955 564.249,1445.72 565.13,973.803 566.012,1022.39 566.893,1001.53 567.775,1018.18 568.656,1445.72 569.538,1003.64 570.419,1038.15 571.3,1445.72 572.182,1445.72 573.063,1081.64 573.945,1215.06 574.826,1445.72 575.708,1445.72 576.589,1073.14 577.471,1445.72 578.352,1445.71 579.233,1424.28 580.115,1445.72 580.996,1445.72 581.878,1445.72 582.759,1445.72 583.641,1009.42 584.522,1445.72 585.403,1445.72 586.285,1445.72 587.166,1433.5 588.048,1445.71 588.929,1100.4 589.811,1445.72 590.692,1036.57 591.573,1445.72 592.455,1445.72 593.336,1445.72 594.218,1445.72 595.099,1097.6 595.981,1226.47 596.862,1129.73 597.743,934.939 598.625,1445.72 599.506,995.414 600.388,1103.08 601.269,1445.72 602.151,1445.72 603.032,1445.72 603.914,1445.72 604.795,1080.89 605.676,1067.61 606.558,1445.72 607.439,1140.99 608.321,1445.72 609.202,1445.72 610.084,1082.22 610.965,1033.21 611.846,1445.72 612.728,1445.72 613.609,974.511 614.491,1445.72 615.372,1237.33 616.254,1445.72 617.135,1445.72 618.016,1445.72 618.898,1026.69 619.779,1015.96 620.661,1445.72 621.542,1445.72 622.424,1445.72 623.305,1445.72 624.186,970.482 625.068,1042.96 625.949,1122.81 626.831,1347.46 627.712,1144.06 628.594,990.031 629.475,1004.48 630.356,985.602 631.238,1445.72 632.119,1445.72 633.001,1022.98 633.882,1445.72 634.764,1445.72 635.645,1134.07 636.527,1445.72 637.408,1003.31 638.289,1116.23 639.171,1445.72 640.052,1445.72 640.934,1029.14 641.815,1071.42 642.697,1119.41 643.578,1445.72 644.459,1445.72 645.341,1134.34 646.222,991.62 647.104,1067.03 647.985,1079.75 648.867,977.601 649.748,988.421 650.629,1003.3 651.511,1445.71 652.392,1023.03 653.274,1183.77 654.155,1445.72 655.037,1445.72 655.918,1445.72 656.799,1445.72 657.681,1075.35 658.562,1024.92 659.444,1445.72 660.325,1445.72 661.207,1445.72 662.088,1042.9 662.97,1123.5 663.851,1221.44 664.732,1020.57 665.614,988.919 666.495,1445.72 667.377,1022.69 668.258,986.603 669.14,1445.72 670.021,1445.72 670.902,1445.72 671.784,1416.17 672.665,1108.44 673.547,1445.72 674.428,1445.72 675.31,980.192 676.191,1445.72 677.072,1029.47 677.954,1445.72 678.835,1068.61 679.717,1445.72 680.598,1445.72 681.48,1083.62 682.361,1065.98 683.242,1445.72 684.124,1445.72 685.005,1275.98 685.887,994.927 686.768,952.215 687.65,1445.71 688.531,1056.52 689.413,1445.72 690.294,984.136 691.175,1373.67 692.057,972.944 692.938,1017.81 693.82,1105.62 694.701,986.42 695.583,1445.72 696.464,1262.38 697.345,976.786 698.227,1416.09 699.108,1085.11 699.99,1115.13 700.871,1445.72 701.753,988.058 702.634,1445.72 703.515,1055.69 704.397,1445.72 705.278,1131.43 706.16,1445.72 707.041,974.975 707.923,1368.06 708.804,1241.35 709.685,1445.72 710.567,1445.72 711.448,1445.72 712.33,983.459 713.211,1018.83 714.093,1009.82 714.974,965.77 715.855,1043.63 716.737,1445.72 717.618,1445.72 718.5,1445.72 719.381,1445.72 720.263,993.899 721.144,1445.72 722.026,1445.72 722.907,1143.06 723.788,1013.21 724.67,1445.72 725.551,1445.72 726.433,1042.33 727.314,1445.72 728.196,1090.93 729.077,1077.5 729.958,1186.88 730.84,1374.33 731.721,988.661 732.603,975.569 733.484,1445.72 734.366,1112.73 735.247,1445.72 736.128,1445.72 737.01,1420.22 737.891,1142.95 738.773,1062.5 739.654,1129.14 740.536,1085.77 741.417,1003.04 742.298,1348.79 743.18,1445.72 744.061,1048.03 744.943,1037.59 745.824,989.109 746.706,1445.72 747.587,1445.72 748.469,1048.91 749.35,1445.72 750.231,1445.72 751.113,1089.8 751.994,1150.1 752.876,1409.54 753.757,1445.72 754.639,1445.72 755.52,1445.68 756.401,1445.72 757.283,1059.46 758.164,1445.72 759.046,1445.72 759.927,1077.01 760.809,1064.86 761.69,1084.43 762.571,1445.72 763.453,1445.72 764.334,1033.51 765.216,1445.72 766.097,1000.83 766.979,970.461 767.86,1027.44 768.741,1229.23 769.623,1164.78 770.504,1155.56 771.386,1445.72 772.267,1445.72 773.149,1445.72 774.03,1445.72 774.912,1135.82 775.793,1353.77 776.674,1192.57 777.556,1097.03 778.437,996.355 779.319,1445.72 780.2,987.637 781.082,1048.54 781.963,1445.72 782.844,1155.97 783.726,1445.72 784.607,1445.71 785.489,1069.86 786.37,1445.72 787.252,980.67 788.133,1418.68 789.014,1445.72 789.896,1204.92 790.777,1445.72 791.659,1018.99 792.54,1020.76 793.422,1053.48 794.303,1445.72 795.184,1391.5 796.066,1153.33 796.947,1445.72 797.829,1041.57 798.71,1445.72 799.592,1445.72 800.473,1276.54 801.354,1183.5 802.236,1112.12 803.117,1011.4 803.999,1445.72 804.88,1445.72 805.762,1445.72 806.643,1445.72 807.525,1445.72 808.406,1039.64 809.287,1445.72 810.169,1445.72 811.05,1445.72 811.932,1445.72 812.813,1232.63 813.695,1445.72 814.576,1007.47 815.457,1445.72 816.339,1445.72 817.22,1445.72 818.102,1210.64 818.983,977.56 819.865,1445.72 820.746,1445.72 821.627,1060.64 822.509,1175.91 823.39,1223.01 824.272,980.041 825.153,965.808 826.035,997.68 826.916,1445.69 827.797,1050.17 828.679,1445.72 829.56,1114.61 830.442,1445.72 831.323,1412.27 832.205,959.856 833.086,1445.72 833.968,1445.72 834.849,1026.53 835.73,1445.72 836.612,1019.61 837.493,982.67 838.375,984.843 839.256,1445.72 840.138,1010.91 841.019,1020.81 841.9,980.998 842.782,1051.66 843.663,1107.34 844.545,984.497 845.426,1032.23 846.308,1024.05 847.189,1061.94 848.07,1445.72 848.952,1445.72 849.833,1137.72 850.715,1053.53 851.596,1445.72 852.478,958.182 853.359,1133.99 854.24,1445.72 855.122,1445.72 856.003,1445.72 856.885,983.477 857.766,1445.72 858.648,1048.05 859.529,1445.72 860.411,987.703 861.292,1445.72 862.173,1032.36 863.055,1121.57 863.936,1445.72 864.818,1002.69 865.699,1445.72 866.581,1040.84 867.462,992.434 868.343,1014.04 869.225,1445.72 870.106,996.939 870.988,1445.72 871.869,1066.74 872.751,1103.86 873.632,1445.72 874.513,1301.86 875.395,1445.72 876.276,1445.72 877.158,1445.72 878.039,1445.72 878.921,1445.72 879.802,1074.11 880.683,1115.5 881.565,1123.65 882.446,1445.72 883.328,1172.5 884.209,1445.72 885.091,1445.72 885.972,1072.67 886.853,1142.38 887.735,1009.5 888.616,1445.72 889.498,1016.91 890.379,1080.51 891.261,1445.72 892.142,1445.72 893.024,1076.3 893.905,988.403 894.786,1008.23 895.668,1040.23 896.549,1445.72 897.431,1142.78 898.312,1015.7 899.194,1175.12 900.075,991.107 900.956,1445.71 901.838,989.235 902.719,1027.88 903.601,1445.72 904.482,1328.08 905.364,1414.67 906.245,1445.72 907.126,973.353 908.008,1024.24 908.889,1445.72 909.771,1111.42 910.652,1061.8 911.534,1445.72 912.415,1445.72 913.296,1203.56 914.178,1114.43 915.059,997.792 915.941,1054.96 916.822,1445.72 917.704,1445.72 918.585,1242.45 919.467,978.9 920.348,1079.3 921.229,1445.72 922.111,1445.72 922.992,1134.37 923.874,1038.24 924.755,1023.87 925.637,993.522 926.518,972.302 927.399,1445.72 928.281,1445.72 929.162,1111.59 930.044,1000.49 930.925,1110.93 931.807,1088.75 932.688,1445.72 933.569,971.205 934.451,1445.72 935.332,1445.72 936.214,1003.36 937.095,1445.72 937.977,1445.72 938.858,1139.51 939.739,1445.72 940.621,1005.23 941.502,1040.94 942.384,1445.72 943.265,1445.72 944.147,1445.72 945.028,1065.95 945.91,1101.05 946.791,1033.44 947.672,1047.67 948.554,1028.4 949.435,1445.72 950.317,1436.28 951.198,1048.01 952.08,1053.89 952.961,1445.72 953.842,992.948 954.724,1445.71 955.605,1445.72 956.487,1000.58 957.368,1445.72 958.25,1273.2 959.131,1262.21 960.012,1445.72 960.894,1014.69 961.775,1445.69 962.657,1078.15 963.538,1051.77 964.42,981.156 965.301,1040.56 966.182,968.16 967.064,1164.7 967.945,1050.37 968.827,1211.62 969.708,1445.72 970.59,1038.36 971.471,1015.48 972.352,1090.94 973.234,1445.72 974.115,1445.72 974.997,1103.97 975.878,1445.72 976.76,1445.72 977.641,969.604 978.523,1445.72 979.404,1445.72 980.285,1057.4 981.167,1020.17 982.048,992.813 982.93,1020.03 983.811,1445.72 984.693,1445.72 985.574,1445.72 986.455,1188.96 987.337,1197.09 988.218,1380.73 989.1,1061.28 989.981,1445.72 990.863,1445.72 991.744,1017.05 992.625,1026.45 993.507,1062.08 994.388,1445.72 995.27,1445.72 996.151,1024.62 997.033,1445.72 997.914,983.18 998.795,1445.72 999.677,1445.72 1000.56,994.64 1001.44,1015.17 1002.32,1445.72 1003.2,1445.72 1004.08,1445.72 1004.97,1001.73 1005.85,1032.79 1006.73,1445.72 1007.61,1180.17 1008.49,1445.72 1009.37,1445.72 1010.25,1014.71 1011.14,952.222 1012.02,1445.72 1012.9,1083.96 1013.78,1041.24 1014.66,1445.72 1015.54,1409.65 1016.42,1445.72 1017.31,1005.28 1018.19,1046.58 1019.07,1445.72 1019.95,1445.72 1020.83,1104.76 1021.71,951.199 1022.59,1064.73 1023.48,1025.61 1024.36,1085.82 1025.24,1445.72 1026.12,1445.72 1027,1445.72 1027.88,1100.99 1028.76,1445.72 1029.65,1445.72 1030.53,983.332 1031.41,1445.72 1032.29,1445.72 1033.17,996.122 1034.05,1053.38 1034.93,994.312 1035.82,1445.72 1036.7,1147.06 1037.58,1025.83 1038.46,973.878 1039.34,1445.72 1040.22,1074.3 1041.1,1041.21 1041.99,1445.72 1042.87,1385.57 1043.75,1116.01 1044.63,975.722 1045.51,982.023 1046.39,999.889 1047.27,994.599 1048.16,1445.72 1049.04,1445.72 1049.92,1112.89 1050.8,1445.71 1051.68,1004.09 1052.56,950.015 1053.44,989.854 1054.33,1017.07 1055.21,1445.72 1056.09,1132.73 1056.97,1046.51 1057.85,1054.87 1058.73,977.408 1059.61,1374.7 1060.5,1015.96 1061.38,1013.14 1062.26,1104.29 1063.14,1317.01 1064.02,1445.72 1064.9,1086.94 1065.78,1212.79 1066.67,1061.77 1067.55,1091.76 1068.43,1445.72 1069.31,980.833 1070.19,1147.62 1071.07,1445.72 1071.95,1022.69 1072.84,1445.72 1073.72,989.823 1074.6,1445.72 1075.48,1445.72 1076.36,1008.51 1077.24,1029.38 1078.12,982.764 1079.01,1029.45 1079.89,1445.72 1080.77,996.064 1081.65,1445.72 1082.53,1050.88 1083.41,1095.49 1084.29,1096.48 1085.18,1171.27 1086.06,1239.87 1086.94,1174.16 1087.82,1077.03 1088.7,995.083 1089.58,949.344 1090.46,1445.72 1091.35,1445.72 1092.23,969.336 1093.11,1445.72 1093.99,1192.43 1094.87,1251.71 1095.75,968.849 1096.63,1445.72 1097.52,1179.2 1098.4,1050.59 1099.28,1445.72 1100.16,1445.72 1101.04,1445.72 1101.92,1445.72 1102.8,1068.89 1103.69,1445.72 1104.57,974.581 1105.45,1445.72 1106.33,1445.72 1107.21,992.286 1108.09,1445.72 1108.97,954.996 1109.86,1445.72 1110.74,1445.72 1111.62,1445.71 1112.5,1445.72 1113.38,1445.72 1114.26,1082.58 1115.14,1445.72 1116.03,1445.72 1116.91,1445.72 1117.79,1445.72 1118.67,1052.48 1119.55,990.834 1120.43,1445.72 1121.31,1132.19 1122.2,1153.78 1123.08,1235.59 1123.96,1445.72 1124.84,1038.39 1125.72,1445.72 1126.6,1445.72 1127.48,1445.71 1128.37,1445.72 1129.25,983.398 1130.13,1055.92 1131.01,1072.22 1131.89,1029.03 1132.77,1107.6 1133.65,1140.49 1134.54,1050.06 1135.42,1020.1 1136.3,1445.72 1137.18,1144.49 1138.06,1445.72 1138.94,1100.65 1139.82,1155.91 1140.71,1445.72 1141.59,1445.72 1142.47,1104.19 1143.35,980.92 1144.23,1445.72 1145.11,1445.72 1145.99,1445.72 1146.88,1445.72 1147.76,1026.1 1148.64,1445.71 1149.52,980.621 1150.4,1000.46 1151.28,1187.45 1152.16,1112.88 1153.05,1445.72 1153.93,1032.34 1154.81,1018.05 1155.69,981.765 1156.57,1028.17 1157.45,1029.99 1158.33,1445.72 1159.22,1008.65 1160.1,1260.39 1160.98,1065.67 1161.86,980.089 1162.74,998.454 1163.62,1445.72 1164.5,772.619 1165.39,824.581 1166.27,801.24 1167.15,808.851 1168.03,936.41 1168.91,728.697 1169.79,941.319 1170.67,1445.58 1171.56,934.345 1172.44,861.339 1173.32,1445.72 1174.2,933.111 1175.08,839.487 1175.96,821.309 1176.84,813.732 1177.73,1046.49 1178.61,935.257 1179.49,911.933 1180.37,769.562 1181.25,795.608 1182.13,784.583 1183.01,1445.51 1183.9,901.8 1184.78,834.695 1185.66,1445.72 1186.54,1445.52 1187.42,819.499 1188.3,1445.72 1189.19,663.394 1190.07,806.71 1190.95,1445.48 1191.83,1445.72 1192.71,1445.71 1193.59,771.006 1194.47,1445.71 1195.36,781.766 1196.24,1445.72 1197.12,1445.72 1198,1445.72 1198.88,814.696 1199.76,1445.72 1200.64,1445.47 1201.53,1445.56 1202.41,914.481 1203.29,1445.72 1204.17,1075.64 1205.05,815.017 1205.93,1445.48 1206.81,800.187 1207.7,880.19 1208.58,819.463 1209.46,754.521 1210.34,809.077 1211.22,1031.9 1212.1,827.788 1212.98,648.65 1213.87,1084.77 1214.75,1009.97 1215.63,920.611 1216.51,1445.7 1217.39,852.059 1218.27,975.003 1219.15,849.487 1220.04,811.083 1220.92,791.492 1221.8,811.014 1222.68,1445.72 1223.56,1417.42 1224.44,943.975 1225.32,775.322 1226.21,787.516 1227.09,849.855 1227.97,775.997 1228.85,668.723 1229.73,844.834 1230.61,1445.72 1231.49,1445.72 1232.38,822.327 1233.26,814.541 1234.14,845.955 1235.02,808.302 1235.9,787.847 1236.78,827.214 1237.66,1445.72 1238.55,844.904 1239.43,911.419 1240.31,735.584 1241.19,785.684 1242.07,763.698 1242.95,1445.72 1243.83,1445.5 1244.72,964.114 1245.6,783.857 1246.48,809.195 1247.36,828.038 1248.24,832.299 1249.12,928.502 1250,817.571 1250.89,1445.72 1251.77,879.667 1252.65,774.085 1253.53,827.954 1254.41,1445.46 1255.29,1445.72 1256.17,842.28 1257.06,1166.02 1257.94,1007.63 1258.82,1445.72 1259.7,994.736 1260.58,790.303 1261.46,1445.72 1262.34,1401.83 1263.23,1445.69 1264.11,1445.72 1264.99,1445.72 1265.87,1053.31 1266.75,1445.72 1267.63,773.499 1268.51,807.903 1269.4,802.57 1270.28,1445.63 1271.16,1054.69 1272.04,806.393 1272.92,1041.03 1273.8,850.33 1274.68,1445.67 1275.57,1081.96 1276.45,1445.72 1277.33,791.481 1278.21,835.18 1279.09,1445.45 1279.97,1445.56 1280.85,839.398 1281.74,790.638 1282.62,1445.67 1283.5,808.846 1284.38,1445.72 1285.26,803.998 1286.14,971.868 1287.02,770.519 1287.91,1445.72 1288.79,901.061 1289.67,1445.72 1290.55,780.991 1291.43,706.442 1292.31,747.222 1293.19,1445.72 1294.08,1445.72 1294.96,1445.72 1295.84,797.144 1296.72,685.261 1297.6,1445.71 1298.48,1445.72 1299.36,744.386 1300.25,827.736 1301.13,1445.46 1302.01,1433.57 1302.89,1443.67 1303.77,814.179 1304.65,743.765 1305.53,1445.72 1306.42,787.957 1307.3,777.931 1308.18,1445.72 1309.06,785.178 1309.94,960.751 1310.82,1445.46 1311.7,825.031 1312.59,1316.66 1313.47,845.307 1314.35,817.672 1315.23,1445.55 1316.11,1445.72 1316.99,976.007 1317.87,788.356 1318.76,874.805 1319.64,1445.72 1320.52,1445.72 1321.4,730.934 1322.28,1445.71 1323.16,1445.5 1324.04,889.537 1324.93,823.698 1325.81,984.11 1326.69,1445.72 1327.57,1445.72 1328.45,1445.72 1329.33,793.334 1330.21,779.659 1331.1,1445.52 1331.98,789.783 1332.86,831.346 1333.74,741.343 1334.62,824.133 1335.5,817.016 1336.38,807.77 1337.27,814.204 1338.15,788.431 1339.03,840.575 1339.91,895.552 1340.79,721.701 1341.67,1445.65 1342.55,1445.72 1343.44,805.063 1344.32,1445.72 1345.2,796.632 1346.08,1445.53 1346.96,814.167 1347.84,780.413 1348.72,977.713 1349.61,1445.67 1350.49,825.706 1351.37,1445.6 1352.25,869.585 1353.13,735.624 1354.01,819.81 1354.89,837.185 1355.78,1445.72 1356.66,1017.45 1357.54,1445.51 1358.42,837.725 1359.3,1445.52 1360.18,985.25 1361.06,1445.64 1361.95,858.544 1362.83,864.33 1363.71,745.417 1364.59,788.075 1365.47,758.779 1366.35,1413.36 1367.23,1445.5 1368.12,1445.54 1369,795.535 1369.88,798.017 1370.76,1445.72 1371.64,829.419 1372.52,1063.08 1373.4,805.091 1374.29,776.128 1375.17,744.349 1376.05,777.551 1376.93,843.664 1377.81,1445.72 1378.69,828.255 1379.57,1410.72 1380.46,835.377 1381.34,825.528 1382.22,778.546 1383.1,822.406 1383.98,950.928 1384.86,701.102 1385.74,832.561 1386.63,818.267 1387.51,758.669 1388.39,820.766 1389.27,1018 1390.15,1445.64 1391.03,825.801 1391.91,826.827 1392.8,1445.68 1393.68,838.529 1394.56,844.893 1395.44,835.002 1396.32,819.856 1397.2,1445.48 1398.08,1445.7 1398.97,777.299 1399.85,1041.83 1400.73,774.404 1401.61,795.137 1402.49,809.599 1403.37,874.903 1404.25,1445.57 1405.14,1202.88 1406.02,880.62 1406.9,1445.49 1407.78,846.562 1408.66,915.276 1409.54,839.748 1410.42,1445.49 1411.31,808.226 1412.19,891.69 1413.07,787.339 1413.95,805.161 1414.83,801.229 1415.71,996.213 1416.59,880.731 1417.48,716.341 1418.36,829.435 1419.24,780.809 1420.12,1028.01 1421,841.197 1421.88,1445.46 1422.76,939.652 1423.65,791.972 1424.53,840.994 1425.41,1445.62 1426.29,816.675 1427.17,824.292 1428.05,1445.72 1428.93,1030.86 1429.82,1445.63 1430.7,1445.72 1431.58,1139.7 1432.46,843.579 1433.34,835.943 1434.22,1445.57 1435.1,1445.72 1435.99,876.747 1436.87,1445.52 1437.75,754.37 1438.63,1445.53 1439.51,1445.72 1440.39,1114.54 1441.27,788.267 1442.16,1043.45 1443.04,747.125 1443.92,1445.61 1444.8,1031.08 1445.68,1445.72 1446.56,783.524 1447.44,1443.05 1448.33,1025.7 1449.21,748.696 1450.09,1121.23 1450.97,768.426 1451.85,794.473 1452.73,805.393 1453.61,795.071 1454.5,774.296 1455.38,816.574 1456.26,949.191 1457.14,1445.61 1458.02,825.896 1458.9,1445.72 1459.78,846.202 1460.67,1445.52 1461.55,782.909 1462.43,750.958 1463.31,1445.72 1464.19,777.759 1465.07,1445.57 1465.95,1427.59 1466.84,1445.72 1467.72,782.407 1468.6,796.425 1469.48,1445.72 1470.36,981.26 1471.24,842.986 1472.13,1445.72 1473.01,735.813 1473.89,833.755 1474.77,1103.68 1475.65,920.106 1476.53,1445.51 1477.41,1445.72 1478.3,774.751 1479.18,1445.62 1480.06,1445.52 1480.94,792.089 1481.82,850.295 1482.7,1445.44 1483.58,845.641 1484.47,855.821 1485.35,1445.72 1486.23,826.859 1487.11,953.217 1487.99,1214.18 1488.87,794.154 1489.75,1445.44 1490.64,884.857 1491.52,1445.72 1492.4,1090.18 1493.28,883.913 1494.16,820.738 1495.04,680.308 1495.92,832.047 1496.81,1445.44 1497.69,1445.61 1498.57,1445.72 1499.45,920.639 1500.33,839.377 1501.21,789.031 1502.09,842.783 1502.98,871.794 1503.86,847.996 1504.74,823.159 1505.62,1445.72 1506.5,966.504 1507.38,1445.45 1508.26,806.296 1509.15,817.17 1510.03,1099.24 1510.91,1445.72 1511.79,803.086 1512.67,1445.72 1513.55,1445.59 1514.43,824.755 1515.32,836.402 1516.2,807.776 1517.08,913.641 1517.96,778.022 1518.84,1445.67 1519.72,1079.78 1520.6,1445.51 1521.49,1104.81 1522.37,1394.29 1523.25,1445.72 1524.13,792.927 1525.01,1445.47 1525.89,1445.47 1526.77,824.401 1527.66,1445.67 1528.54,892.058 1529.42,810.976 1530.3,754.456 1531.18,775.288 1532.06,747.38 1532.94,1055.57 1533.83,905.09 1534.71,1445.65 1535.59,992.268 1536.47,823.957 1537.35,1441.07 1538.23,773.923 1539.11,785.359 1540,831.179 1540.88,821.836 1541.76,903.463 1542.64,827.122 1543.52,845.153 1544.4,1033.23 1545.28,1180.32 1546.17,836.065 1547.05,810.492 1547.93,951.684 1548.81,780.773 1549.69,1445.5 1550.57,880.658 1551.45,1445.72 1552.34,1445.59 1553.22,1445.47 1554.1,1445.61 1554.98,775.473 1555.86,1445.72 1556.74,773.513 1557.62,1016.05 1558.51,782.97 1559.39,732.672 1560.27,1036.4 1561.15,1445.72 1562.03,1445.72 1562.91,1445.72 1563.79,1445.49 1564.68,1445.72 1565.56,785.741 1566.44,795.095 1567.32,813.044 1568.2,1445.72 1569.08,1445.72 1569.96,1445.72 1570.85,842.907 1571.73,856.878 1572.61,832.649 1573.49,838.961 1574.37,1445.72 1575.25,1037.06 1576.13,816.741 1577.02,845.345 1577.9,1445.48 1578.78,790.687 1579.66,1445.68 1580.54,853.505 1581.42,1063.76 1582.3,1032.32 1583.19,807.038 1584.07,1445.6 1584.95,847.99 1585.83,1445.72 1586.71,1445.46 1587.59,803.336 1588.47,1445.5 1589.36,824.826 1590.24,862.936 1591.12,788.601 1592,865.267 1592.88,962.375 1593.76,981.779 1594.64,765.364 1595.53,964.081 1596.41,848.491 1597.29,1015.99 1598.17,784.064 1599.05,1445.64 1599.93,1445.66 1600.81,837.452 1601.7,801.919 1602.58,1440.35 1603.46,709.507 1604.34,773.543 1605.22,1445.44 1606.1,774.175 1606.98,1445.72 1607.87,831.832 1608.75,878.567 1609.63,828.008 1610.51,1445.45 1611.39,852.691 1612.27,1445.72 1613.15,764.635 1614.04,794.75 1614.92,821.934 1615.8,1441.83 1616.68,545.792 1617.56,713.805 1618.44,563.249 1619.32,514.479 1620.21,552.438 1621.09,785.518 1621.97,541.02 1622.85,543.26 1623.73,575.796 1624.61,682.421 1625.49,558.103 1626.38,550.607 1627.26,598.179 1628.14,540.488 1629.02,1441.36 1629.9,1441.32 1630.78,770.532 1631.66,526.31 1632.55,525.278 1633.43,511.933 1634.31,547.07 1635.19,514.468 1636.07,515.865 1636.95,486.73 1637.83,544.547 1638.72,536.217 1639.6,561.929 1640.48,758.98 1641.36,577.357 1642.24,1442.08 1643.12,1441.49 1644,394.193 1644.89,1441.81 1645.77,522.63 1646.65,796.83 1647.53,480.337 1648.41,531.215 1649.29,573.716 1650.17,1441.98 1651.06,557.438 1651.94,531.533 1652.82,540.807 1653.7,703.75 1654.58,586.177 1655.46,489.397 1656.34,574.879 1657.23,570.417 1658.11,530.836 1658.99,551.624 1659.87,485.148 1660.75,561.972 1661.63,570.175 1662.51,476.816 1663.4,579.945 1664.28,568.266 1665.16,609.546 1666.04,548.796 1666.92,511.567 1667.8,552.074 1668.68,1441.41 1669.57,503.882 1670.45,699.496 1671.33,525.437 1672.21,540.206 1673.09,526.889 1673.97,559.359 1674.85,473.183 1675.74,521.875 1676.62,1441.95 1677.5,460.458 1678.38,520.388 1679.26,1441.55 1680.14,1441.61 1681.02,531.627 1681.91,584.969 1682.79,542.32 1683.67,1441.77 1684.55,574.546 1685.43,586.792 1686.31,1441.23 1687.19,530.961 1688.08,420.647 1688.96,507.021 1689.84,762.144 1690.72,502.223 1691.6,827.641 1692.48,542.025 1693.36,548.646 1694.25,567.605 1695.13,521.505 1696.01,571.79 1696.89,514.226 1697.77,526.635 1698.65,699.877 1699.53,570.262 1700.42,516.382 1701.3,562.921 1702.18,481.134 1703.06,561.673 1703.94,529.567 1704.82,517.644 1705.7,560.673 1706.59,532.802 1707.47,534.191 1708.35,542.9 1709.23,509.091 1710.11,519.492 1710.99,475.792 1711.87,524.785 1712.76,550.813 1713.64,501.676 1714.52,559.309 1715.4,551.566 1716.28,732.589 1717.16,562.517 1718.04,562.181 1718.93,530.281 1719.81,1441.59 1720.69,1441.94 1721.57,724.366 1722.45,502.79 1723.33,507.422 1724.21,541.924 1725.1,437.205 1725.98,1441.66 1726.86,563.711 1727.74,536.84 1728.62,1441.58 1729.5,569.093 1730.38,510.469 1731.27,558.575 1732.15,521.173 1733.03,776.775 1733.91,508.202 1734.79,520.73 1735.67,1442.37 1736.55,1441.4 1737.44,480.747 1738.32,700.819 1739.2,532.985 1740.08,1442 1740.96,568.007 1741.84,496.272 1742.72,558.035 1743.61,583.955 1744.49,572.532 1745.37,660.42 1746.25,616.231 1747.13,749.415 1748.01,757.713 1748.89,578.276 1749.78,513.522 1750.66,564.881 1751.54,571.81 1752.42,596.901 1753.3,551.346 1754.18,575.306 1755.07,522.504 1755.95,550.137 1756.83,503.302 1757.71,717.099 1758.59,579.352 1759.47,1441.99 1760.35,755.439 1761.24,1441.6 1762.12,543.878 1763,555.486 1763.88,484.456 1764.76,1441.51 1765.64,508.341 1766.52,505.63 1767.41,577.425 1768.29,494.398 1769.17,397.694 1770.05,1442.1 1770.93,569.457 1771.81,1441.37 1772.69,669.755 1773.58,714.322 1774.46,514.494 1775.34,547.397 1776.22,529.365 1777.1,546.895 1777.98,599.718 1778.86,561.614 1779.75,531.329 1780.63,535.681 1781.51,432.743 1782.39,547.445 1783.27,1441.35 1784.15,509.79 1785.03,577.298 1785.92,530.638 1786.8,496.928 1787.68,516.648 1788.56,563.019 1789.44,514.323 1790.32,534.872 1791.2,565.316 1792.09,558.99 1792.97,557.53 1793.85,606.234 1794.73,568.458 1795.61,547.884 1796.49,544.717 1797.37,526.979 1798.26,535.959 1799.14,1442.57 1800.02,784.148 1800.9,480.067 1801.78,780.493 1802.66,575.506 1803.54,519.942 1804.43,519.628 1805.31,545.965 1806.19,559.034 1807.07,1441.3 1807.95,545.304 1808.83,548.448 1809.71,1441.07 1810.6,543.346 1811.48,779.448 1812.36,537.161 1813.24,1442.31 1814.12,519.108 1815,737.64 1815.88,548.83 1816.77,502.672 1817.65,526.768 1818.53,533.71 1819.41,1441.75 1820.29,1441.89 1821.17,482.855 1822.05,551.328 1822.94,521.056 1823.82,462.265 1824.7,572.214 1825.58,572.607 1826.46,554.26 1827.34,736.152 1828.22,533.268 1829.11,556.15 1829.99,1441.97 1830.87,573.292 1831.75,549.737 1832.63,566.28 1833.51,536.437 1834.39,550.987 1835.28,755.437 1836.16,564.992 1837.04,551.612 1837.92,565.059 1838.8,516.227 1839.68,744.546 1840.56,541.025 1841.45,548.765 1842.33,552.36 1843.21,569.021 1844.09,508.84 1844.97,574.867 1845.85,1441.47 1846.73,572.966 1847.62,496.845 1848.5,566.443 1849.38,543.779 1850.26,869.669 1851.14,562.5 1852.02,1442.42 1852.9,540.023 1853.79,508.756 1854.67,1441.76 1855.55,1441.59 1856.43,643.963 1857.31,527.901 1858.19,512.001 1859.07,1441.79 1859.96,535.342 1860.84,541.59 1861.72,757.621 1862.6,552.593 1863.48,520.149 1864.36,692.32 1865.24,554.74 1866.13,1441.7 1867.01,476.479 1867.89,534.798 1868.77,544.873 1869.65,583.554 1870.53,537.867 1871.41,558.583 1872.3,1441.68 1873.18,595.964 1874.06,514.773 1874.94,695.174 1875.82,492.466 1876.7,548.088 1877.58,508.366 1878.47,538.921 1879.35,1442.53 1880.23,516.248 1881.11,578.824 1881.99,553.653 1882.87,579.324 1883.75,831.131 1884.64,777.532 1885.52,568.075 1886.4,550.343 1887.28,1441.84 1888.16,577.433 1889.04,713.772 1889.92,562.028 1890.81,1441.84 1891.69,488.445 1892.57,546.27 1893.45,508.233 1894.33,732.777 1895.21,722.994 1896.09,550.402 1896.98,605.348 1897.86,405.337 1898.74,769.808 1899.62,512.424 1900.5,785.759 1901.38,573.725 1902.26,1441.38 1903.15,1441.12 1904.03,496.519 1904.91,1441.33 1905.79,1442.03 1906.67,524.53 1907.55,487.799 1908.43,505.259 1909.32,543.684 1910.2,580.504 1911.08,523.657 1911.96,519.507 1912.84,1441.99 1913.72,524.429 1914.6,542.918 1915.49,512.805 1916.37,538.868 1917.25,568.704 1918.13,545.347 1919.01,490.629 1919.89,565.678 1920.77,540.888 1921.66,557.575 1922.54,563.707 1923.42,634.989 1924.3,552.846 1925.18,580.003 1926.06,733.867 1926.94,566.868 1927.83,1441.29 1928.71,511.415 1929.59,503.795 1930.47,535.801 1931.35,591.713 1932.23,583.524 1933.11,503.654 1934,1442.07 1934.88,556.911 1935.76,1441.56 1936.64,500.381 1937.52,1442.2 1938.4,726.592 1939.28,554.828 1940.17,791.529 1941.05,563.365 1941.93,1441.68 1942.81,747.141 1943.69,543.673 1944.57,514.69 1945.45,1441.87 1946.34,1441.35 1947.22,547 1948.1,628.69 1948.98,512.2 1949.86,557.721 1950.74,745.06 1951.62,518.244 1952.51,573.424 1953.39,610.439 1954.27,534.275 1955.15,1441.9 1956.03,552.826 1956.91,576.446 1957.79,480.556 1958.68,519.512 1959.56,572.408 1960.44,552.658 1961.32,537.197 1962.2,461.961 1963.08,569.848 1963.96,571.296 1964.85,528.382 1965.73,553.987 1966.61,580.047 1967.49,1442.07 1968.37,527.61 1969.25,1441.75 1970.13,542.299 1971.02,585.403 1971.9,673.399 1972.78,477.2 1973.66,718.174 1974.54,508.549 1975.42,639.869 1976.3,483.422 1977.19,427.51 1978.07,517.637 1978.95,552.61 1979.83,1442.4 1980.71,525.548 1981.59,1442.04 1982.47,532.973 1983.36,513.887 1984.24,1442.39 1985.12,510.222 1986,577.131 1986.88,648.664 1987.76,1441.45 1988.64,542.178 1989.53,479.835 1990.41,509.183 1991.29,523.738 1992.17,514.522 1993.05,1441.48 1993.93,591.144 1994.81,507.798 1995.7,543.654 1996.58,573.444 1997.46,564.226 1998.34,532.61 1999.22,539.81 2000.1,1441.41 2000.98,567.437 2001.87,460 2002.75,663.343 2003.63,533.951 2004.51,754.028 2005.39,539.579 2006.27,501.292 2007.15,519.374 2008.04,1442.18 2008.92,553.194 2009.8,733.529 2010.68,1441.96 2011.56,541.495 2012.44,577.237 2013.32,529.263 2014.21,532.801 2015.09,517.099 2015.97,1442.02 2016.85,486.53 2017.73,777.795 2018.61,502.647 2019.49,535.444 2020.38,522.981 2021.26,515.368 2022.14,541.167 2023.02,725.507 2023.9,649.221 2024.78,546.41 2025.66,514.445 2026.55,735.874 2027.43,1441.46 2028.31,578.237 2029.19,491.037 2030.07,541.677 2030.95,528.211 2031.83,535.338 2032.72,1441.86 2033.6,705.895 2034.48,547.657 2035.36,533.664 2036.24,609.813 2037.12,553.066 2038,532.668 2038.89,521.017 2039.77,713.418 2040.65,614.374 2041.53,1441.4 2042.41,573.655 2043.29,542.577 2044.18,745.577 2045.06,1442.24 2045.94,568.975 2046.82,1441.52 2047.7,1441.8 2048.58,1440.97 2049.46,518.577 2050.35,694.628 2051.23,540.931 2052.11,547.602 2052.99,512.508 2053.87,519.646 2054.75,579.807 2055.63,536.065 2056.52,527.958 2057.4,585.208 2058.28,566.793 2059.16,1441.67 2060.04,481.212 2060.92,1441.7 2061.8,1441.5 2062.69,578.484 2063.57,539.353 2064.45,532.971 2065.33,535.643 2066.21,572.758 2067.09,222.677 2067.97,200.556 2068.86,207.138 2069.74,218.136 2070.62,191.297 2071.5,177.168 2072.38,204.702 2073.26,225.206 2074.14,159.762 2075.03,197.736 2075.91,153.913 2076.79,361.903 2077.67,739.991 2078.55,168.401 2079.43,183.604 2080.31,444.259 2081.2,190.291 2082.08,915.313 2082.96,184.551 2083.84,195.051 2084.72,180.612 2085.6,201.784 2086.48,1394.55 2087.37,200.091 2088.25,186.513 2089.13,199.903 2090.01,232.56 2090.89,389.495 2091.77,1414.33 2092.65,237.784 2093.54,1389.23 2094.42,1397.44 2095.3,193.964 2096.18,232.784 2097.06,163.782 2097.94,226.644 2098.82,1445.55 2099.71,457.752 2100.59,1442.93 2101.47,198.144 2102.35,1436.44 2103.23,241.628 2104.11,1444.19 2104.99,232.647 2105.88,1390.39 2106.76,194.284 2107.64,179.657 2108.52,218.63 2109.4,409.023 2110.28,172.915 2111.16,183.646 2112.05,303.587 2112.93,209.28 2113.81,186.653 2114.69,655.343 2115.57,243.647 2116.45,221.154 2117.33,522.678 2118.22,255.261 2119.1,171.188 2119.98,235.212 2120.86,149.093 2121.74,149.776 2122.62,147.024 2123.5,748.549 2124.39,183.624 2125.27,212.979 2126.15,186.142 2127.03,198.964 2127.91,185.229 2128.79,163.423 2129.67,220.73 2130.56,188.413 2131.44,173.916 2132.32,229.915 2133.2,360.432 2134.08,168.269 2134.96,581.778 2135.84,224.781 2136.73,279.9 2137.61,635.33 2138.49,479.675 2139.37,185.279 2140.25,211.935 2141.13,199.129 2142.01,232.605 2142.9,252.536 2143.78,170.716 2144.66,173.043 2145.54,228.891 2146.42,1392.26 2147.3,199.839 2148.18,228.817 2149.07,1402.1 2149.95,496.228 2150.83,196.759 2151.71,1389.52 2152.59,1391.94 2153.47,278.887 2154.35,210.958 2155.24,166.038 2156.12,195.349 2157,193.537 2157.88,172.631 2158.76,197.475 2159.64,306.253 2160.52,199.506 2161.41,196.66 2162.29,178.241 2163.17,189.246 2164.05,256.041 2164.93,187.103 2165.81,937.374 2166.69,195.583 2167.58,349.15 2168.46,199.088 2169.34,256.234 2170.22,1434.18 2171.1,195.935 2171.98,1405.11 2172.86,368.349 2173.75,157.203 2174.63,154.823 2175.51,172.106 2176.39,181.769 2177.27,231.579 2178.15,266.172 2179.03,374.56 2179.92,200.785 2180.8,1337.64 2181.68,204.294 2182.56,173.579 2183.44,1442.92 2184.32,1441.6 2185.2,199.028 2186.09,709.624 2186.97,209.337 2187.85,218.46 2188.73,222.137 2189.61,163.241 2190.49,501.414 2191.37,297.975 2192.26,182.232 2193.14,349.876 2194.02,228.881 2194.9,1439.12 2195.78,222.686 2196.66,289.337 2197.54,222.995 2198.43,1414.2 2199.31,1445.26 2200.19,272.154 2201.07,184.315 2201.95,171.668 2202.83,410.661 2203.71,250.614 2204.6,812.081 2205.48,225.848 2206.36,188.532 2207.24,826.638 2208.12,301.656 2209,187.537 2209.88,204.403 2210.77,162.801 2211.65,615.327 2212.53,247.899 2213.41,163.329 2214.29,194.939 2215.17,381.171 2216.05,338.332 2216.94,194.446 2217.82,220.781 2218.7,214.296 2219.58,177.235 2220.46,173.71 2221.34,277.356 2222.22,225.66 2223.11,1414.76 2223.99,1442.04 2224.87,253.146 2225.75,210.013 2226.63,193.52 2227.51,554.83 2228.39,1389.64 2229.28,166.466 2230.16,1406.86 2231.04,87.9763 2231.92,747.463 2232.8,178.731 2233.68,254.232 2234.56,1398.54 2235.45,307.304 2236.33,203.323 2237.21,299.361 2238.09,605.363 2238.97,409.223 2239.85,178.411 2240.73,366.142 2241.62,541.976 2242.5,189.73 2243.38,382 2244.26,228.172 2245.14,1391.94 2246.02,227.67 2246.9,197.03 2247.79,197.117 2248.67,187.727 2249.55,569.495 2250.43,209.678 2251.31,580.775 2252.19,153.077 2253.07,187.703 2253.96,204.139 2254.84,138.99 2255.72,213.485 2256.6,172.686 2257.48,170.524 2258.36,1444.11 2259.24,200.749 2260.13,173.319 2261.01,203.413 2261.89,478.554 2262.77,217.717 2263.65,178.62 2264.53,193.063 2265.41,226.11 2266.3,217.589 2267.18,210.483 2268.06,832.099 2268.94,207.517 2269.82,197.845 2270.7,196.903 2271.58,176.314 2272.47,193.991 2273.35,211.553 2274.23,200.26 2275.11,177.104 2275.99,212.139 2276.87,193.556 2277.75,232.847 2278.64,837.422 2279.52,1422.33 2280.4,201.967 2281.28,173.983 2282.16,190.277 2283.04,227.442 2283.92,202.919 2284.81,196.207 2285.69,606.513 2286.57,184.775 2287.45,220.748 2288.33,1396.45 2289.21,165.255 2290.09,195.642 2290.98,496.925 2291.86,585.324 "></polyline>
<polyline clip-path="url(#clip142)" style="stroke:#e26f46; stroke-linecap:round; stroke-linejoin:round; stroke-width:4; stroke-opacity:1; fill:none" points="261.917,1445.72 262.799,1445.72 263.68,1445.72 264.562,1445.72 265.443,1445.72 266.325,1010.99 267.206,1445.72 268.088,1119.66 268.969,982.356 269.85,1026.69 270.732,1084.06 271.613,1445.72 272.495,1133.32 273.376,1445.72 274.258,1319.19 275.139,1150.88 276.02,1445.72 276.902,1445.72 277.783,976.842 278.665,1445.72 279.546,1221.29 280.428,1005.67 281.309,1022.81 282.19,1445.72 283.072,1445.72 283.953,1416.67 284.835,1058.42 285.716,1008.14 286.598,1445.72 287.479,1445.72 288.36,979.858 289.242,1381.89 290.123,1445.72 291.005,1339.78 291.886,1445.72 292.768,1007.44 293.649,1445.72 294.531,1072.26 295.412,1068.81 296.293,1114.8 297.175,1445.72 298.056,1014.51 298.938,999.735 299.819,1445.72 300.701,1445.72 301.582,1187.2 302.463,1445.72 303.345,1445.72 304.226,990.171 305.108,1188.54 305.989,1445.72 306.871,1085.93 307.752,1445.72 308.633,1445.72 309.515,963.276 310.396,1445.72 311.278,1445.72 312.159,1096.89 313.041,1124.42 313.922,1445.72 314.803,1445.72 315.685,985.904 316.566,1145.56 317.448,1445.72 318.329,1084.68 319.211,1445.72 320.092,1006.79 320.974,1445.72 321.855,1137.1 322.736,1080.86 323.618,1445.72 324.499,1102.46 325.381,976.128 326.262,1027.16 327.144,1445.72 328.025,1445.72 328.906,1445.72 329.788,1445.72 330.669,1445.72 331.551,1039.76 332.432,1445.72 333.314,1007.19 334.195,1445.72 335.076,1144.71 335.958,977.128 336.839,1038.4 337.721,1119.77 338.602,1445.72 339.484,1445.72 340.365,1074.75 341.246,1445.72 342.128,1132.54 343.009,1075.07 343.891,1124.82 344.772,1003.2 345.654,1051.7 346.535,1025.45 347.416,1166.48 348.298,1172.57 349.179,1445.71 350.061,1445.72 350.942,1445.72 351.824,1036.91 352.705,1083.4 353.587,968.541 354.468,1445.72 355.349,1445.72 356.231,1093.58 357.112,1445.72 357.994,1059.26 358.875,1445.72 359.757,988.705 360.638,1445.72 361.519,986.885 362.401,1445.72 363.282,1112.8 364.164,1075.96 365.045,980.417 365.927,1445.72 366.808,1445.72 367.689,1031.46 368.571,1445.72 369.452,1445.72 370.334,1010.94 371.215,1105.79 372.097,1445.72 372.978,1020.13 373.859,1445.72 374.741,1023.91 375.622,1006.79 376.504,992.038 377.385,1113.39 378.267,1445.72 379.148,990.312 380.03,1445.72 380.911,1445.72 381.792,1077.57 382.674,994.256 383.555,1445.72 384.437,1033.18 385.318,1283.21 386.2,986.729 387.081,1445.72 387.962,994.456 388.844,1445.72 389.725,1445.72 390.607,1103.69 391.488,1126.32 392.37,1445.72 393.251,1233.66 394.132,1445.72 395.014,1054.23 395.895,1445.72 396.777,1445.72 397.658,1142.17 398.54,1445.72 399.421,1445.71 400.302,976.21 401.184,1092.6 402.065,1001.11 402.947,1445.72 403.828,1371.75 404.71,1143.47 405.591,1008.04 406.473,1445.72 407.354,986.485 408.235,1177.7 409.117,997.874 409.998,1445.72 410.88,966.299 411.761,985.162 412.643,1445.72 413.524,1091.48 414.405,1116.97 415.287,1445.72 416.168,1445.72 417.05,1445.72 417.931,991.187 418.813,1019.02 419.694,1058.36 420.575,1445.72 421.457,1445.72 422.338,1445.72 423.22,961.795 424.101,1445.72 424.983,1445.72 425.864,965.606 426.745,1445.72 427.627,1044.65 428.508,1445.72 429.39,1445.72 430.271,1256.96 431.153,1000.11 432.034,1445.72 432.916,1016.46 433.797,1445.72 434.678,1445.72 435.56,1445.72 436.441,1445.72 437.323,1072.27 438.204,1445.72 439.086,1311.8 439.967,1008.81 440.848,1012.11 441.73,998.14 442.611,1445.72 443.493,1445.72 444.374,1056.85 445.256,1445.72 446.137,1006.57 447.018,1007.05 447.9,1445.72 448.781,994.33 449.663,1445.72 450.544,1033.25 451.426,975.795 452.307,1079.51 453.188,1082.6 454.07,990.464 454.951,973.585 455.833,1445.71 456.714,1445.72 457.596,974.513 458.477,988.309 459.358,1068.19 460.24,1445.72 461.121,1445.72 462.003,1445.72 462.884,1023.97 463.766,1098.55 464.647,1075.93 465.529,967.49 466.41,1445.72 467.291,1445.72 468.173,1416.21 469.054,993.396 469.936,1004.73 470.817,1108.64 471.699,1445.72 472.58,1024.5 473.461,1445.72 474.343,950.197 475.224,1097.58 476.106,1445.72 476.987,1116.24 477.869,1445.72 478.75,1185.36 479.631,1445.72 480.513,1445.72 481.394,1445.72 482.276,1445.72 483.157,1445.72 484.039,1178.72 484.92,1050.6 485.801,1401.66 486.683,976.441 487.564,1011.13 488.446,1445.71 489.327,1445.72 490.209,1445.72 491.09,1445.72 491.972,1445.72 492.853,1445.72 493.734,1175.97 494.616,1071.37 495.497,1337.15 496.379,977.388 497.26,1445.72 498.142,1082.64 499.023,1445.72 499.904,978.036 500.786,1445.72 501.667,1445.72 502.549,1048.97 503.43,1041.7 504.312,1076.94 505.193,1029.54 506.074,1048.01 506.956,1198.15 507.837,1080.58 508.719,1007.94 509.6,1145.74 510.482,1445.72 511.363,1197.95 512.244,1445.72 513.126,1445.72 514.007,1111.04 514.889,1008.74 515.77,1445.72 516.652,1445.72 517.533,964.847 518.415,1445.72 519.296,1040.53 520.177,1140.5 521.059,1445.72 521.94,1203.18 522.822,1112.33 523.703,1056.86 524.585,1445.72 525.466,1445.72 526.347,1099.43 527.229,1039.71 528.11,1156.31 528.992,1445.72 529.873,1445.72 530.755,1090.01 531.636,966.972 532.517,1445.72 533.399,1445.72 534.28,1445.72 535.162,1060.51 536.043,1445.72 536.925,1445.72 537.806,1445.72 538.687,1445.72 539.569,1153.17 540.45,1161.1 541.332,1445.72 542.213,1289.98 543.095,1074.68 543.976,1445.72 544.857,1445.72 545.739,1103.23 546.62,1059.49 547.502,971.197 548.383,1051.12 549.265,1141.41 550.146,1445.72 551.028,968.074 551.909,1067.75 552.79,995.743 553.672,1445.72 554.553,1142.73 555.435,1445.72 556.316,1114.79 557.198,1445.72 558.079,1445.72 558.96,1038.86 559.842,1110.79 560.723,1445.72 561.605,1445.72 562.486,1050.99 563.368,946.955 564.249,1445.72 565.13,973.803 566.012,1022.39 566.893,1001.53 567.775,1018.18 568.656,1445.72 569.538,1003.64 570.419,1038.15 571.3,1445.72 572.182,1445.72 573.063,1081.64 573.945,1215.06 574.826,1445.72 575.708,1445.72 576.589,1073.14 577.471,1445.72 578.352,1445.71 579.233,1424.28 580.115,1445.72 580.996,1445.72 581.878,1445.72 582.759,1445.72 583.641,1009.42 584.522,1445.72 585.403,1445.72 586.285,1445.72 587.166,1433.5 588.048,1445.71 588.929,1100.4 589.811,1445.72 590.692,1036.57 591.573,1445.72 592.455,1445.72 593.336,1445.72 594.218,1445.72 595.099,1097.6 595.981,1226.47 596.862,1129.73 597.743,934.939 598.625,1445.72 599.506,995.414 600.388,1103.08 601.269,1445.72 602.151,1445.72 603.032,1445.72 603.914,1445.72 604.795,1080.89 605.676,1067.61 606.558,1445.72 607.439,1140.99 608.321,1445.72 609.202,1445.72 610.084,1082.22 610.965,1033.21 611.846,1445.72 612.728,1445.72 613.609,974.511 614.491,1445.72 615.372,1237.33 616.254,1445.72 617.135,1445.72 618.016,1445.72 618.898,1026.69 619.779,1015.96 620.661,1445.72 621.542,1445.72 622.424,1445.72 623.305,1445.71 624.186,970.482 625.068,1042.96 625.949,1122.81 626.831,1347.46 627.712,1144.06 628.594,990.031 629.475,1004.48 630.356,985.602 631.238,1445.72 632.119,1445.72 633.001,1022.98 633.882,1445.72 634.764,1445.72 635.645,1134.07 636.527,1445.72 637.408,1003.31 638.289,1116.23 639.171,1445.72 640.052,1445.72 640.934,1029.14 641.815,1071.42 642.697,1119.41 643.578,1445.72 644.459,1445.72 645.341,1134.34 646.222,991.62 647.104,1067.03 647.985,1079.75 648.867,977.601 649.748,988.421 650.629,1003.3 651.511,1445.71 652.392,1023.03 653.274,1183.77 654.155,1445.72 655.037,1445.72 655.918,1445.72 656.799,1445.72 657.681,1075.35 658.562,1024.92 659.444,1445.72 660.325,1445.72 661.207,1445.72 662.088,1042.9 662.97,1123.5 663.851,1221.44 664.732,1020.57 665.614,988.919 666.495,1445.72 667.377,1022.69 668.258,986.603 669.14,1445.72 670.021,1445.72 670.902,1445.72 671.784,1416.17 672.665,1108.44 673.547,1445.72 674.428,1445.72 675.31,980.192 676.191,1445.72 677.072,1029.47 677.954,1445.72 678.835,1068.61 679.717,1445.72 680.598,1445.72 681.48,1083.62 682.361,1065.98 683.242,1445.72 684.124,1445.72 685.005,1275.98 685.887,994.927 686.768,952.215 687.65,1445.71 688.531,1056.52 689.413,1445.72 690.294,984.136 691.175,1373.67 692.057,972.944 692.938,1017.81 693.82,1105.62 694.701,986.42 695.583,1445.72 696.464,1262.38 697.345,976.786 698.227,1416.09 699.108,1085.11 699.99,1115.13 700.871,1445.72 701.753,988.058 702.634,1445.72 703.515,1055.69 704.397,1445.72 705.278,1131.43 706.16,1445.72 707.041,974.975 707.923,1368.06 708.804,1241.35 709.685,1445.72 710.567,1445.72 711.448,1445.72 712.33,983.459 713.211,1018.83 714.093,1009.82 714.974,965.77 715.855,1043.63 716.737,1445.72 717.618,1445.72 718.5,1445.72 719.381,1445.72 720.263,993.899 721.144,1445.72 722.026,1445.72 722.907,1143.06 723.788,1013.21 724.67,1445.72 725.551,1445.72 726.433,1042.33 727.314,1445.72 728.196,1090.93 729.077,1077.5 729.958,1186.88 730.84,1374.33 731.721,988.661 732.603,975.569 733.484,1445.72 734.366,1112.73 735.247,1445.72 736.128,1445.72 737.01,1420.22 737.891,1142.95 738.773,1062.5 739.654,1129.14 740.536,1085.77 741.417,1003.04 742.298,1348.79 743.18,1445.72 744.061,1048.03 744.943,1037.59 745.824,989.109 746.706,1445.72 747.587,1445.72 748.469,1048.91 749.35,1445.72 750.231,1445.72 751.113,1089.8 751.994,1150.1 752.876,1409.54 753.757,1445.72 754.639,1445.72 755.52,1445.68 756.401,1445.72 757.283,1059.46 758.164,1445.72 759.046,1445.72 759.927,1077.01 760.809,1064.86 761.69,1084.43 762.571,1445.72 763.453,1445.72 764.334,1033.51 765.216,1445.72 766.097,1000.83 766.979,970.461 767.86,1027.44 768.741,1229.23 769.623,1164.78 770.504,1155.56 771.386,1445.72 772.267,1445.72 773.149,1445.72 774.03,1445.72 774.912,1135.82 775.793,1353.77 776.674,1192.57 777.556,1097.03 778.437,996.355 779.319,1445.72 780.2,987.637 781.082,1048.54 781.963,1445.72 782.844,1155.97 783.726,1445.72 784.607,1445.71 785.489,1069.86 786.37,1445.72 787.252,980.67 788.133,1418.68 789.014,1445.72 789.896,1204.92 790.777,1445.72 791.659,1018.99 792.54,1020.76 793.422,1053.48 794.303,1445.72 795.184,1391.5 796.066,1153.33 796.947,1445.72 797.829,1041.57 798.71,1445.72 799.592,1445.72 800.473,1276.54 801.354,1183.5 802.236,1112.12 803.117,1011.4 803.999,1445.72 804.88,1445.72 805.762,1445.72 806.643,1445.72 807.525,1445.72 808.406,1039.64 809.287,1445.72 810.169,1445.72 811.05,1445.72 811.932,1445.72 812.813,1232.63 813.695,1445.72 814.576,1007.47 815.457,1445.72 816.339,1445.72 817.22,1445.72 818.102,1210.64 818.983,977.56 819.865,1445.72 820.746,1445.72 821.627,1060.64 822.509,1175.91 823.39,1223.01 824.272,980.041 825.153,965.808 826.035,997.68 826.916,1445.69 827.797,1050.17 828.679,1445.72 829.56,1114.61 830.442,1445.72 831.323,1412.27 832.205,959.856 833.086,1445.72 833.968,1445.72 834.849,1026.53 835.73,1445.72 836.612,1019.61 837.493,982.67 838.375,984.843 839.256,1445.72 840.138,1010.91 841.019,1020.81 841.9,980.998 842.782,1051.66 843.663,1107.34 844.545,984.497 845.426,1032.23 846.308,1024.05 847.189,1061.94 848.07,1445.72 848.952,1445.72 849.833,1137.72 850.715,1053.53 851.596,1445.72 852.478,958.182 853.359,1133.99 854.24,1445.72 855.122,1445.72 856.003,1445.72 856.885,983.477 857.766,1445.72 858.648,1048.05 859.529,1445.72 860.411,987.703 861.292,1445.72 862.173,1032.36 863.055,1121.57 863.936,1445.72 864.818,1002.69 865.699,1445.72 866.581,1040.84 867.462,992.434 868.343,1014.04 869.225,1445.72 870.106,996.939 870.988,1445.72 871.869,1066.74 872.751,1103.86 873.632,1445.72 874.513,1301.86 875.395,1445.72 876.276,1445.72 877.158,1445.72 878.039,1445.72 878.921,1445.72 879.802,1074.11 880.683,1115.5 881.565,1123.65 882.446,1445.72 883.328,1172.5 884.209,1445.72 885.091,1445.72 885.972,1072.67 886.853,1142.38 887.735,1009.5 888.616,1445.72 889.498,1016.91 890.379,1080.51 891.261,1445.72 892.142,1445.72 893.024,1076.3 893.905,988.403 894.786,1008.23 895.668,1040.23 896.549,1445.72 897.431,1142.78 898.312,1015.7 899.194,1175.12 900.075,991.107 900.956,1445.71 901.838,989.235 902.719,1027.88 903.601,1445.72 904.482,1328.08 905.364,1414.67 906.245,1445.72 907.126,973.353 908.008,1024.24 908.889,1445.72 909.771,1111.42 910.652,1061.8 911.534,1445.72 912.415,1445.72 913.296,1203.56 914.178,1114.43 915.059,997.792 915.941,1054.96 916.822,1445.72 917.704,1445.72 918.585,1242.45 919.467,978.9 920.348,1079.3 921.229,1445.72 922.111,1445.72 922.992,1134.37 923.874,1038.24 924.755,1023.87 925.637,993.522 926.518,972.302 927.399,1445.72 928.281,1445.72 929.162,1111.59 930.044,1000.49 930.925,1110.93 931.807,1088.75 932.688,1445.72 933.569,971.205 934.451,1445.72 935.332,1445.72 936.214,1003.36 937.095,1445.72 937.977,1445.72 938.858,1139.51 939.739,1445.72 940.621,1005.23 941.502,1040.94 942.384,1445.72 943.265,1445.72 944.147,1445.72 945.028,1065.95 945.91,1101.05 946.791,1033.44 947.672,1047.67 948.554,1028.4 949.435,1445.72 950.317,1436.28 951.198,1048.01 952.08,1053.89 952.961,1445.72 953.842,992.948 954.724,1445.71 955.605,1445.72 956.487,1000.58 957.368,1445.72 958.25,1273.2 959.131,1262.21 960.012,1445.72 960.894,1014.69 961.775,1445.69 962.657,1078.15 963.538,1051.77 964.42,981.156 965.301,1040.56 966.182,968.16 967.064,1164.7 967.945,1050.37 968.827,1211.62 969.708,1445.72 970.59,1038.36 971.471,1015.48 972.352,1090.94 973.234,1445.72 974.115,1445.72 974.997,1103.97 975.878,1445.72 976.76,1445.72 977.641,969.604 978.523,1445.72 979.404,1445.72 980.285,1057.4 981.167,1020.17 982.048,992.813 982.93,1020.03 983.811,1445.72 984.693,1445.72 985.574,1445.72 986.455,1188.96 987.337,1197.09 988.218,1380.73 989.1,1061.28 989.981,1445.72 990.863,1445.72 991.744,1017.05 992.625,1026.45 993.507,1062.08 994.388,1445.72 995.27,1445.72 996.151,1024.62 997.033,1445.72 997.914,983.18 998.795,1445.72 999.677,1445.72 1000.56,994.64 1001.44,1015.17 1002.32,1445.72 1003.2,1445.72 1004.08,1445.72 1004.97,1001.73 1005.85,1032.79 1006.73,1445.72 1007.61,1180.17 1008.49,1445.72 1009.37,1445.72 1010.25,1014.71 1011.14,952.222 1012.02,1445.72 1012.9,1083.96 1013.78,1041.24 1014.66,1445.72 1015.54,1409.65 1016.42,1445.72 1017.31,1005.28 1018.19,1046.58 1019.07,1445.72 1019.95,1445.72 1020.83,1104.76 1021.71,951.199 1022.59,1064.73 1023.48,1025.61 1024.36,1085.82 1025.24,1445.72 1026.12,1445.72 1027,1445.72 1027.88,1100.99 1028.76,1445.72 1029.65,1445.72 1030.53,983.332 1031.41,1445.72 1032.29,1445.72 1033.17,996.122 1034.05,1053.38 1034.93,994.312 1035.82,1445.72 1036.7,1147.06 1037.58,1025.83 1038.46,973.878 1039.34,1445.72 1040.22,1074.3 1041.1,1041.21 1041.99,1445.72 1042.87,1385.57 1043.75,1116.01 1044.63,975.722 1045.51,982.023 1046.39,999.889 1047.27,994.599 1048.16,1445.72 1049.04,1445.72 1049.92,1112.89 1050.8,1445.71 1051.68,1004.09 1052.56,950.015 1053.44,989.854 1054.33,1017.07 1055.21,1445.72 1056.09,1132.73 1056.97,1046.51 1057.85,1054.87 1058.73,977.408 1059.61,1374.7 1060.5,1015.96 1061.38,1013.14 1062.26,1104.29 1063.14,1317.01 1064.02,1445.72 1064.9,1086.94 1065.78,1212.79 1066.67,1061.77 1067.55,1091.76 1068.43,1445.72 1069.31,980.833 1070.19,1147.62 1071.07,1445.72 1071.95,1022.69 1072.84,1445.72 1073.72,989.823 1074.6,1445.72 1075.48,1445.72 1076.36,1008.51 1077.24,1029.38 1078.12,982.764 1079.01,1029.45 1079.89,1445.72 1080.77,996.064 1081.65,1445.72 1082.53,1050.88 1083.41,1095.49 1084.29,1096.48 1085.18,1171.27 1086.06,1239.87 1086.94,1174.16 1087.82,1077.03 1088.7,995.083 1089.58,949.344 1090.46,1445.72 1091.35,1445.72 1092.23,969.336 1093.11,1445.72 1093.99,1192.43 1094.87,1251.71 1095.75,968.849 1096.63,1445.72 1097.52,1179.2 1098.4,1050.59 1099.28,1445.72 1100.16,1445.72 1101.04,1445.72 1101.92,1445.72 1102.8,1068.89 1103.69,1445.72 1104.57,974.581 1105.45,1445.72 1106.33,1445.72 1107.21,992.286 1108.09,1445.72 1108.97,954.996 1109.86,1445.72 1110.74,1445.72 1111.62,1445.71 1112.5,1445.72 1113.38,1445.72 1114.26,1082.58 1115.14,1445.72 1116.03,1445.72 1116.91,1445.72 1117.79,1445.72 1118.67,1052.48 1119.55,990.834 1120.43,1445.72 1121.31,1132.19 1122.2,1153.78 1123.08,1235.59 1123.96,1445.72 1124.84,1038.39 1125.72,1445.72 1126.6,1445.72 1127.48,1445.71 1128.37,1445.72 1129.25,983.398 1130.13,1055.92 1131.01,1072.22 1131.89,1029.03 1132.77,1107.6 1133.65,1140.49 1134.54,1050.06 1135.42,1020.1 1136.3,1445.72 1137.18,1144.49 1138.06,1445.72 1138.94,1100.65 1139.82,1155.91 1140.71,1445.72 1141.59,1445.72 1142.47,1104.19 1143.35,980.92 1144.23,1445.72 1145.11,1445.72 1145.99,1445.72 1146.88,1445.72 1147.76,1026.1 1148.64,1445.71 1149.52,980.621 1150.4,1000.46 1151.28,1187.45 1152.16,1112.88 1153.05,1445.72 1153.93,1032.34 1154.81,1018.05 1155.69,981.765 1156.57,1028.17 1157.45,1029.99 1158.33,1445.72 1159.22,1008.65 1160.1,1260.39 1160.98,1065.67 1161.86,980.089 1162.74,998.454 1163.62,1445.72 1164.5,821.405 1165.39,920.284 1166.27,858.944 1167.15,865.751 1168.03,970.095 1168.91,759.809 1169.79,1108.46 1170.67,1445.72 1171.56,1081.48 1172.44,953.286 1173.32,1445.72 1174.2,1143.2 1175.08,946.184 1175.96,904.539 1176.84,869.977 1177.73,1105.93 1178.61,964.774 1179.49,1054.41 1180.37,820.272 1181.25,848.726 1182.13,840.019 1183.01,1445.72 1183.9,1127.78 1184.78,914.138 1185.66,1445.72 1186.54,1445.72 1187.42,889.192 1188.3,1445.72 1189.19,695.056 1190.07,877.734 1190.95,1445.72 1191.83,1445.72 1192.71,1445.72 1193.59,816.036 1194.47,1445.72 1195.36,843.871 1196.24,1445.72 1197.12,1445.72 1198,1445.72 1198.88,891.907 1199.76,1445.72 1200.64,1445.72 1201.53,1445.72 1202.41,1016.44 1203.29,1445.72 1204.17,1101.22 1205.05,890.127 1205.93,1445.72 1206.81,851.123 1207.7,996.022 1208.58,890.621 1209.46,825.561 1210.34,880.466 1211.22,1072.25 1212.1,920.537 1212.98,674.154 1213.87,1173.83 1214.75,1041.65 1215.63,964.648 1216.51,1445.72 1217.39,940.227 1218.27,1149.19 1219.15,975.71 1220.04,872.09 1220.92,839.567 1221.8,892.786 1222.68,1445.72 1223.56,1443.52 1224.44,968.097 1225.32,828.531 1226.21,840.152 1227.09,956.102 1227.97,830.833 1228.85,708.348 1229.73,941.081 1230.61,1445.72 1231.49,1445.72 1232.38,885.5 1233.26,920.595 1234.14,959.566 1235.02,880.237 1235.9,836.153 1236.78,903.92 1237.66,1445.72 1238.55,959.218 1239.43,1026.24 1240.31,769.904 1241.19,827.066 1242.07,823.572 1242.95,1445.72 1243.83,1445.72 1244.72,1141.31 1245.6,846.76 1246.48,885.994 1247.36,915.437 1248.24,911.147 1249.12,1103.94 1250,894.458 1250.89,1445.72 1251.77,1085.82 1252.65,820.596 1253.53,926.273 1254.41,1445.72 1255.29,1445.72 1256.17,909.871 1257.06,1262.28 1257.94,1208.49 1258.82,1445.72 1259.7,1225.99 1260.58,844.304 1261.46,1445.72 1262.34,1422.07 1263.23,1445.72 1264.11,1445.72 1264.99,1445.72 1265.87,1076.47 1266.75,1445.72 1267.63,820.286 1268.51,867.12 1269.4,882.085 1270.28,1445.72 1271.16,1207.59 1272.04,873.517 1272.92,1161.69 1273.8,958.036 1274.68,1445.72 1275.57,1193.53 1276.45,1445.72 1277.33,848.897 1278.21,913.771 1279.09,1445.72 1279.97,1445.72 1280.85,920.219 1281.74,846.667 1282.62,1445.72 1283.5,874.29 1284.38,1445.72 1285.26,875.441 1286.14,1125.11 1287.02,840.439 1287.91,1445.72 1288.79,926.606 1289.67,1445.72 1290.55,848.136 1291.43,761.525 1292.31,776.226 1293.19,1445.72 1294.08,1445.72 1294.96,1445.72 1295.84,849.513 1296.72,721.77 1297.6,1445.72 1298.48,1445.72 1299.36,767.691 1300.25,916.776 1301.13,1445.72 1302.01,1445.72 1302.89,1444.31 1303.77,908.596 1304.65,803.053 1305.53,1445.72 1306.42,839.312 1307.3,818.748 1308.18,1445.72 1309.06,834.119 1309.94,1155.73 1310.82,1445.72 1311.7,922.92 1312.59,1429.65 1313.47,946.415 1314.35,881.514 1315.23,1445.72 1316.11,1445.72 1316.99,995.847 1317.87,843.445 1318.76,978.536 1319.64,1445.72 1320.52,1445.72 1321.4,760.191 1322.28,1445.72 1323.16,1445.72 1324.04,945.219 1324.93,905.02 1325.81,1152.76 1326.69,1445.72 1327.57,1445.72 1328.45,1445.72 1329.33,842.105 1330.21,826.743 1331.1,1445.72 1331.98,866.268 1332.86,909.998 1333.74,795.763 1334.62,909.706 1335.5,902.448 1336.38,876.964 1337.27,880.423 1338.15,867.346 1339.03,930.219 1339.91,1078.43 1340.79,769.98 1341.67,1445.72 1342.55,1445.72 1343.44,876.498 1344.32,1445.72 1345.2,846.16 1346.08,1445.72 1346.96,862.977 1347.84,830.319 1348.72,1078.73 1349.61,1445.72 1350.49,902.91 1351.37,1445.72 1352.25,941.719 1353.13,769.133 1354.01,905.162 1354.89,927.59 1355.78,1445.72 1356.66,1074.81 1357.54,1445.72 1358.42,916.298 1359.3,1445.72 1360.18,1165.93 1361.06,1445.72 1361.95,996.347 1362.83,1014.96 1363.71,780.463 1364.59,843.594 1365.47,796.378 1366.35,1437.91 1367.23,1445.72 1368.12,1445.72 1369,881.43 1369.88,849.386 1370.76,1445.72 1371.64,921.485 1372.52,1122.61 1373.4,865.79 1374.29,823.3 1375.17,777.049 1376.05,825.107 1376.93,937.661 1377.81,1445.72 1378.69,910.385 1379.57,1444.46 1380.46,913.808 1381.34,902.519 1382.22,820.673 1383.1,896.625 1383.98,1246.26 1384.86,758.356 1385.74,930.782 1386.63,897.529 1387.51,800.719 1388.39,884.3 1389.27,1049.55 1390.15,1445.72 1391.03,898.049 1391.91,905.968 1392.8,1445.72 1393.68,949.961 1394.56,949.99 1395.44,921.324 1396.32,868.169 1397.2,1445.72 1398.08,1445.72 1398.97,822.584 1399.85,1180.13 1400.73,815.252 1401.61,860.17 1402.49,882.754 1403.37,1024.33 1404.25,1445.72 1405.14,1254.34 1406.02,1033.07 1406.9,1445.72 1407.78,945.931 1408.66,1151.2 1409.54,916.894 1410.42,1445.72 1411.31,881.563 1412.19,1014.33 1413.07,834.144 1413.95,871.177 1414.83,870.882 1415.71,1160.49 1416.59,993.113 1417.48,747.356 1418.36,925.267 1419.24,821.305 1420.12,1222.7 1421,930.97 1421.88,1445.72 1422.76,1039.88 1423.65,845.247 1424.53,922.988 1425.41,1445.72 1426.29,896.833 1427.17,900.15 1428.05,1445.72 1428.93,1052.96 1429.82,1445.72 1430.7,1445.72 1431.58,1173.04 1432.46,933.921 1433.34,930.076 1434.22,1445.72 1435.1,1445.72 1435.99,1081.04 1436.87,1445.72 1437.75,787.655 1438.63,1445.72 1439.51,1445.72 1440.39,1172.33 1441.27,848.88 1442.16,1218.09 1443.04,782.524 1443.92,1445.72 1444.8,1198.11 1445.68,1445.72 1446.56,857.952 1447.44,1444.48 1448.33,1210.34 1449.21,777.428 1450.09,1178.42 1450.97,831.654 1451.85,856.662 1452.73,863.01 1453.61,848.83 1454.5,818.444 1455.38,882.215 1456.26,1212.2 1457.14,1445.72 1458.02,926.763 1458.9,1445.72 1459.78,969.308 1460.67,1445.72 1461.55,831.377 1462.43,790.308 1463.31,1445.72 1464.19,827.86 1465.07,1445.72 1465.95,1445.72 1466.84,1445.72 1467.72,852.328 1468.6,862.549 1469.48,1445.72 1470.36,1008.79 1471.24,944.186 1472.13,1445.72 1473.01,785.064 1473.89,931.336 1474.77,1281.06 1475.65,1057.89 1476.53,1445.72 1477.41,1445.72 1478.3,821.286 1479.18,1445.72 1480.06,1445.72 1480.94,847.529 1481.82,912.942 1482.7,1445.72 1483.58,926.218 1484.47,977.819 1485.35,1445.72 1486.23,896.246 1487.11,1322.59 1487.99,1254.09 1488.87,853.238 1489.75,1445.72 1490.64,1052.45 1491.52,1445.72 1492.4,1218.4 1493.28,1052.4 1494.16,891.294 1495.04,733.104 1495.92,924.857 1496.81,1445.72 1497.69,1445.72 1498.57,1445.72 1499.45,1008.48 1500.33,942.314 1501.21,837.779 1502.09,958.217 1502.98,1064.77 1503.86,937.373 1504.74,906.09 1505.62,1445.72 1506.5,1181.16 1507.38,1445.72 1508.26,865.63 1509.15,888.976 1510.03,1243.15 1510.91,1445.72 1511.79,858.954 1512.67,1445.72 1513.55,1445.72 1514.43,902.71 1515.32,935.582 1516.2,878.675 1517.08,1166.06 1517.96,823.582 1518.84,1445.72 1519.72,1108.37 1520.6,1445.72 1521.49,1142.37 1522.37,1442.34 1523.25,1445.72 1524.13,866.448 1525.01,1445.72 1525.89,1445.72 1526.77,908.941 1527.66,1445.72 1528.54,1008.93 1529.42,877.356 1530.3,789.054 1531.18,817.055 1532.06,785.078 1532.94,1140.73 1533.83,985.481 1534.71,1445.72 1535.59,1149.25 1536.47,912.105 1537.35,1445.72 1538.23,826.896 1539.11,831.732 1540,930.987 1540.88,912.067 1541.76,1004.18 1542.64,912.868 1543.52,944.784 1544.4,1170.79 1545.28,1306.78 1546.17,939.536 1547.05,869.644 1547.93,977.663 1548.81,825.719 1549.69,1445.72 1550.57,990.561 1551.45,1445.72 1552.34,1445.72 1553.22,1445.72 1554.1,1445.72 1554.98,819.763 1555.86,1445.72 1556.74,829.52 1557.62,1226.38 1558.51,843.921 1559.39,764.658 1560.27,1062.03 1561.15,1445.72 1562.03,1445.72 1562.91,1445.72 1563.79,1445.72 1564.68,1445.72 1565.56,853.57 1566.44,841.72 1567.32,880.588 1568.2,1445.72 1569.08,1445.72 1569.96,1445.72 1570.85,944.811 1571.73,977.096 1572.61,911.44 1573.49,926.675 1574.37,1445.72 1575.25,1165.42 1576.13,900.706 1577.02,950.29 1577.9,1445.72 1578.78,842.443 1579.66,1445.72 1580.54,959.354 1581.42,1101.08 1582.3,1241.85 1583.19,894.241 1584.07,1445.72 1584.95,960.428 1585.83,1445.72 1586.71,1445.72 1587.59,860.701 1588.47,1445.72 1589.36,908.169 1590.24,991.382 1591.12,866.669 1592,972.065 1592.88,1016.53 1593.76,1052.83 1594.64,806.163 1595.53,1197.01 1596.41,939.776 1597.29,1198.3 1598.17,833.72 1599.05,1445.72 1599.93,1445.72 1600.81,944.603 1601.7,874.781 1602.58,1444.43 1603.46,741.089 1604.34,815.163 1605.22,1445.72 1606.1,830.002 1606.98,1445.72 1607.87,922.093 1608.75,1003.31 1609.63,920.501 1610.51,1445.72 1611.39,986.293 1612.27,1445.72 1613.15,816.174 1614.04,853.299 1614.92,876.461 1615.8,1445.71 1616.68,766.586 1617.56,945.238 1618.44,766.659 1619.32,640.84 1620.21,704.319 1621.09,873.469 1621.97,714.586 1622.85,731.008 1623.73,766.532 1624.61,889.459 1625.49,831.405 1626.38,672.95 1627.26,809.552 1628.14,706.224 1629.02,1445.49 1629.9,1445.68 1630.78,902.418 1631.66,647.999 1632.55,672.88 1633.43,625.479 1634.31,741.422 1635.19,642.468 1636.07,639.574 1636.95,581.379 1637.83,686.273 1638.72,720.575 1639.6,716.055 1640.48,884.222 1641.36,767.129 1642.24,1445.72 1643.12,1445.72 1644,461.733 1644.89,1445.72 1645.77,650.893 1646.65,930.522 1647.53,573.189 1648.41,691.112 1649.29,805.754 1650.17,1445.72 1651.06,804.521 1651.94,682.292 1652.82,712.135 1653.7,906.752 1654.58,731.449 1655.46,581.239 1656.34,777.684 1657.23,737.698 1658.11,723.141 1658.99,817.436 1659.87,581.962 1660.75,715.988 1661.63,722.765 1662.51,568.536 1663.4,762.585 1664.28,783.301 1665.16,742.259 1666.04,689.954 1666.92,628.294 1667.8,773.711 1668.68,1445.67 1669.57,600.646 1670.45,881.082 1671.33,648.689 1672.21,706.404 1673.09,665.738 1673.97,743.867 1674.85,564.094 1675.74,684.321 1676.62,1445.72 1677.5,560.557 1678.38,642.966 1679.26,1445.58 1680.14,1445.63 1681.02,665.576 1681.91,742.091 1682.79,725.653 1683.67,1445.72 1684.55,743.789 1685.43,811.443 1686.31,1445.72 1687.19,662.95 1688.08,510.024 1688.96,613.683 1689.84,899.624 1690.72,601.119 1691.6,1038.47 1692.48,743.696 1693.36,762.001 1694.25,726.799 1695.13,654.788 1696.01,807.434 1696.89,634.949 1697.77,654.921 1698.65,902.997 1699.53,725.372 1700.42,643.989 1701.3,819.641 1702.18,573.307 1703.06,752.226 1703.94,671.899 1704.82,640.56 1705.7,726.077 1706.59,678.143 1707.47,699.46 1708.35,712.405 1709.23,619.87 1710.11,642.711 1710.99,565.322 1711.87,623.605 1712.76,800.301 1713.64,650.948 1714.52,700.711 1715.4,765.924 1716.28,878.122 1717.16,817.467 1718.04,740.284 1718.93,700.981 1719.81,1445.56 1720.69,1445.72 1721.57,853.043 1722.45,636.307 1723.33,614.783 1724.21,670.068 1725.1,517.104 1725.98,1445.72 1726.86,812.086 1727.74,696.93 1728.62,1445.7 1729.5,817.329 1730.38,628.156 1731.27,748.206 1732.15,654.541 1733.03,867.025 1733.91,638.448 1734.79,644.669 1735.67,1445.72 1736.55,1445.5 1737.44,577.27 1738.32,847.726 1739.2,685.82 1740.08,1445.72 1740.96,744.693 1741.84,594.767 1742.72,681.233 1743.61,823.442 1744.49,723.257 1745.37,838.601 1746.25,827.48 1747.13,1083.75 1748.01,852.799 1748.89,764.524 1749.78,636.822 1750.66,749.996 1751.54,745.245 1752.42,859.61 1753.3,738.224 1754.18,790.597 1755.07,635.237 1755.95,762.719 1756.83,641.921 1757.71,986.26 1758.59,788.343 1759.47,1445.72 1760.35,946.399 1761.24,1445.72 1762.12,654.879 1763,757.757 1763.88,580.054 1764.76,1445.61 1765.64,629.961 1766.52,609.685 1767.41,823.492 1768.29,590.385 1769.17,484.026 1770.05,1445.72 1770.93,751.646 1771.81,1445.72 1772.69,918.13 1773.58,849.683 1774.46,633.986 1775.34,761.858 1776.22,679.409 1777.1,676.407 1777.98,740.301 1778.86,712.379 1779.75,690.307 1780.63,673 1781.51,504.554 1782.39,753.499 1783.27,1445.65 1784.15,611.414 1785.03,773.136 1785.92,677.879 1786.8,605.56 1787.68,628.962 1788.56,764.306 1789.44,644.387 1790.32,695.565 1791.2,723.837 1792.09,771.545 1792.97,777.726 1793.85,809.262 1794.73,787.835 1795.61,699.157 1796.49,695.549 1797.37,661.164 1798.26,707.386 1799.14,1445.72 1800.02,999.14 1800.9,578.102 1801.78,1004.23 1802.66,746.669 1803.54,640.42 1804.43,656.448 1805.31,709.139 1806.19,725.428 1807.07,1445.64 1807.95,662.675 1808.83,726.665 1809.71,1445.49 1810.6,670.062 1811.48,904.04 1812.36,651.791 1813.24,1445.72 1814.12,648.115 1815,853.885 1815.88,789.297 1816.77,606.24 1817.65,643.003 1818.53,685.299 1819.41,1445.72 1820.29,1445.62 1821.17,576.811 1822.05,728.23 1822.94,638.537 1823.82,555.758 1824.7,818.924 1825.58,763.424 1826.46,683.461 1827.34,838.407 1828.22,686.779 1829.11,698.429 1829.99,1445.72 1830.87,820.889 1831.75,669.961 1832.63,756.954 1833.51,701.029 1834.39,740.563 1835.28,912.951 1836.16,709.784 1837.04,784.877 1837.92,702.44 1838.8,681.308 1839.68,896.423 1840.56,701.925 1841.45,796.424 1842.33,710.185 1843.21,801.278 1844.09,624.799 1844.97,740.332 1845.85,1445.66 1846.73,739.388 1847.62,599.781 1848.5,723.868 1849.38,665.324 1850.26,1104.45 1851.14,756.206 1852.02,1445.72 1852.9,790.026 1853.79,622.83 1854.67,1445.63 1855.55,1445.72 1856.43,804.217 1857.31,681 1858.19,620.949 1859.07,1445.72 1859.96,711.286 1860.84,707.226 1861.72,864.284 1862.6,692.356 1863.48,656.258 1864.36,847.042 1865.24,726.755 1866.13,1445.72 1867.01,564.172 1867.89,680.924 1868.77,703.717 1869.65,833.589 1870.53,661.422 1871.41,696.82 1872.3,1445.72 1873.18,794.808 1874.06,641.357 1874.94,937.62 1875.82,611.311 1876.7,701.131 1877.58,625.155 1878.47,719.598 1879.35,1445.72 1880.23,632.414 1881.11,890.82 1881.99,688.595 1882.87,784.58 1883.75,965.644 1884.64,963.363 1885.52,714.549 1886.4,705.26 1887.28,1445.72 1888.16,724.222 1889.04,909.584 1889.92,762.255 1890.81,1445.72 1891.69,590.439 1892.57,672.357 1893.45,626.672 1894.33,973.667 1895.21,825.837 1896.09,786.306 1896.98,880.196 1897.86,539.738 1898.74,995.653 1899.62,630.728 1900.5,907.715 1901.38,729.899 1902.26,1445.56 1903.15,1445.72 1904.03,597.068 1904.91,1445.51 1905.79,1445.72 1906.67,648.351 1907.55,573.084 1908.43,629.25 1909.32,734.37 1910.2,802.126 1911.08,661.086 1911.96,654.046 1912.84,1445.72 1913.72,665.991 1914.6,719.301 1915.49,630.387 1916.37,708.099 1917.25,732.543 1918.13,731.523 1919.01,586.241 1919.89,773.328 1920.77,696.328 1921.66,688.432 1922.54,810.196 1923.42,806.249 1924.3,674.45 1925.18,755.039 1926.06,850.844 1926.94,747.167 1927.83,1445.63 1928.71,614.035 1929.59,622.912 1930.47,708.447 1931.35,736.389 1932.23,834.535 1933.11,643.327 1934,1445.72 1934.88,824.524 1935.76,1445.72 1936.64,609.362 1937.52,1445.72 1938.4,929.516 1939.28,751.266 1940.17,970.453 1941.05,767.348 1941.93,1445.72 1942.81,909.821 1943.69,653.086 1944.57,651.658 1945.45,1445.72 1946.34,1445.62 1947.22,713.134 1948.1,781.483 1948.98,625.027 1949.86,671.443 1950.74,991.748 1951.62,650.855 1952.51,727.97 1953.39,863.303 1954.27,700.416 1955.15,1445.72 1956.03,730.539 1956.91,777.489 1957.79,606.349 1958.68,673.852 1959.56,776.419 1960.44,697.142 1961.32,651.78 1962.2,544.255 1963.08,738.475 1963.96,799.724 1964.85,669.586 1965.73,719.897 1966.61,764.654 1967.49,1445.72 1968.37,633.508 1969.25,1445.63 1970.13,698.818 1971.02,766.733 1971.9,836.635 1972.78,564.796 1973.66,887.534 1974.54,620.033 1975.42,791.655 1976.3,576.76 1977.19,528.708 1978.07,636.741 1978.95,738.252 1979.83,1445.72 1980.71,669.607 1981.59,1445.72 1982.47,684.193 1983.36,639.741 1984.24,1445.72 1985.12,620.459 1986,773.664 1986.88,885.637 1987.76,1445.54 1988.64,714.08 1989.53,582.64 1990.41,632.241 1991.29,653.811 1992.17,631.255 1993.05,1445.72 1993.93,768.572 1994.81,624.819 1995.7,716.179 1996.58,721.31 1997.46,789.391 1998.34,684.163 1999.22,707.735 2000.1,1445.69 2000.98,706.868 2001.87,549.076 2002.75,803.953 2003.63,668.627 2004.51,847.2 2005.39,697.405 2006.27,610.04 2007.15,656.556 2008.04,1445.72 2008.92,696.123 2009.8,958.054 2010.68,1445.72 2011.56,656.276 2012.44,739.85 2013.32,689.483 2014.21,638.093 2015.09,642.326 2015.97,1445.65 2016.85,579.206 2017.73,997.852 2018.61,615.896 2019.49,663.999 2020.38,661.19 2021.26,650.523 2022.14,753.293 2023.02,835.861 2023.9,784.443 2024.78,699.038 2025.66,675.422 2026.55,854.618 2027.43,1445.52 2028.31,775.058 2029.19,584.331 2030.07,730.903 2030.95,681.073 2031.83,706.637 2032.72,1445.72 2033.6,860.482 2034.48,805.303 2035.36,691.116 2036.24,751.209 2037.12,746.693 2038,686.414 2038.89,666.231 2039.77,967.369 2040.65,751.502 2041.53,1445.72 2042.41,785.447 2043.29,678.428 2044.18,858.987 2045.06,1445.72 2045.94,768.445 2046.82,1445.72 2047.7,1445.72 2048.58,1445.67 2049.46,642.934 2050.35,801.043 2051.23,697.128 2052.11,682.23 2052.99,629.649 2053.87,627.304 2054.75,800.737 2055.63,749.592 2056.52,671.501 2057.4,765.645 2058.28,752.994 2059.16,1445.72 2060.04,579.386 2060.92,1445.63 2061.8,1445.55 2062.69,735.787 2063.57,721.104 2064.45,670.75 2065.33,701.599 2066.21,761.43 2067.09,482.292 2067.97,452.945 2068.86,387.109 2069.74,492.755 2070.62,410.545 2071.5,391.128 2072.38,452.077 2073.26,489.239 2074.14,328.723 2075.03,380.855 2075.91,332.996 2076.79,665.245 2077.67,967.123 2078.55,370.632 2079.43,393.853 2080.31,762.488 2081.2,357.182 2082.08,1203.38 2082.96,348.88 2083.84,442.882 2084.72,340.803 2085.6,386.462 2086.48,1443.91 2087.37,456.699 2088.25,354.084 2089.13,373.874 2090.01,516.488 2090.89,694.941 2091.77,1445.03 2092.65,545.794 2093.54,1444.02 2094.42,1444.78 2095.3,391.129 2096.18,506.199 2097.06,342.398 2097.94,523.554 2098.82,1445.72 2099.71,824.998 2100.59,1445.72 2101.47,423.289 2102.35,1445.72 2103.23,540.419 2104.11,1445.72 2104.99,511.464 2105.88,1443.95 2106.76,385.535 2107.64,346.589 2108.52,474.365 2109.4,745.768 2110.28,345.802 2111.16,349.123 2112.05,610.452 2112.93,455.368 2113.81,417.25 2114.69,882.949 2115.57,577.846 2116.45,491.547 2117.33,809.009 2118.22,565.649 2119.1,360.308 2119.98,523.79 2120.86,331.969 2121.74,327.241 2122.62,326.808 2123.5,1183.06 2124.39,418.127 2125.27,446.649 2126.15,352.902 2127.03,440.168 2127.91,364.288 2128.79,369.492 2129.67,497.307 2130.56,375.101 2131.44,346.114 2132.32,481.35 2133.2,680.947 2134.08,374.293 2134.96,973.108 2135.84,518.64 2136.73,563.589 2137.61,854.295 2138.49,727.428 2139.37,409.301 2140.25,492.228 2141.13,451.726 2142.01,529.327 2142.9,583.911 2143.78,366.107 2144.66,384.604 2145.54,554.792 2146.42,1445.47 2147.3,385.762 2148.18,509.283 2149.07,1445.72 2149.95,788.152 2150.83,445.631 2151.71,1444.45 2152.59,1443.96 2153.47,596.37 2154.35,472.96 2155.24,339.054 2156.12,373.901 2157,383.173 2157.88,342.802 2158.76,438.527 2159.64,624.746 2160.52,379.504 2161.41,430.967 2162.29,356.257 2163.17,366.659 2164.05,572.557 2164.93,358.875 2165.81,1242.55 2166.69,388.372 2167.58,634.154 2168.46,431.787 2169.34,611.835 2170.22,1445.72 2171.1,361.854 2171.98,1445.72 2172.86,660.916 2173.75,334.038 2174.63,328.234 2175.51,385.739 2176.39,350.455 2177.27,563.879 2178.15,547.598 2179.03,711.565 2179.92,432.105 2180.8,1445.72 2181.68,464.611 2182.56,353.286 2183.44,1445.72 2184.32,1445.72 2185.2,378.823 2186.09,1087.37 2186.97,483.506 2187.85,484.421 2188.73,499.546 2189.61,339.906 2190.49,734.532 2191.37,569.98 2192.26,352.93 2193.14,646.255 2194.02,514.189 2194.9,1445.72 2195.78,491.488 2196.66,644.598 2197.54,505.245 2198.43,1444.52 2199.31,1445.72 2200.19,552.869 2201.07,362.295 2201.95,395.633 2202.83,700.885 2203.71,567.851 2204.6,1123.33 2205.48,514.089 2206.36,351.989 2207.24,1145.06 2208.12,615.919 2209,377.268 2209.88,395.727 2210.77,336.733 2211.65,980.933 2212.53,605.139 2213.41,362.661 2214.29,439.177 2215.17,662.922 2216.05,690.478 2216.94,446.583 2217.82,484.141 2218.7,471.876 2219.58,342.491 2220.46,361.817 2221.34,608.029 2222.22,490.76 2223.11,1445.72 2223.99,1445.72 2224.87,599.396 2225.75,477.742 2226.63,385.898 2227.51,953.545 2228.39,1444.45 2229.28,340.234 2230.16,1445.72 2231.04,231.254 2231.92,1122.56 2232.8,349.338 2233.68,596.984 2234.56,1445.72 2235.45,660.074 2236.33,449.702 2237.21,588.464 2238.09,943.498 2238.97,765.974 2239.85,343.204 2240.73,732.481 2241.62,797.096 2242.5,370.351 2243.38,682.19 2244.26,503.259 2245.14,1445.24 2246.02,520.098 2246.9,456.761 2247.79,387.763 2248.67,355.253 2249.55,966.708 2250.43,482.526 2251.31,803.363 2252.19,340.262 2253.07,356.265 2253.96,453.665 2254.84,315.504 2255.72,495.48 2256.6,352.279 2257.48,342.127 2258.36,1445.72 2259.24,447.098 2260.13,361.646 2261.01,402.898 2261.89,724.121 2262.77,492.693 2263.65,413.875 2264.53,386.227 2265.41,510.781 2266.3,480.74 2267.18,469.519 2268.06,1214.94 2268.94,394.04 2269.82,382.071 2270.7,374.078 2271.58,341.388 2272.47,429.054 2273.35,467.327 2274.23,381.296 2275.11,343.481 2275.99,462.484 2276.87,424.222 2277.75,522.66 2278.64,1222.6 2279.52,1445.72 2280.4,458.652 2281.28,348.902 2282.16,441.568 2283.04,495.722 2283.92,445.182 2284.81,373.11 2285.69,834.811 2286.57,400.583 2287.45,474.471 2288.33,1445.3 2289.21,341.069 2290.09,370.15 2290.98,803.533 2291.86,838.455 "></polyline>
</svg>