<svg xmlns="http://www.w3.org/2000/svg" xmlns:xlink="http://www.w3.org/1999/xlink" width="600" height="400" viewBox="0 0 2400 1600">
<defs>
  <clipPath id="clip290">
    <rect x="0" y="0" width="2400" height="1600"></rect>
  </clipPath>
</defs>
<path clip-path="url(#clip290)" d="M0 1600 L2400 1600 L2400 0 L0 0  Z" fill="#ffffff" fill-rule="evenodd" fill-opacity="1"></path>
<defs>
  <clipPath id="clip291">
    <rect x="480" y="0" width="1681" height="1600"></rect>
  </clipPath>
</defs>
<path clip-path="url(#clip290)" d="M193.936 1486.45 L2352.76 1486.45 L2352.76 47.2441 L193.936 47.2441  Z" fill="#ffffff" fill-rule="evenodd" fill-opacity="1"></path>
<defs>
  <clipPath id="clip292">
    <rect x="193" y="47" width="2160" height="1440"></rect>
  </clipPath>
</defs>
<polyline clip-path="url(#clip292)" style="stroke:#000000; stroke-linecap:round; stroke-linejoin:round; stroke-width:2; stroke-opacity:0.1; fill:none" points="231.074,1486.45 231.074,47.2441 "></polyline>
<polyline clip-path="url(#clip292)" style="stroke:#000000; stroke-linecap:round; stroke-linejoin:round; stroke-width:2; stroke-opacity:0.1; fill:none" points="710.28,1486.45 710.28,47.2441 "></polyline>
<polyline clip-path="url(#clip292)" style="stroke:#000000; stroke-linecap:round; stroke-linejoin:round; stroke-width:2; stroke-opacity:0.1; fill:none" points="1189.49,1486.45 1189.49,47.2441 "></polyline>
<polyline clip-path="url(#clip292)" style="stroke:#000000; stroke-linecap:round; stroke-linejoin:round; stroke-width:2; stroke-opacity:0.1; fill:none" points="1668.69,1486.45 1668.69,47.2441 "></polyline>
<polyline clip-path="url(#clip292)" style="stroke:#000000; stroke-linecap:round; stroke-linejoin:round; stroke-width:2; stroke-opacity:0.1; fill:none" points="2147.9,1486.45 2147.9,47.2441 "></polyline>
<polyline clip-path="url(#clip290)" style="stroke:#000000; stroke-linecap:round; stroke-linejoin:round; stroke-width:4; stroke-opacity:1; fill:none" points="193.936,1486.45 2352.76,1486.45 "></polyline>
<polyline clip-path="url(#clip290)" style="stroke:#000000; stroke-linecap:round; stroke-linejoin:round; stroke-width:4; stroke-opacity:1; fill:none" points="231.074,1486.45 231.074,1467.55 "></polyline>
<polyline clip-path="url(#clip290)" style="stroke:#000000; stroke-linecap:round; stroke-linejoin:round; stroke-width:4; stroke-opacity:1; fill:none" points="710.28,1486.45 710.28,1467.55 "></polyline>
<polyline clip-path="url(#clip290)" style="stroke:#000000; stroke-linecap:round; stroke-linejoin:round; stroke-width:4; stroke-opacity:1; fill:none" points="1189.49,1486.45 1189.49,1467.55 "></polyline>
<polyline clip-path="url(#clip290)" style="stroke:#000000; stroke-linecap:round; stroke-linejoin:round; stroke-width:4; stroke-opacity:1; fill:none" points="1668.69,1486.45 1668.69,1467.55 "></polyline>
<polyline clip-path="url(#clip290)" style="stroke:#000000; stroke-linecap:round; stroke-linejoin:round; stroke-width:4; stroke-opacity:1; fill:none" points="2147.9,1486.45 2147.9,1467.55 "></polyline>
<path clip-path="url(#clip290)" d="M231.074 1517.37 Q227.463 1517.37 225.635 1520.93 Q223.829 1524.47 223.829 1531.6 Q223.829 1538.71 225.635 1542.27 Q227.463 1545.82 231.074 1545.82 Q234.709 1545.82 236.514 1542.27 Q238.343 1538.71 238.343 1531.6 Q238.343 1524.47 236.514 1520.93 Q234.709 1517.37 231.074 1517.37 M231.074 1513.66 Q236.885 1513.66 239.94 1518.27 Q243.019 1522.85 243.019 1531.6 Q243.019 1540.33 239.94 1544.94 Q236.885 1549.52 231.074 1549.52 Q225.264 1549.52 222.186 1544.94 Q219.13 1540.33 219.13 1531.6 Q219.13 1522.85 222.186 1518.27 Q225.264 1513.66 231.074 1513.66 Z" fill="#000000" fill-rule="nonzero" fill-opacity="1"></path><path clip-path="url(#clip290)" d="M689.053 1544.91 L705.372 1544.91 L705.372 1548.85 L683.428 1548.85 L683.428 1544.91 Q686.09 1542.16 690.673 1537.53 Q695.28 1532.88 696.46 1531.53 Q698.706 1529.01 699.585 1527.27 Q700.488 1525.51 700.488 1523.82 Q700.488 1521.07 698.544 1519.33 Q696.622 1517.6 693.521 1517.6 Q691.321 1517.6 688.868 1518.36 Q686.437 1519.13 683.659 1520.68 L683.659 1515.95 Q686.484 1514.82 688.937 1514.24 Q691.391 1513.66 693.428 1513.66 Q698.798 1513.66 701.993 1516.35 Q705.187 1519.03 705.187 1523.52 Q705.187 1525.65 704.377 1527.57 Q703.59 1529.47 701.483 1532.07 Q700.905 1532.74 697.803 1535.95 Q694.701 1539.15 689.053 1544.91 Z" fill="#000000" fill-rule="nonzero" fill-opacity="1"></path><path clip-path="url(#clip290)" d="M725.187 1517.37 Q721.576 1517.37 719.747 1520.93 Q717.942 1524.47 717.942 1531.6 Q717.942 1538.71 719.747 1542.27 Q721.576 1545.82 725.187 1545.82 Q728.821 1545.82 730.627 1542.27 Q732.456 1538.71 732.456 1531.6 Q732.456 1524.47 730.627 1520.93 Q728.821 1517.37 725.187 1517.37 M725.187 1513.66 Q730.997 1513.66 734.053 1518.27 Q737.131 1522.85 737.131 1531.6 Q737.131 1540.33 734.053 1544.94 Q730.997 1549.52 725.187 1549.52 Q719.377 1549.52 716.298 1544.94 Q713.243 1540.33 713.243 1531.6 Q713.243 1522.85 716.298 1518.27 Q719.377 1513.66 725.187 1513.66 Z" fill="#000000" fill-rule="nonzero" fill-opacity="1"></path><path clip-path="url(#clip290)" d="M1177.66 1518.36 L1165.85 1536.81 L1177.66 1536.81 L1177.66 1518.36 M1176.43 1514.29 L1182.31 1514.29 L1182.31 1536.81 L1187.24 1536.81 L1187.24 1540.7 L1182.31 1540.7 L1182.31 1548.85 L1177.66 1548.85 L1177.66 1540.7 L1162.05 1540.7 L1162.05 1536.19 L1176.43 1514.29 Z" fill="#000000" fill-rule="nonzero" fill-opacity="1"></path><path clip-path="url(#clip290)" d="M1204.97 1517.37 Q1201.36 1517.37 1199.53 1520.93 Q1197.73 1524.47 1197.73 1531.6 Q1197.73 1538.71 1199.53 1542.27 Q1201.36 1545.82 1204.97 1545.82 Q1208.61 1545.82 1210.41 1542.27 Q1212.24 1538.71 1212.24 1531.6 Q1212.24 1524.47 1210.41 1520.93 Q1208.61 1517.37 1204.97 1517.37 M1204.97 1513.66 Q1210.78 1513.66 1213.84 1518.27 Q1216.92 1522.85 1216.92 1531.6 Q1216.92 1540.33 1213.84 1544.94 Q1210.78 1549.52 1204.97 1549.52 Q1199.16 1549.52 1196.08 1544.94 Q1193.03 1540.33 1193.03 1531.6 Q1193.03 1522.85 1196.08 1518.27 Q1199.16 1513.66 1204.97 1513.66 Z" fill="#000000" fill-rule="nonzero" fill-opacity="1"></path><path clip-path="url(#clip290)" d="M1654.1 1529.7 Q1650.95 1529.7 1649.1 1531.86 Q1647.27 1534.01 1647.27 1537.76 Q1647.27 1541.49 1649.1 1543.66 Q1650.95 1545.82 1654.1 1545.82 Q1657.24 1545.82 1659.07 1543.66 Q1660.92 1541.49 1660.92 1537.76 Q1660.92 1534.01 1659.07 1531.86 Q1657.24 1529.7 1654.1 1529.7 M1663.38 1515.05 L1663.38 1519.31 Q1661.62 1518.48 1659.81 1518.04 Q1658.03 1517.6 1656.27 1517.6 Q1651.64 1517.6 1649.19 1520.72 Q1646.76 1523.85 1646.41 1530.17 Q1647.78 1528.15 1649.84 1527.09 Q1651.9 1526 1654.37 1526 Q1659.58 1526 1662.59 1529.17 Q1665.62 1532.32 1665.62 1537.76 Q1665.62 1543.08 1662.48 1546.3 Q1659.33 1549.52 1654.1 1549.52 Q1648.1 1549.52 1644.93 1544.94 Q1641.76 1540.33 1641.76 1531.6 Q1641.76 1523.41 1645.65 1518.55 Q1649.54 1513.66 1656.09 1513.66 Q1657.85 1513.66 1659.63 1514.01 Q1661.43 1514.36 1663.38 1515.05 Z" fill="#000000" fill-rule="nonzero" fill-opacity="1"></path><path clip-path="url(#clip290)" d="M1683.68 1517.37 Q1680.07 1517.37 1678.24 1520.93 Q1676.43 1524.47 1676.43 1531.6 Q1676.43 1538.71 1678.24 1542.27 Q1680.07 1545.82 1683.68 1545.82 Q1687.31 1545.82 1689.12 1542.27 Q1690.95 1538.71 1690.95 1531.6 Q1690.95 1524.47 1689.12 1520.93 Q1687.31 1517.37 1683.68 1517.37 M1683.68 1513.66 Q1689.49 1513.66 1692.54 1518.27 Q1695.62 1522.85 1695.62 1531.6 Q1695.62 1540.33 1692.54 1544.94 Q1689.49 1549.52 1683.68 1549.52 Q1677.87 1549.52 1674.79 1544.94 Q1671.73 1540.33 1671.73 1531.6 Q1671.73 1522.85 1674.79 1518.27 Q1677.87 1513.66 1683.68 1513.66 Z" fill="#000000" fill-rule="nonzero" fill-opacity="1"></path><path clip-path="url(#clip290)" d="M2132.77 1532.44 Q2129.44 1532.44 2127.51 1534.22 Q2125.62 1536 2125.62 1539.13 Q2125.62 1542.25 2127.51 1544.03 Q2129.44 1545.82 2132.77 1545.82 Q2136.1 1545.82 2138.02 1544.03 Q2139.94 1542.23 2139.94 1539.13 Q2139.94 1536 2138.02 1534.22 Q2136.12 1532.44 2132.77 1532.44 M2128.09 1530.45 Q2125.08 1529.7 2123.39 1527.64 Q2121.73 1525.58 2121.73 1522.62 Q2121.73 1518.48 2124.67 1516.07 Q2127.63 1513.66 2132.77 1513.66 Q2137.93 1513.66 2140.87 1516.07 Q2143.81 1518.48 2143.81 1522.62 Q2143.81 1525.58 2142.12 1527.64 Q2140.45 1529.7 2137.47 1530.45 Q2140.85 1531.23 2142.72 1533.52 Q2144.62 1535.82 2144.62 1539.13 Q2144.62 1544.15 2141.54 1546.83 Q2138.49 1549.52 2132.77 1549.52 Q2127.05 1549.52 2123.97 1546.83 Q2120.92 1544.15 2120.92 1539.13 Q2120.92 1535.82 2122.81 1533.52 Q2124.71 1531.23 2128.09 1530.45 M2126.38 1523.06 Q2126.38 1525.75 2128.05 1527.25 Q2129.74 1528.76 2132.77 1528.76 Q2135.78 1528.76 2137.47 1527.25 Q2139.18 1525.75 2139.18 1523.06 Q2139.18 1520.38 2137.47 1518.87 Q2135.78 1517.37 2132.77 1517.37 Q2129.74 1517.37 2128.05 1518.87 Q2126.38 1520.38 2126.38 1523.06 Z" fill="#000000" fill-rule="nonzero" fill-opacity="1"></path><path clip-path="url(#clip290)" d="M2162.93 1517.37 Q2159.32 1517.37 2157.49 1520.93 Q2155.68 1524.47 2155.68 1531.6 Q2155.68 1538.71 2157.49 1542.27 Q2159.32 1545.82 2162.93 1545.82 Q2166.56 1545.82 2168.37 1542.27 Q2170.2 1538.71 2170.2 1531.6 Q2170.2 1524.47 2168.37 1520.93 Q2166.56 1517.37 2162.93 1517.37 M2162.93 1513.66 Q2168.74 1513.66 2171.8 1518.27 Q2174.87 1522.85 2174.87 1531.6 Q2174.87 1540.33 2171.8 1544.94 Q2168.74 1549.52 2162.93 1549.52 Q2157.12 1549.52 2154.04 1544.94 Q2150.99 1540.33 2150.99 1531.6 Q2150.99 1522.85 2154.04 1518.27 Q2157.12 1513.66 2162.93 1513.66 Z" fill="#000000" fill-rule="nonzero" fill-opacity="1"></path><polyline clip-path="url(#clip292)" style="stroke:#000000; stroke-linecap:round; stroke-linejoin:round; stroke-width:2; stroke-opacity:0.1; fill:none" points="193.936,1273.85 2352.76,1273.85 "></polyline>
<polyline clip-path="url(#clip292)" style="stroke:#000000; stroke-linecap:round; stroke-linejoin:round; stroke-width:2; stroke-opacity:0.1; fill:none" points="193.936,1014.92 2352.76,1014.92 "></polyline>
<polyline clip-path="url(#clip292)" style="stroke:#000000; stroke-linecap:round; stroke-linejoin:round; stroke-width:2; stroke-opacity:0.1; fill:none" points="193.936,755.988 2352.76,755.988 "></polyline>
<polyline clip-path="url(#clip292)" style="stroke:#000000; stroke-linecap:round; stroke-linejoin:round; stroke-width:2; stroke-opacity:0.1; fill:none" points="193.936,497.056 2352.76,497.056 "></polyline>
<polyline clip-path="url(#clip292)" style="stroke:#000000; stroke-linecap:round; stroke-linejoin:round; stroke-width:2; stroke-opacity:0.1; fill:none" points="193.936,238.125 2352.76,238.125 "></polyline>
<polyline clip-path="url(#clip290)" style="stroke:#000000; stroke-linecap:round; stroke-linejoin:round; stroke-width:4; stroke-opacity:1; fill:none" points="193.936,1486.45 193.936,47.2441 "></polyline>
<polyline clip-path="url(#clip290)" style="stroke:#000000; stroke-linecap:round; stroke-linejoin:round; stroke-width:4; stroke-opacity:1; fill:none" points="193.936,1273.85 212.834,1273.85 "></polyline>
<polyline clip-path="url(#clip290)" style="stroke:#000000; stroke-linecap:round; stroke-linejoin:round; stroke-width:4; stroke-opacity:1; fill:none" points="193.936,1014.92 212.834,1014.92 "></polyline>
<polyline clip-path="url(#clip290)" style="stroke:#000000; stroke-linecap:round; stroke-linejoin:round; stroke-width:4; stroke-opacity:1; fill:none" points="193.936,755.988 212.834,755.988 "></polyline>
<polyline clip-path="url(#clip290)" style="stroke:#000000; stroke-linecap:round; stroke-linejoin:round; stroke-width:4; stroke-opacity:1; fill:none" points="193.936,497.056 212.834,497.056 "></polyline>
<polyline clip-path="url(#clip290)" style="stroke:#000000; stroke-linecap:round; stroke-linejoin:round; stroke-width:4; stroke-opacity:1; fill:none" points="193.936,238.125 212.834,238.125 "></polyline>
<path clip-path="url(#clip290)" d="M50.9921 1274.3 L80.6679 1274.3 L80.6679 1278.24 L50.9921 1278.24 L50.9921 1274.3 Z" fill="#000000" fill-rule="nonzero" fill-opacity="1"></path><path clip-path="url(#clip290)" d="M91.5706 1287.2 L99.2095 1287.2 L99.2095 1260.83 L90.8993 1262.5 L90.8993 1258.24 L99.1632 1256.57 L103.839 1256.57 L103.839 1287.2 L111.478 1287.2 L111.478 1291.13 L91.5706 1291.13 L91.5706 1287.2 Z" fill="#000000" fill-rule="nonzero" fill-opacity="1"></path><path clip-path="url(#clip290)" d="M120.922 1285.25 L125.807 1285.25 L125.807 1291.13 L120.922 1291.13 L120.922 1285.25 Z" fill="#000000" fill-rule="nonzero" fill-opacity="1"></path><path clip-path="url(#clip290)" d="M145.992 1259.65 Q142.381 1259.65 140.552 1263.21 Q138.746 1266.76 138.746 1273.89 Q138.746 1280.99 140.552 1284.56 Q142.381 1288.1 145.992 1288.1 Q149.626 1288.1 151.431 1284.56 Q153.26 1280.99 153.26 1273.89 Q153.26 1266.76 151.431 1263.21 Q149.626 1259.65 145.992 1259.65 M145.992 1255.95 Q151.802 1255.95 154.857 1260.55 Q157.936 1265.14 157.936 1273.89 Q157.936 1282.61 154.857 1287.22 Q151.802 1291.8 145.992 1291.8 Q140.181 1291.8 137.103 1287.22 Q134.047 1282.61 134.047 1273.89 Q134.047 1265.14 137.103 1260.55 Q140.181 1255.95 145.992 1255.95 Z" fill="#000000" fill-rule="nonzero" fill-opacity="1"></path><path clip-path="url(#clip290)" d="M51.9875 1015.37 L81.6633 1015.37 L81.6633 1019.31 L51.9875 1019.31 L51.9875 1015.37 Z" fill="#000000" fill-rule="nonzero" fill-opacity="1"></path><path clip-path="url(#clip290)" d="M101.756 1000.72 Q98.1447 1000.72 96.316 1004.28 Q94.5104 1007.82 94.5104 1014.95 Q94.5104 1022.06 96.316 1025.63 Q98.1447 1029.17 101.756 1029.17 Q105.39 1029.17 107.196 1025.63 Q109.024 1022.06 109.024 1014.95 Q109.024 1007.82 107.196 1004.28 Q105.39 1000.72 101.756 1000.72 M101.756 997.015 Q107.566 997.015 110.621 1001.62 Q113.7 1006.2 113.7 1014.95 Q113.7 1023.68 110.621 1028.29 Q107.566 1032.87 101.756 1032.87 Q95.9456 1032.87 92.8669 1028.29 Q89.8114 1023.68 89.8114 1014.95 Q89.8114 1006.2 92.8669 1001.62 Q95.9456 997.015 101.756 997.015 Z" fill="#000000" fill-rule="nonzero" fill-opacity="1"></path><path clip-path="url(#clip290)" d="M121.918 1026.32 L126.802 1026.32 L126.802 1032.2 L121.918 1032.2 L121.918 1026.32 Z" fill="#000000" fill-rule="nonzero" fill-opacity="1"></path><path clip-path="url(#clip290)" d="M137.033 997.64 L155.39 997.64 L155.39 1001.57 L141.316 1001.57 L141.316 1010.05 Q142.334 1009.7 143.353 1009.54 Q144.371 1009.35 145.39 1009.35 Q151.177 1009.35 154.556 1012.52 Q157.936 1015.7 157.936 1021.11 Q157.936 1026.69 154.464 1029.79 Q150.992 1032.87 144.672 1032.87 Q142.496 1032.87 140.228 1032.5 Q137.982 1032.13 135.575 1031.39 L135.575 1026.69 Q137.658 1027.82 139.881 1028.38 Q142.103 1028.94 144.58 1028.94 Q148.584 1028.94 150.922 1026.83 Q153.26 1024.72 153.26 1021.11 Q153.26 1017.5 150.922 1015.39 Q148.584 1013.29 144.58 1013.29 Q142.705 1013.29 140.83 1013.7 Q138.978 1014.12 137.033 1015 L137.033 997.64 Z" fill="#000000" fill-rule="nonzero" fill-opacity="1"></path><path clip-path="url(#clip290)" d="M100.76 741.787 Q97.1493 741.787 95.3206 745.352 Q93.515 748.893 93.515 756.023 Q93.515 763.129 95.3206 766.694 Q97.1493 770.236 100.76 770.236 Q104.395 770.236 106.2 766.694 Q108.029 763.129 108.029 756.023 Q108.029 748.893 106.2 745.352 Q104.395 741.787 100.76 741.787 M100.76 738.083 Q106.571 738.083 109.626 742.69 Q112.705 747.273 112.705 756.023 Q112.705 764.75 109.626 769.356 Q106.571 773.939 100.76 773.939 Q94.9502 773.939 91.8715 769.356 Q88.816 764.75 88.816 756.023 Q88.816 747.273 91.8715 742.69 Q94.9502 738.083 100.76 738.083 Z" fill="#000000" fill-rule="nonzero" fill-opacity="1"></path><path clip-path="url(#clip290)" d="M120.922 767.388 L125.807 767.388 L125.807 773.268 L120.922 773.268 L120.922 767.388 Z" fill="#000000" fill-rule="nonzero" fill-opacity="1"></path><path clip-path="url(#clip290)" d="M145.992 741.787 Q142.381 741.787 140.552 745.352 Q138.746 748.893 138.746 756.023 Q138.746 763.129 140.552 766.694 Q142.381 770.236 145.992 770.236 Q149.626 770.236 151.431 766.694 Q153.26 763.129 153.26 756.023 Q153.26 748.893 151.431 745.352 Q149.626 741.787 145.992 741.787 M145.992 738.083 Q151.802 738.083 154.857 742.69 Q157.936 747.273 157.936 756.023 Q157.936 764.75 154.857 769.356 Q151.802 773.939 145.992 773.939 Q140.181 773.939 137.103 769.356 Q134.047 764.75 134.047 756.023 Q134.047 747.273 137.103 742.69 Q140.181 738.083 145.992 738.083 Z" fill="#000000" fill-rule="nonzero" fill-opacity="1"></path><path clip-path="url(#clip290)" d="M101.756 482.855 Q98.1447 482.855 96.316 486.42 Q94.5104 489.961 94.5104 497.091 Q94.5104 504.198 96.316 507.762 Q98.1447 511.304 101.756 511.304 Q105.39 511.304 107.196 507.762 Q109.024 504.198 109.024 497.091 Q109.024 489.961 107.196 486.42 Q105.39 482.855 101.756 482.855 M101.756 479.151 Q107.566 479.151 110.621 483.758 Q113.7 488.341 113.7 497.091 Q113.7 505.818 110.621 510.424 Q107.566 515.008 101.756 515.008 Q95.9456 515.008 92.8669 510.424 Q89.8114 505.818 89.8114 497.091 Q89.8114 488.341 92.8669 483.758 Q95.9456 479.151 101.756 479.151 Z" fill="#000000" fill-rule="nonzero" fill-opacity="1"></path><path clip-path="url(#clip290)" d="M121.918 508.457 L126.802 508.457 L126.802 514.336 L121.918 514.336 L121.918 508.457 Z" fill="#000000" fill-rule="nonzero" fill-opacity="1"></path><path clip-path="url(#clip290)" d="M137.033 479.776 L155.39 479.776 L155.39 483.712 L141.316 483.712 L141.316 492.184 Q142.334 491.836 143.353 491.674 Q144.371 491.489 145.39 491.489 Q151.177 491.489 154.556 494.661 Q157.936 497.832 157.936 503.248 Q157.936 508.827 154.464 511.929 Q150.992 515.008 144.672 515.008 Q142.496 515.008 140.228 514.637 Q137.982 514.267 135.575 513.526 L135.575 508.827 Q137.658 509.961 139.881 510.517 Q142.103 511.072 144.58 511.072 Q148.584 511.072 150.922 508.966 Q153.26 506.86 153.26 503.248 Q153.26 499.637 150.922 497.531 Q148.584 495.424 144.58 495.424 Q142.705 495.424 140.83 495.841 Q138.978 496.258 137.033 497.137 L137.033 479.776 Z" fill="#000000" fill-rule="nonzero" fill-opacity="1"></path><path clip-path="url(#clip290)" d="M91.5706 251.469 L99.2095 251.469 L99.2095 225.104 L90.8993 226.771 L90.8993 222.511 L99.1632 220.845 L103.839 220.845 L103.839 251.469 L111.478 251.469 L111.478 255.405 L91.5706 255.405 L91.5706 251.469 Z" fill="#000000" fill-rule="nonzero" fill-opacity="1"></path><path clip-path="url(#clip290)" d="M120.922 249.525 L125.807 249.525 L125.807 255.405 L120.922 255.405 L120.922 249.525 Z" fill="#000000" fill-rule="nonzero" fill-opacity="1"></path><path clip-path="url(#clip290)" d="M145.992 223.923 Q142.381 223.923 140.552 227.488 Q138.746 231.03 138.746 238.159 Q138.746 245.266 140.552 248.831 Q142.381 252.372 145.992 252.372 Q149.626 252.372 151.431 248.831 Q153.26 245.266 153.26 238.159 Q153.26 231.03 151.431 227.488 Q149.626 223.923 145.992 223.923 M145.992 220.22 Q151.802 220.22 154.857 224.826 Q157.936 229.409 157.936 238.159 Q157.936 246.886 154.857 251.493 Q151.802 256.076 145.992 256.076 Q140.181 256.076 137.103 251.493 Q134.047 246.886 134.047 238.159 Q134.047 229.409 137.103 224.826 Q140.181 220.22 145.992 220.22 Z" fill="#000000" fill-rule="nonzero" fill-opacity="1"></path><polyline clip-path="url(#clip292)" style="stroke:#009af9; stroke-linecap:round; stroke-linejoin:round; stroke-width:4; stroke-opacity:1; fill:none" points="255.035,353.253 278.995,734.127 302.955,700.361 326.915,534.175 350.876,491.547 374.836,757.817 398.796,282.519 422.757,87.9763 446.717,464.315 470.677,599.957 494.637,736.726 518.598,591.416 542.558,697.959 566.518,608.981 590.478,679.187 614.439,831.354 638.399,781.295 662.359,609.707 686.319,396.552 710.28,728.804 734.24,596.928 758.2,460.035 782.161,319.448 806.121,680.121 830.081,677.417 854.041,803.37 878.002,795.085 901.962,711.823 925.922,502.217 949.882,716.376 973.843,781.321 997.803,662.274 1021.76,760.416 1045.72,698.868 1069.68,836.321 1093.64,679.502 1117.6,766.511 1141.56,772.906 1165.52,677.334 1189.49,570.719 1213.45,689.477 1237.41,785.07 1261.37,738.929 1285.33,710.326 1309.29,492.552 1333.25,738.225 1357.21,696.858 1381.17,664.51 1405.13,766.714 1429.09,695.93 1453.05,765.72 1477.01,592.443 1500.97,776.637 1524.93,546.659 1548.89,586.713 1572.85,715.75 1596.81,731.413 1620.77,554.842 1644.73,460.622 1668.69,581.727 1692.65,765.401 1716.61,784.574 1740.57,516.897 1764.53,689.949 1788.49,709.856 1812.45,787.504 1836.41,687.282 1860.37,764.972 1884.33,816.307 1908.29,570.022 1932.25,529.316 1956.21,760.387 1980.17,770.648 2004.13,725.312 2028.09,806.449 2052.05,691.467 2076.01,614.073 2099.98,707.559 2123.94,833.289 2147.9,775.053 2171.86,623.929 2195.82,700.463 2219.78,564.97 2243.74,700.268 2267.7,662.26 2291.66,818.518 "></polyline>
<polyline clip-path="url(#clip292)" style="stroke:#e26f46; stroke-linecap:round; stroke-linejoin:round; stroke-width:4; stroke-opacity:1; fill:none" points="255.035,382.081 278.995,734.127 302.955,700.361 326.915,547.548 350.876,523.6 374.836,757.817 398.796,310.953 422.757,199.029 446.717,486.377 470.677,599.957 494.637,736.726 518.598,591.416 542.558,697.959 566.518,621.812 590.478,679.187 614.439,832.502 638.399,785.132 662.359,617.89 686.319,413.171 710.28,728.804 734.24,612.451 758.2,519.927 782.161,400.963 806.121,689.942 830.081,683.659 854.041,803.37 878.002,802.394 901.962,711.823 925.922,551.016 949.882,716.376 973.843,781.321 997.803,670.317 1021.76,762.936 1045.72,703.189 1069.68,836.321 1093.64,691.182 1117.6,766.511 1141.56,772.906 1165.52,679.537 1189.49,603.407 1213.45,689.477 1237.41,789.853 1261.37,740.056 1285.33,710.326 1309.29,539.325 1333.25,738.225 1357.21,703.275 1381.17,681.862 1405.13,766.714 1429.09,696.414 1453.05,765.72 1477.01,603.084 1500.97,776.637 1524.93,548.989 1548.89,596.608 1572.85,715.75 1596.81,731.413 1620.77,572.941 1644.73,519.49 1668.69,615.671 1692.65,765.401 1716.61,785.47 1740.57,551.909 1764.53,689.949 1788.49,718.413 1812.45,789.602 1836.41,697.462 1860.37,764.972 1884.33,822.51 1908.29,604.487 1932.25,552.071 1956.21,762.891 1980.17,778.991 2004.13,728.199 2028.09,806.449 2052.05,700.33 2076.01,638.939 2099.98,707.559 2123.94,835.972 2147.9,775.649 2171.86,630.709 2195.82,705.291 2219.78,603.242 2243.74,705.588 2267.7,677.201 2291.66,859.561 "></polyline>
<polyline clip-path="url(#clip292)" style="stroke:#3da44d; stroke-linecap:round; stroke-linejoin:round; stroke-width:4; stroke-opacity:1; fill:none" points="255.035,668.508 278.995,894.826 302.955,1004.63 326.915,847.87 350.876,885.377 374.836,1445.72 398.796,644.29 422.757,713.468 446.717,833.303 470.677,941.833 494.637,820.966 518.598,788.584 542.558,832.651 566.518,751.819 590.478,806.847 614.439,1018.37 638.399,891.568 662.359,794.956 686.319,644.513 710.28,814.512 734.24,776.002 758.2,794.565 782.161,712.16 806.121,741.451 830.081,734.699 854.041,990.364 878.002,962.264 901.962,910.867 925.922,703.783 949.882,765.166 973.843,1019.93 997.803,735.988 1021.76,808.597 1045.72,770.327 1069.68,1153.94 1093.64,824.779 1117.6,832.867 1141.56,1085.78 1165.52,755.565 1189.49,709.702 1213.45,937.841 1237.41,945.626 1261.37,802.243 1285.33,820.392 1309.29,708.664 1333.25,895.658 1357.21,823.899 1381.17,879.024 1405.13,923.063 1429.09,796.156 1453.05,836.819 1477.01,754.256 1500.97,1034.86 1524.93,731.302 1548.89,711.68 1572.85,1015.57 1596.81,772.956 1620.77,701.561 1644.73,756.53 1668.69,779.414 1692.65,841.138 1716.61,944.805 1740.57,692.795 1764.53,752.133 1788.49,758.378 1812.45,926.638 1836.41,780.517 1860.37,983.561 1884.33,956.048 1908.29,718.165 1932.25,691.381 1956.21,798.726 1980.17,868.294 2004.13,797.426 2028.09,1262.54 2052.05,756.222 2076.01,721.145 2099.98,759.24 2123.94,1063.73 2147.9,935.515 2171.86,722.779 2195.82,746.029 2219.78,720.852 2243.74,751.715 2267.7,737.244 2291.66,1016.78 "></polyline>
<polyline clip-path="url(#clip292)" style="stroke:#c271d2; stroke-linecap:round; stroke-linejoin:round; stroke-width:4; stroke-opacity:1; fill:none" points="255.035,668.508 278.995,867.063 302.955,958.821 326.915,847.87 350.876,885.377 374.836,1317 398.796,644.29 422.757,713.468 446.717,833.303 470.677,934.757 494.637,808.424 518.598,788.584 542.558,818.204 566.518,751.819 590.478,798.129 614.439,998.281 638.399,881.003 662.359,794.956 686.319,625.49 710.28,814.512 734.24,776.002 758.2,794.565 782.161,712.16 806.121,741.451 830.081,726.77 854.041,990.364 878.002,920.621 901.962,881.368 925.922,694.91 949.882,765.166 973.843,1005.54 997.803,731.051 1021.76,802.645 1045.72,770.327 1069.68,1110.92 1093.64,824.779 1117.6,832.867 1141.56,1025.23 1165.52,755.565 1189.49,697.246 1213.45,901.886 1237.41,906.973 1261.37,798.511 1285.33,813.315 1309.29,704.684 1333.25,884.185 1357.21,823.899 1381.17,879.024 1405.13,923.063 1429.09,792.845 1453.05,820.361 1477.01,754.256 1500.97,1034.86 1524.93,731.302 1548.89,708.734 1572.85,973.969 1596.81,769.644 1620.77,700.313 1644.73,756.53 1668.69,779.414 1692.65,841.138 1716.61,913.545 1740.57,675.655 1764.53,752.133 1788.49,758.378 1812.45,920.089 1836.41,780.517 1860.37,940.16 1884.33,953.927 1908.29,709.511 1932.25,676.772 1956.21,798.726 1980.17,852.925 2004.13,797.426 2028.09,1163.03 2052.05,756.222 2076.01,708.018 2099.98,759.24 2123.94,1055.04 2147.9,922.214 2171.86,718.957 2195.82,740.499 2219.78,704.721 2243.74,749.006 2267.7,725.221 2291.66,963.133 "></polyline>
<path clip-path="url(#clip290)" d="M2010.77 354.418 L2280.8 354.418 L2280.8 95.2176 L2010.77 95.2176  Z" fill="#ffffff" fill-rule="evenodd" fill-opacity="1"></path>
<polyline clip-path="url(#clip290)" style="stroke:#000000; stroke-linecap:round; stroke-linejoin:round; stroke-width:4; stroke-opacity:1; fill:none" points="2010.77,354.418 2280.8,354.418 2280.8,95.2176 2010.77,95.2176 2010.77,354.418 "></polyline>
<polyline clip-path="url(#clip290)" style="stroke:#009af9; stroke-linecap:round; stroke-linejoin:round; stroke-width:4; stroke-opacity:1; fill:none" points="2034.76,147.058 2178.68,147.058 "></polyline>
<path clip-path="url(#clip290)" d="M2216.51 166.745 Q2214.7 171.375 2212.99 172.787 Q2211.28 174.199 2208.41 174.199 L2205 174.199 L2205 170.634 L2207.5 170.634 Q2209.26 170.634 2210.23 169.8 Q2211.21 168.967 2212.39 165.865 L2213.15 163.921 L2202.67 138.412 L2207.18 138.412 L2215.28 158.689 L2223.38 138.412 L2227.9 138.412 L2216.51 166.745 Z" fill="#000000" fill-rule="nonzero" fill-opacity="1"></path><path clip-path="url(#clip290)" d="M2235.19 160.402 L2242.83 160.402 L2242.83 134.037 L2234.52 135.703 L2234.52 131.444 L2242.78 129.778 L2247.46 129.778 L2247.46 160.402 L2255.1 160.402 L2255.1 164.338 L2235.19 164.338 L2235.19 160.402 Z" fill="#000000" fill-rule="nonzero" fill-opacity="1"></path><polyline clip-path="url(#clip290)" style="stroke:#e26f46; stroke-linecap:round; stroke-linejoin:round; stroke-width:4; stroke-opacity:1; fill:none" points="2034.76,198.898 2178.68,198.898 "></polyline>
<path clip-path="url(#clip290)" d="M2216.51 218.585 Q2214.7 223.215 2212.99 224.627 Q2211.28 226.039 2208.41 226.039 L2205 226.039 L2205 222.474 L2207.5 222.474 Q2209.26 222.474 2210.23 221.64 Q2211.21 220.807 2212.39 217.705 L2213.15 215.761 L2202.67 190.252 L2207.18 190.252 L2215.28 210.529 L2223.38 190.252 L2227.9 190.252 L2216.51 218.585 Z" fill="#000000" fill-rule="nonzero" fill-opacity="1"></path><path clip-path="url(#clip290)" d="M2238.41 212.242 L2254.73 212.242 L2254.73 216.178 L2232.78 216.178 L2232.78 212.242 Q2235.44 209.488 2240.03 204.858 Q2244.63 200.205 2245.81 198.863 Q2248.06 196.34 2248.94 194.604 Q2249.84 192.844 2249.84 191.155 Q2249.84 188.4 2247.9 186.664 Q2245.98 184.928 2242.87 184.928 Q2240.67 184.928 2238.22 185.692 Q2235.79 186.455 2233.01 188.006 L2233.01 183.284 Q2235.84 182.15 2238.29 181.571 Q2240.74 180.993 2242.78 180.993 Q2248.15 180.993 2251.35 183.678 Q2254.54 186.363 2254.54 190.854 Q2254.54 192.983 2253.73 194.905 Q2252.94 196.803 2250.84 199.395 Q2250.26 200.067 2247.16 203.284 Q2244.05 206.479 2238.41 212.242 Z" fill="#000000" fill-rule="nonzero" fill-opacity="1"></path><polyline clip-path="url(#clip290)" style="stroke:#3da44d; stroke-linecap:round; stroke-linejoin:round; stroke-width:4; stroke-opacity:1; fill:none" points="2034.76,250.738 2178.68,250.738 "></polyline>
<path clip-path="url(#clip290)" d="M2216.51 270.425 Q2214.7 275.055 2212.99 276.467 Q2211.28 277.879 2208.41 277.879 L2205 277.879 L2205 274.314 L2207.5 274.314 Q2209.26 274.314 2210.23 273.48 Q2211.21 272.647 2212.39 269.545 L2213.15 267.601 L2202.67 242.092 L2207.18 242.092 L2215.28 262.369 L2223.38 242.092 L2227.9 242.092 L2216.51 270.425 Z" fill="#000000" fill-rule="nonzero" fill-opacity="1"></path><path clip-path="url(#clip290)" d="M2248.54 249.383 Q2251.9 250.101 2253.78 252.369 Q2255.67 254.638 2255.67 257.971 Q2255.67 263.087 2252.16 265.888 Q2248.64 268.689 2242.16 268.689 Q2239.98 268.689 2237.66 268.249 Q2235.37 267.832 2232.92 266.976 L2232.92 262.462 Q2234.86 263.596 2237.18 264.175 Q2239.49 264.754 2242.02 264.754 Q2246.41 264.754 2248.71 263.018 Q2251.02 261.281 2251.02 257.971 Q2251.02 254.916 2248.87 253.203 Q2246.74 251.467 2242.92 251.467 L2238.89 251.467 L2238.89 247.624 L2243.1 247.624 Q2246.55 247.624 2248.38 246.258 Q2250.21 244.87 2250.21 242.277 Q2250.21 239.615 2248.31 238.203 Q2246.44 236.768 2242.92 236.768 Q2241 236.768 2238.8 237.184 Q2236.6 237.601 2233.96 238.481 L2233.96 234.314 Q2236.62 233.573 2238.94 233.203 Q2241.28 232.833 2243.34 232.833 Q2248.66 232.833 2251.76 235.263 Q2254.86 237.67 2254.86 241.791 Q2254.86 244.661 2253.22 246.652 Q2251.58 248.62 2248.54 249.383 Z" fill="#000000" fill-rule="nonzero" fill-opacity="1"></path><polyline clip-path="url(#clip290)" style="stroke:#c271d2; stroke-linecap:round; stroke-linejoin:round; stroke-width:4; stroke-opacity:1; fill:none" points="2034.76,302.578 2178.68,302.578 "></polyline>
<path clip-path="url(#clip290)" d="M2216.51 322.265 Q2214.7 326.895 2212.99 328.307 Q2211.28 329.719 2208.41 329.719 L2205 329.719 L2205 326.154 L2207.5 326.154 Q2209.26 326.154 2210.23 325.32 Q2211.21 324.487 2212.39 321.385 L2213.15 319.441 L2202.67 293.932 L2207.18 293.932 L2215.28 314.209 L2223.38 293.932 L2227.9 293.932 L2216.51 322.265 Z" fill="#000000" fill-rule="nonzero" fill-opacity="1"></path><path clip-path="url(#clip290)" d="M2247.23 289.372 L2235.42 307.821 L2247.23 307.821 L2247.23 289.372 M2246 285.298 L2251.88 285.298 L2251.88 307.821 L2256.81 307.821 L2256.81 311.709 L2251.88 311.709 L2251.88 319.858 L2247.23 319.858 L2247.23 311.709 L2231.62 311.709 L2231.62 307.196 L2246 285.298 Z" fill="#000000" fill-rule="nonzero" fill-opacity="1"></path></svg>